<?xml version="1.0" encoding="utf-8"?>
<!-- Generator: Adobe Illustrator 21.1.0, SVG Export Plug-In . SVG Version: 6.00 Build 0)  -->
<svg version="1.1" id="Layer_1" xmlns="http://www.w3.org/2000/svg" xmlns:xlink="http://www.w3.org/1999/xlink" x="0px" y="0px"
	 viewBox="0 0 15 17" style="enable-background:new 0 0 15 17;" xml:space="preserve">
<g transform="translate(360 1480)">
	<path d="M-345-1479.5c-0.1-0.2-0.3-0.5-1-0.5h-13c-0.7,0-0.9,0.3-1,0.5c-0.1,0.2-0.1,0.6,0.3,1l6.6,6.2v6.8c0,0.8-0.5,1.5-1,1.5
		h-1.5c-0.3,0-0.5,0.2-0.5,0.5c0,0.3,0.2,0.5,0.5,0.5h6c0.3,0,0.5-0.2,0.5-0.5c0-0.3-0.2-0.5-0.5-0.5h-1.5c-0.5,0-1-0.7-1-1.5v-6.8
		l6.6-6.2C-344.9-1478.9-345-1479.3-345-1479.5z M-352.5-1473.2l-6.2-5.8h12.5L-352.5-1473.2z"/>
</g>
</svg>
