<?xml version="1.0" encoding="utf-8"?>
<!-- Generator: Adobe Illustrator 21.1.0, SVG Export Plug-In . SVG Version: 6.00 Build 0)  -->
<svg version="1.1" id="Layer_1" xmlns="http://www.w3.org/2000/svg" xmlns:xlink="http://www.w3.org/1999/xlink" x="0px" y="0px"
	 viewBox="0 0 14 19" style="enable-background:new 0 0 14 19;" xml:space="preserve">
<g transform="translate(120 680)">
	<path d="M-107.5-661h-11c-0.8,0-1.5-0.7-1.5-1.5v-16c0-0.8,0.7-1.5,1.5-1.5h11c0.8,0,1.5,0.7,1.5,1.5v16
		C-106-661.7-106.7-661-107.5-661z M-118.5-679c-0.3,0-0.5,0.2-0.5,0.5v16c0,0.3,0.2,0.5,0.5,0.5h11c0.3,0,0.5-0.2,0.5-0.5v-16
		c0-0.3-0.2-0.5-0.5-0.5H-118.5z"/>
	<path d="M-113-674c-1.1,0-2-0.9-2-2c0-1.1,0.9-2,2-2c1.1,0,2,0.9,2,2C-111-674.9-111.9-674-113-674z M-113-677c-0.6,0-1,0.4-1,1
		c0,0.6,0.4,1,1,1c0.6,0,1-0.4,1-1C-112-676.6-112.4-677-113-677z"/>
	<path d="M-113-663c-2.8,0-5-2.2-5-5c0-2.8,2.2-5,5-5c2.8,0,5,2.2,5,5C-108-665.2-110.2-663-113-663z M-113-672c-2.2,0-4,1.8-4,4
		c0,2.2,1.8,4,4,4c2.2,0,4-1.8,4-4C-109-670.2-110.8-672-113-672z"/>
	<path d="M-113-666c-1.1,0-2-0.9-2-2c0-1.1,0.9-2,2-2c1.1,0,2,0.9,2,2C-111-666.9-111.9-666-113-666z M-113-669c-0.6,0-1,0.4-1,1
		c0,0.6,0.4,1,1,1c0.6,0,1-0.4,1-1C-112-668.6-112.4-669-113-669z"/>
</g>
</svg>
