<?xml version="1.0" encoding="utf-8"?>
<!-- Generator: Adobe Illustrator 21.1.0, SVG Export Plug-In . SVG Version: 6.00 Build 0)  -->
<svg version="1.1" id="Layer_1" xmlns="http://www.w3.org/2000/svg" xmlns:xlink="http://www.w3.org/1999/xlink" x="0px" y="0px"
	 viewBox="0 0 20 18" style="enable-background:new 0 0 20 18;" xml:space="preserve">
<g transform="translate(360 0)">
	<path d="M-355.5,18h-1c-0.3,0-0.5-0.2-0.5-0.5s0.2-0.5,0.5-0.5h1c0.3,0,0.5,0.2,0.5,0.5S-355.2,18-355.5,18z"/>
	<path d="M-343.5,18h-1c-0.3,0-0.5-0.2-0.5-0.5s0.2-0.5,0.5-0.5h1c0.3,0,0.5,0.2,0.5,0.5S-343.2,18-343.5,18z"/>
	<path d="M-342,6c-0.1-2.5-0.8-4.1-2.3-5c-1.4-0.8-3.2-1-5.7-1c-2.5,0-4.3,0.2-5.7,1c-1.5,0.9-2.2,2.5-2.3,5c-1.1,0.2-2,1.2-2,2.5
		c0,1.2,0.9,2.2,2,2.5v4.5c0,0.8,0.7,1.5,1.5,1.5h13c0.8,0,1.5-0.7,1.5-1.5V11c1.1-0.2,2-1.2,2-2.5C-340,7.3-340.9,6.3-342,6z
		 M-355.2,1.9C-354,1.1-352.3,1-350,1c2.3,0,4,0.1,5.2,0.9c1.2,0.7,1.7,2.1,1.8,4.2c-1.1,0.2-2,1.2-2,2.4V10h-10V8.5
		c0-1.2-0.9-2.2-2-2.4C-356.9,3.9-356.3,2.6-355.2,1.9L-355.2,1.9z M-355,11h10v1.5c0,0.3-0.2,0.5-0.5,0.5h-9
		c-0.3,0-0.5-0.2-0.5-0.5V11z M-342.5,10c-0.3,0-0.5,0.2-0.5,0.5v5c0,0.3-0.2,0.5-0.5,0.5h-13c-0.3,0-0.5-0.2-0.5-0.5v-5
		c0-0.3-0.2-0.5-0.5-0.5c-0.8,0-1.5-0.7-1.5-1.5c0-0.8,0.7-1.5,1.5-1.5c0.8,0,1.5,0.7,1.5,1.5v4c0,0.8,0.7,1.5,1.5,1.5h9
		c0.8,0,1.5-0.7,1.5-1.5v-4c0-0.8,0.7-1.5,1.5-1.5c0.8,0,1.5,0.7,1.5,1.5C-341,9.3-341.7,10-342.5,10z"/>
	<path d="M-344.5,5h-0.5c-1.1,0-2-0.9-2-2V2.5c0-0.3-0.2-0.5-0.5-0.5c-0.3,0-0.5,0.2-0.5,0.5V3c0,1.1-0.9,2-2,2c-1.1,0-2-0.9-2-2
		V2.5c0-0.3-0.2-0.5-0.5-0.5c-0.3,0-0.5,0.2-0.5,0.5V3c0,1.1-0.9,2-2,2h-0.5c-0.3,0-0.5,0.2-0.5,0.5s0.2,0.5,0.5,0.5h0.5
		c1.1,0,2,0.9,2,2v0.5c0,0.3,0.2,0.5,0.5,0.5c0.3,0,0.5-0.2,0.5-0.5V8c0-1.1,0.9-2,2-2c1.1,0,2,0.9,2,2v0.5c0,0.3,0.2,0.5,0.5,0.5
		c0.3,0,0.5-0.2,0.5-0.5V8c0-1.1,0.9-2,2-2h0.5c0.3,0,0.5-0.2,0.5-0.5S-344.2,5-344.5,5z M-352.5,6.3c-0.2-0.3-0.5-0.6-0.8-0.8
		c0.3-0.2,0.6-0.5,0.8-0.8c0.2,0.3,0.5,0.6,0.8,0.8C-352,5.7-352.3,6-352.5,6.3z M-347.5,6.3c-0.2-0.3-0.5-0.6-0.8-0.8
		c0.3-0.2,0.6-0.5,0.8-0.8c0.2,0.3,0.5,0.6,0.8,0.8C-347,5.7-347.3,6-347.5,6.3z"/>
</g>
</svg>
