<?xml version="1.0" encoding="utf-8"?>
<!-- Generator: Adobe Illustrator 21.1.0, SVG Export Plug-In . SVG Version: 6.00 Build 0)  -->
<svg version="1.1" id="Layer_1" xmlns="http://www.w3.org/2000/svg" xmlns:xlink="http://www.w3.org/1999/xlink" x="0px" y="0px"
	 viewBox="0 0 18.5 13" style="enable-background:new 0 0 18.5 13;" xml:space="preserve">
<g transform="translate(400 2360)">
	<path d="M-381.6-2353.9l-6-6c-0.2-0.2-0.5-0.2-0.7,0c-0.2,0.2-0.2,0.5,0,0.7l5.1,5.1h-16.3c-0.3,0-0.5,0.2-0.5,0.5s0.2,0.5,0.5,0.5
		h16.3l-5.1,5.1c-0.2,0.2-0.2,0.5,0,0.7c0.1,0.1,0.2,0.1,0.4,0.1c0.1,0,0.3,0,0.4-0.1l6-6C-381.5-2353.3-381.5-2353.7-381.6-2353.9
		L-381.6-2353.9z"/>
</g>
</svg>
