<?xml version="1.0" encoding="utf-8"?>
<!-- Generator: Adobe Illustrator 21.1.0, SVG Export Plug-In . SVG Version: 6.00 Build 0)  -->
<svg version="1.1" id="Layer_1" xmlns="http://www.w3.org/2000/svg" xmlns:xlink="http://www.w3.org/1999/xlink" x="0px" y="0px"
	 viewBox="0 0 13 18.5" style="enable-background:new 0 0 13 18.5;" xml:space="preserve">
<g transform="translate(280 2360)">
	<path d="M-273.9-2359.9l-6,6c-0.2,0.2-0.2,0.5,0,0.7c0.2,0.2,0.5,0.2,0.7,0l5.1-5.1v16.3c0,0.3,0.2,0.5,0.5,0.5
		c0.3,0,0.5-0.2,0.5-0.5v-16.3l5.1,5.1c0.2,0.2,0.5,0.2,0.7,0c0.1-0.1,0.1-0.2,0.1-0.4s0-0.3-0.1-0.4l-6-6
		C-273.3-2360-273.7-2360-273.9-2359.9L-273.9-2359.9z"/>
</g>
</svg>
