<?xml version="1.0" encoding="utf-8"?>
<!-- Generator: Adobe Illustrator 21.1.0, SVG Export Plug-In . SVG Version: 6.00 Build 0)  -->
<svg version="1.1" id="Layer_1" xmlns="http://www.w3.org/2000/svg" xmlns:xlink="http://www.w3.org/1999/xlink" x="0px" y="0px"
	 viewBox="0 0 20 17" style="enable-background:new 0 0 20 17;" xml:space="preserve">
<g transform="translate(200 680)">
	<path d="M-188.5-674c-0.2,0-0.3-0.1-0.4-0.2c0,0-0.5-0.8-1.1-0.8c-0.6,0-1.1,0.7-1.1,0.8c-0.1,0.2-0.4,0.3-0.7,0.2
		c-0.2-0.1-0.3-0.4-0.2-0.7c0-0.1,0.7-1.2,1.9-1.2c1.2,0,1.9,1.2,1.9,1.2c0.1,0.2,0.1,0.5-0.2,0.7C-188.4-674-188.4-674-188.5-674
		L-188.5-674z"/>
	<path d="M-183.5-674c-0.2,0-0.3-0.1-0.4-0.2c0,0-0.5-0.8-1.1-0.8c-0.6,0-1.1,0.7-1.1,0.8c-0.1,0.2-0.4,0.3-0.7,0.2
		c-0.2-0.1-0.3-0.4-0.2-0.7c0-0.1,0.7-1.2,1.9-1.2c1.2,0,1.9,1.2,1.9,1.2c0.1,0.2,0.1,0.5-0.2,0.7C-183.4-674-183.4-674-183.5-674
		L-183.5-674z"/>
	<path d="M-187.5-668c-2.3,0-3.4-2.2-3.4-2.3c-0.1-0.2-0.1-0.3,0-0.5c0.1-0.1,0.3-0.2,0.4-0.2h6c0.2,0,0.3,0.1,0.4,0.2
		c0.1,0.1,0.1,0.3,0,0.5C-184.1-670.2-185.2-668-187.5-668z M-189.6-670c0.4,0.5,1.1,1,2,1c0.9,0,1.6-0.5,2-1H-189.6L-189.6-670z"/>
	<path d="M-180.2-679.9c-0.1-0.1-0.3-0.1-0.5-0.1c0,0-3,1-6.8,1c-3.9,0-6.8-1-6.8-1c-0.2-0.1-0.3,0-0.5,0.1
		c-0.1,0.1-0.2,0.2-0.2,0.4c0,0.1,0,1,0.1,2.4c-2.6-0.3-4.4-0.9-4.5-0.9c-0.2-0.1-0.3,0-0.5,0.1c-0.1,0.1-0.2,0.2-0.2,0.4
		c0,0.1,0,2.3,0.4,5c0.3,1.6,0.6,3,1.1,4.2c0.6,1.6,1.3,2.8,2.2,3.7c1.1,1.1,2.3,1.6,3.8,1.6c1.6,0,3-0.7,4.2-2.1
		c0.3,0,0.5,0.1,0.8,0.1c1.8,0,3.3-0.8,4.4-2.4c0.9-1.2,1.6-2.9,2.2-5c0.9-3.5,0.9-7,0.9-7.1C-180-679.7-180.1-679.8-180.2-679.9
		L-180.2-679.9z M-192.5-664c-1.2,0-2.2-0.4-3.1-1.3c-2.8-2.8-3.3-9.4-3.4-11.5c0.8,0.2,2.3,0.6,4.2,0.7c0.1,0.5,0.1,1,0.2,1.6
		c0.1,0.4,0.1,0.8,0.2,1.2c-0.2,0.2-0.4,0.3-0.7,0.3c-0.6,0-1.1-0.7-1.1-0.8c-0.1-0.2-0.4-0.3-0.7-0.2c-0.2,0.1-0.3,0.4-0.2,0.7
		c0,0.1,0.7,1.2,1.9,1.2c0.4,0,0.7-0.1,0.9-0.3c0.2,0.7,0.4,1.4,0.6,2c0.2,0.5,0.4,1,0.6,1.4c-1.3,0.5-2.1,2-2.1,2.1
		c-0.1,0.2-0.1,0.3,0,0.5c0.1,0.1,0.3,0.2,0.4,0.2h3.9c0.4,0.3,0.8,0.5,1.2,0.7C-190.3-664.4-191.3-664-192.5-664L-192.5-664z
		 M-191.7-667h-1.9c0.3-0.4,0.7-0.8,1.2-1C-192.1-667.6-191.9-667.3-191.7-667L-191.7-667z M-181.9-672.6c-0.5,2-1.2,3.5-2,4.6
		c-1,1.3-2.2,2-3.6,2c-1,0-1.8-0.3-2.6-0.9c0,0,0,0,0,0c-0.2-0.1-0.3-0.3-0.5-0.4c-0.4-0.4-0.8-0.9-1.1-1.4c0,0,0,0,0,0
		c-1.9-3.2-2.2-8.3-2.3-10.1c1.1,0.3,3.5,0.8,6.5,0.8c3,0,5.4-0.5,6.5-0.8C-181.1-677.7-181.3-675.1-181.9-672.6L-181.9-672.6z"/>
</g>
</svg>
