<?xml version="1.0" encoding="utf-8"?>
<!-- Generator: Adobe Illustrator 21.1.0, SVG Export Plug-In . SVG Version: 6.00 Build 0)  -->
<svg version="1.1" id="Layer_1" xmlns="http://www.w3.org/2000/svg" xmlns:xlink="http://www.w3.org/1999/xlink" x="0px" y="0px"
	 viewBox="0 0 20 20" style="enable-background:new 0 0 20 20;" xml:space="preserve">
<g transform="translate(240 0)">
	<path d="M-223.5,20h-1c-0.3,0-0.5-0.2-0.5-0.5s0.2-0.5,0.5-0.5h1c0.3,0,0.5,0.2,0.5,0.5S-223.2,20-223.5,20z"/>
	<path d="M-235.5,20h-1c-0.3,0-0.5-0.2-0.5-0.5s0.2-0.5,0.5-0.5h1c0.3,0,0.5,0.2,0.5,0.5S-235.2,20-235.5,20z"/>
	<path d="M-220,12.5c0-0.8-0.7-1.5-1.5-1.5H-237V1.5c0-0.3,0.2-0.5,0.5-0.5h1.5c0.1,0,0.4,0.1,0.5,0.2l0.1,0.1
		c-0.9,1.3-0.8,3.1,0.3,4.2c0.1,0.1,0.2,0.1,0.4,0.1c0.1,0,0.3-0.1,0.4-0.1l3.9-3.9c0.2-0.2,0.2-0.5,0-0.7c-0.6-0.6-1.4-1-2.3-1
		c-0.7,0-1.4,0.2-1.9,0.6l-0.1-0.1c-0.3-0.3-0.8-0.5-1.2-0.5h-1.5c-0.8,0-1.5,0.7-1.5,1.5V11h-0.5c-0.8,0-1.5,0.7-1.5,1.5
		c0,0.7,0.4,1.2,1,1.4v2.6c0,1.4,1.1,2.5,2.5,2.5h13c1.4,0,2.5-1.1,2.5-2.5v-2.6C-220.4,13.7-220,13.2-220,12.5L-220,12.5z
		 M-230.6,1.3l-3.1,3.1c-0.5-0.9-0.4-2,0.3-2.8c0.4-0.4,1-0.7,1.6-0.7C-231.3,1-230.9,1.1-230.6,1.3z M-223.5,18h-13
		c-0.8,0-1.5-0.7-1.5-1.5V14h16v2.5C-222,17.3-222.7,18-223.5,18z M-221.5,13h-17c-0.3,0-0.5-0.2-0.5-0.5s0.2-0.5,0.5-0.5h17
		c0.3,0,0.5,0.2,0.5,0.5S-221.2,13-221.5,13z"/>
	<path d="M-230,6.5c0,0.3-0.2,0.5-0.5,0.5c-0.3,0-0.5-0.2-0.5-0.5s0.2-0.5,0.5-0.5C-230.2,6-230,6.2-230,6.5z"/>
	<path d="M-230,4.5c0,0.3-0.2,0.5-0.5,0.5c-0.3,0-0.5-0.2-0.5-0.5s0.2-0.5,0.5-0.5C-230.2,4-230,4.2-230,4.5z"/>
	<path d="M-228,4.5c0,0.3-0.2,0.5-0.5,0.5s-0.5-0.2-0.5-0.5s0.2-0.5,0.5-0.5S-228,4.2-228,4.5z"/>
	<path d="M-228,6.5c0,0.3-0.2,0.5-0.5,0.5s-0.5-0.2-0.5-0.5s0.2-0.5,0.5-0.5S-228,6.2-228,6.5z"/>
	<path d="M-226,4.5c0,0.3-0.2,0.5-0.5,0.5s-0.5-0.2-0.5-0.5s0.2-0.5,0.5-0.5S-226,4.2-226,4.5z"/>
	<path d="M-230,8.5c0,0.3-0.2,0.5-0.5,0.5c-0.3,0-0.5-0.2-0.5-0.5s0.2-0.5,0.5-0.5C-230.2,8-230,8.2-230,8.5z"/>
	<path d="M-226,6.5c0,0.3-0.2,0.5-0.5,0.5s-0.5-0.2-0.5-0.5s0.2-0.5,0.5-0.5S-226,6.2-226,6.5z"/>
	<path d="M-228,8.5c0,0.3-0.2,0.5-0.5,0.5s-0.5-0.2-0.5-0.5s0.2-0.5,0.5-0.5S-228,8.2-228,8.5z"/>
</g>
</svg>
