<?xml version="1.0" encoding="utf-8"?>
<!-- Generator: Adobe Illustrator 21.1.0, SVG Export Plug-In . SVG Version: 6.00 Build 0)  -->
<svg version="1.1" id="Layer_1" xmlns="http://www.w3.org/2000/svg" xmlns:xlink="http://www.w3.org/1999/xlink" x="0px" y="0px"
	 viewBox="0 0 19 16" style="enable-background:new 0 0 19 16;" xml:space="preserve">
<g transform="translate(320 0)">
	<path d="M-302.5,16h-1c-0.3,0-0.5-0.2-0.5-0.5c0-0.3,0.2-0.5,0.5-0.5h1c0.3,0,0.5,0.2,0.5,0.5C-302,15.8-302.2,16-302.5,16z"/>
	<path d="M-317.5,16h-1c-0.3,0-0.5-0.2-0.5-0.5c0-0.3,0.2-0.5,0.5-0.5h1c0.3,0,0.5,0.2,0.5,0.5C-317,15.8-317.2,16-317.5,16z"/>
	<path d="M-301.3,9.4l-2.4-7.1c-0.2-0.6-0.8-1.1-1.4-1.2c0-0.1,0-0.2-0.1-0.3c-0.2-0.7-0.6-0.8-0.8-0.8h-4c-0.1,0-0.3,0-0.5,0.2
		C-310.7,0-310.9,0-311,0h-4c-0.2,0-0.6,0.1-0.8,0.8c0,0.1-0.1,0.2-0.1,0.3c-0.6,0.2-1.2,0.6-1.4,1.2l-2.4,7.1
		c-0.2,0.6-0.3,1.5-0.3,2.1v2c0,0.8,0.7,1.5,1.5,1.5h16c0.8,0,1.5-0.7,1.5-1.5v-2C-301,10.9-301.2,10-301.3,9.4z M-309.8,1h3.7
		c0.1,0.2,0.2,0.5,0.2,1c0,0.5-0.1,0.8-0.2,1h-3.7c-0.1-0.2-0.2-0.5-0.2-1C-310,1.5-309.9,1.2-309.8,1z M-314.8,1h3.7
		c0.1,0.2,0.2,0.5,0.2,1c0,0.5-0.1,0.8-0.2,1h-3.7c-0.1-0.2-0.2-0.5-0.2-1C-315,1.5-314.9,1.2-314.8,1z M-316.3,2.6
		c0.1-0.2,0.2-0.3,0.3-0.4c0,0.4,0.1,0.8,0.2,1c0.2,0.7,0.6,0.8,0.8,0.8h4c0.1,0,0.3,0,0.5-0.2C-310.3,4-310.1,4-310,4h4
		c0.2,0,0.6-0.1,0.8-0.8c0.1-0.3,0.2-0.7,0.2-1c0.2,0.1,0.3,0.3,0.3,0.4l0.8,2.4h-13.3L-316.3,2.6L-316.3,2.6z M-317.5,6h13.9
		l1.2,3.7c0,0.1,0.1,0.2,0.1,0.3c-0.1,0-0.2,0-0.3,0h-16c-0.1,0-0.2,0-0.3,0c0-0.1,0.1-0.2,0.1-0.3L-317.5,6L-317.5,6z M-302,13.5
		c0,0.3-0.2,0.5-0.5,0.5h-16c-0.3,0-0.5-0.2-0.5-0.5v-2c0-0.3,0.2-0.5,0.5-0.5h16c0.3,0,0.5,0.2,0.5,0.5V13.5z"/>
</g>
</svg>
