<?xml version="1.0" encoding="utf-8"?>
<!-- Generator: Adobe Illustrator 21.1.0, SVG Export Plug-In . SVG Version: 6.00 Build 0)  -->
<svg version="1.1" id="Layer_1" xmlns="http://www.w3.org/2000/svg" xmlns:xlink="http://www.w3.org/1999/xlink" x="0px" y="0px"
	 viewBox="0 0 15 18" style="enable-background:new 0 0 15 18;" xml:space="preserve">
<g transform="translate(400 1920)">
	<path d="M-385.2-1905.9c-1.1-0.9-1.8-2.2-1.8-3.6v-3c0-2.5-1.7-4.6-4-5.3v-0.7c0-0.8-0.7-1.5-1.5-1.5c-0.8,0-1.5,0.7-1.5,1.5v0.7
		c-2.3,0.7-4,2.8-4,5.3v3c0,1.4-0.7,2.7-1.8,3.6c-0.2,0.1-0.2,0.4-0.2,0.6c0.1,0.2,0.3,0.3,0.5,0.3h4.5c0,0.2-0.1,0.3-0.1,0.5
		c0,1.4,1.1,2.5,2.5,2.5c1.4,0,2.5-1.1,2.5-2.5c0-0.2,0-0.3,0-0.5h4.5c0.2,0,0.4-0.1,0.5-0.3C-385-1905.5-385-1905.8-385.2-1905.9
		L-385.2-1905.9z M-393-1918.5c0-0.3,0.2-0.5,0.5-0.5c0.3,0,0.5,0.2,0.5,0.5v0.5c-0.2,0-0.3,0-0.5,0c-0.2,0-0.3,0-0.5,0V-1918.5z
		 M-391-1904.5c0,0.8-0.7,1.5-1.5,1.5c-0.8,0-1.5-0.7-1.5-1.5c0-0.2,0-0.3,0.1-0.5h2.8C-391-1904.8-391-1904.7-391-1904.5z
		 M-398.3-1906c0.3-0.3,0.5-0.6,0.7-1c0.4-0.8,0.6-1.6,0.6-2.5v-3c0-2.5,2-4.5,4.5-4.5c2.5,0,4.5,2,4.5,4.5v3c0,0.9,0.2,1.7,0.6,2.5
		c0.2,0.4,0.4,0.7,0.7,1H-398.3L-398.3-1906z"/>
</g>
</svg>
