<?xml version="1.0" encoding="utf-8"?>
<!-- Generator: Adobe Illustrator 21.1.0, SVG Export Plug-In . SVG Version: 6.00 Build 0)  -->
<svg version="1.1" id="Layer_1" xmlns="http://www.w3.org/2000/svg" xmlns:xlink="http://www.w3.org/1999/xlink" x="0px" y="0px"
	 viewBox="0 0 19 13" style="enable-background:new 0 0 19 13;" xml:space="preserve">
<g transform="translate(160 1520)">
	<path d="M-141.5-1507h-18c-0.3,0-0.5-0.2-0.5-0.5c0-0.3,0.2-0.5,0.5-0.5h18c0.3,0,0.5,0.2,0.5,0.5
		C-141-1507.2-141.2-1507-141.5-1507z"/>
	<path d="M-142-1509.5c0-2.3-0.9-4.4-2.5-6c-1.5-1.5-3.4-2.4-5.5-2.5v-1h0.5c0.3,0,0.5-0.2,0.5-0.5c0-0.3-0.2-0.5-0.5-0.5h-2
		c-0.3,0-0.5,0.2-0.5,0.5c0,0.3,0.2,0.5,0.5,0.5h0.5v1c-2.1,0.1-4,1-5.5,2.5c-1.6,1.6-2.5,3.7-2.5,6c0,0.3,0.2,0.5,0.5,0.5h16
		c0,0,0,0,0,0C-142.2-1509-142-1509.2-142-1509.5C-142-1509.5-142-1509.5-142-1509.5z M-158-1510c0.3-3.9,3.5-7,7.5-7
		c4,0,7.2,3.1,7.5,7H-158L-158-1510z"/>
	<path d="M-155.4-1512.5c-0.1,0-0.2,0-0.3-0.1c-0.2-0.2-0.3-0.5-0.1-0.7c0.5-0.7,1.1-1.3,1.8-1.7c0.7-0.5,1.5-0.8,2.4-0.9
		c0.3,0,0.5,0.1,0.6,0.4c0,0.3-0.1,0.5-0.4,0.6c-1.4,0.2-2.7,1-3.6,2.2C-155.1-1512.6-155.2-1512.5-155.4-1512.5z"/>
</g>
</svg>
