<?xml version="1.0" encoding="utf-8"?>
<!-- Generator: Adobe Illustrator 21.1.0, SVG Export Plug-In . SVG Version: 6.00 Build 0)  -->
<svg version="1.1" id="Layer_1" xmlns="http://www.w3.org/2000/svg" xmlns:xlink="http://www.w3.org/1999/xlink" x="0px" y="0px"
	 viewBox="0 0 20 12" style="enable-background:new 0 0 20 12;" xml:space="preserve">
<g transform="translate(200 1720)">
	<path d="M-183.5-1715c-0.6,0-1.2,0.2-1.7,0.5l-1.6-2l0.6-1.4h0.7c0.3,0,0.5-0.2,0.5-0.5c0-0.3-0.2-0.5-0.5-0.5h-1c0,0,0,0,0,0h-1
		c-0.3,0-0.5,0.2-0.5,0.5c0,0.3,0.2,0.5,0.5,0.5h0.2l-0.4,1h-5.4l-0.2-0.3l0.5-1.1c0.2-0.4,0.5-0.6,0.7-0.6h0.7
		c0.3,0,0.5-0.2,0.5-0.5c0-0.3-0.2-0.5-0.5-0.5h-0.7c-0.6,0-1.3,0.5-1.6,1.2l-0.6,1.3c0,0,0,0,0,0l-1.2,2.6c-0.3-0.1-0.6-0.1-1-0.1
		c-1.9,0-3.5,1.6-3.5,3.5s1.6,3.5,3.5,3.5s3.5-1.6,3.5-3.5c0-1.2-0.7-2.3-1.6-3l0.8-1.8l3.1,4c-0.2,0.2-0.2,0.5-0.2,0.8
		c0,0.8,0.7,1.5,1.5,1.5c0.7,0,1.2-0.4,1.4-1h1.1c0.2,1.7,1.7,3,3.5,3c1.9,0,3.5-1.6,3.5-3.5S-181.6-1715-183.5-1715L-183.5-1715z
		 M-194-1711.5c0,1.4-1.1,2.5-2.5,2.5c-1.4,0-2.5-1.1-2.5-2.5c0-1.4,1.1-2.5,2.5-2.5c0.2,0,0.4,0,0.5,0.1l-1,2.2
		c-0.1,0.3,0,0.5,0.3,0.7c0.1,0,0.1,0,0.2,0c0.2,0,0.4-0.1,0.5-0.3l1-2.2C-194.4-1713.1-194-1712.3-194-1711.5L-194-1711.5z
		 M-188.5-1712.6l1.3-2.9l1.2,1.6c-0.5,0.5-0.8,1.2-1,1.9h-1.1C-188.2-1712.2-188.3-1712.4-188.5-1712.6z M-185.4-1713.1l0.9,1.1
		h-1.4C-185.9-1712.4-185.7-1712.8-185.4-1713.1z M-188.1-1716l-1.3,3c0,0-0.1,0-0.1,0c-0.2,0-0.3,0-0.5,0.1l-2.4-3.1H-188.1z
		 M-189.5-1711c-0.3,0-0.5-0.2-0.5-0.5c0-0.3,0.2-0.5,0.5-0.5c0.3,0,0.5,0.2,0.5,0.5C-189-1711.2-189.2-1711-189.5-1711z
		 M-183.5-1709c-1.2,0-2.2-0.9-2.5-2h2.5c0.2,0,0.4-0.1,0.4-0.3s0.1-0.4-0.1-0.5l-1.5-1.9c0.3-0.2,0.7-0.3,1.1-0.3
		c1.4,0,2.5,1.1,2.5,2.5S-182.1-1709-183.5-1709L-183.5-1709z"/>
</g>
</svg>
