<?xml version="1.0" encoding="utf-8"?>
<!-- Generator: Adobe Illustrator 21.1.0, SVG Export Plug-In . SVG Version: 6.00 Build 0)  -->
<svg version="1.1" id="Layer_1" xmlns="http://www.w3.org/2000/svg" xmlns:xlink="http://www.w3.org/1999/xlink" x="0px" y="0px"
	 viewBox="0 0 20 16.4" style="enable-background:new 0 0 20 16.4;" xml:space="preserve">
<g transform="translate(40 480)">
	<path d="M-35.5-465.6c-0.6,0-1.2-0.2-1.7-0.5c-0.5-0.4-0.8-0.9-0.8-1.5c0-0.3,0.2-0.5,0.5-0.5c0.3,0,0.5,0.2,0.5,0.5
		c0,0.5,0.6,1,1.5,1c0.3,0,0.5,0.2,0.5,0.5C-35-465.8-35.2-465.6-35.5-465.6z"/>
	<path d="M-20-467.7c0-2-1.2-4.8-2.2-6.8c-1.1-2.2-2.4-4.3-3-4.9c-0.5-0.5-1.3-0.5-1.6-0.5c-0.3,0-1.1,0.1-1.6,0.5
		c-0.2,0.2-0.5,0.7-0.6,2.5c0,0.2,0,0.3,0,0.5c-0.3-0.1-0.6-0.2-1-0.2c-0.3,0-0.7,0.1-1,0.2c0-0.2,0-0.3,0-0.5
		c-0.2-1.8-0.4-2.3-0.6-2.5c-0.5-0.5-1.3-0.5-1.6-0.5c-0.3,0-1.1,0.1-1.6,0.5c-0.6,0.6-1.9,2.8-3,4.9c-1,2-2.1,4.8-2.2,6.8
		c0,0,0,0.1,0,0.1c0,2.2,2,4,4.5,4c2.5,0,4.5-1.8,4.5-4c0,0,0-0.3,0-0.6c0.1-0.2,0.5-0.4,1-0.4c0.5,0,0.9,0.2,1,0.4
		c0,0.4,0,0.6,0,0.6c0,2.2,2,4,4.5,4c2.5,0,4.5-1.8,4.5-4C-20-467.7-20-467.7-20-467.7L-20-467.7z M-28-476.8c0.1-1.7,0.3-2,0.4-2
		c0.3-0.3,1.5-0.3,1.8,0c0.4,0.4,1.6,2.3,2.8,4.7c0.6,1.2,1.1,2.4,1.4,3.4c-0.8-0.6-1.8-0.9-2.8-0.9c-1.5,0-2.8,0.6-3.6,1.6
		c0-0.9,0-1.9,0-2.9C-28.1-474.5-28.1-475.8-28-476.8L-28-476.8z M-36.9-474.1c1.2-2.4,2.4-4.3,2.8-4.7c0.3-0.3,1.5-0.3,1.8,0
		c0,0,0.2,0.4,0.4,2c0.1,1,0.1,2.3,0.1,3.8c0,1,0,2,0,2.9c-0.8-1-2.1-1.6-3.6-1.6c-1.1,0-2.1,0.3-2.8,0.9
		C-38-471.7-37.5-472.9-36.9-474.1L-36.9-474.1z M-35.5-464.6c-1.9,0-3.5-1.3-3.5-3c0,0,0-0.1,0-0.1c0-1.6,1.6-2.9,3.5-2.9
		c1.9,0,3.5,1.3,3.5,3C-32-466-33.6-464.6-35.5-464.6z M-30-469.6c-0.3,0-0.7,0.1-0.9,0.2c0-1,0.1-2.3,0.1-3.5c0-0.8,0-1.6,0-2.3
		c0.2-0.2,0.5-0.3,0.9-0.3c0.4,0,0.8,0.2,0.9,0.3c0,0.7,0,1.5,0,2.3c0,1.3,0,2.6,0.1,3.5C-29.3-469.6-29.7-469.6-30-469.6z
		 M-24.5-464.6c-1.9,0-3.5-1.3-3.5-3c0-1.7,1.6-3,3.5-3c1.9,0,3.4,1.3,3.5,2.9c0,0,0,0.1,0,0.1C-21-466-22.6-464.6-24.5-464.6z"/>
	<path d="M-24.5-465.6c-0.6,0-1.2-0.2-1.7-0.5c-0.5-0.4-0.8-0.9-0.8-1.5c0-0.3,0.2-0.5,0.5-0.5c0.3,0,0.5,0.2,0.5,0.5
		c0,0.5,0.6,1,1.5,1c0.3,0,0.5,0.2,0.5,0.5C-24-465.8-24.2-465.6-24.5-465.6z"/>
</g>
</svg>
