<?xml version="1.0" encoding="utf-8"?>
<!-- Generator: Adobe Illustrator 21.1.0, SVG Export Plug-In . SVG Version: 6.00 Build 0)  -->
<svg version="1.1" id="Layer_1" xmlns="http://www.w3.org/2000/svg" xmlns:xlink="http://www.w3.org/1999/xlink" x="0px" y="0px"
	 viewBox="0 0 17 20" style="enable-background:new 0 0 17 20;" xml:space="preserve">
<g transform="translate(160 360)">
	<path d="M-149.5-357c-0.3,0-0.5-0.2-0.5-0.5v-1c0-0.3-0.2-0.5-0.5-0.5h-2c-0.3,0-0.5,0.2-0.5,0.5v1c0,0.3-0.2,0.5-0.5,0.5
		c-0.3,0-0.5-0.2-0.5-0.5v-1c0-0.8,0.7-1.5,1.5-1.5h2c0.8,0,1.5,0.7,1.5,1.5v1C-149-357.2-149.2-357-149.5-357z"/>
	<path d="M-143.5-357.3c-0.3-0.3-0.7-0.6-1.2-0.8c-0.9-0.4-2.1-0.6-3.8-0.8c-0.3,0-0.5,0.2-0.5,0.5c0,0.3,0.2,0.5,0.5,0.5
		c1.5,0.1,2.7,0.3,3.4,0.7c0.2,0.1,0.3,0.1,0.4,0.2c-1.2,0.5-3.6,1-6.8,1c-3.2,0-5.7-0.5-6.8-1c0.1-0.1,0.3-0.2,0.4-0.2
		c0.8-0.3,1.9-0.6,3.4-0.7c0.3,0,0.5-0.3,0.5-0.5c0-0.3-0.3-0.5-0.5-0.5c-1.7,0.1-2.9,0.4-3.8,0.7c-0.5,0.2-0.9,0.5-1.2,0.8
		c-0.3,0.4-0.5,0.8-0.5,1.3v2.5c0,0.5,0.3,0.9,1,1.3v9.7c0,0.3,0.1,0.8,0.8,1.2c0.4,0.3,0.9,0.5,1.6,0.7c1.4,0.4,3.2,0.6,5.1,0.6
		c1.9,0,3.7-0.2,5.1-0.6c0.7-0.2,1.2-0.4,1.6-0.7c0.6-0.4,0.8-0.9,0.8-1.2v-9.7c0.7-0.4,1-0.8,1-1.3v-2.5
		C-143-356.5-143.2-356.9-143.5-357.3L-143.5-357.3z M-145-342.5c0,0.1-0.3,0.5-1.7,0.9c-1.3,0.4-3,0.6-4.8,0.6
		c-1.8,0-3.5-0.2-4.8-0.6c-1.4-0.4-1.7-0.8-1.7-0.9v-9.3c0.2,0.1,0.5,0.1,0.7,0.2c1.5,0.4,3.6,0.6,5.8,0.6c2.2,0,4.2-0.2,5.8-0.6
		c0.3-0.1,0.5-0.1,0.7-0.2V-342.5z M-144-353.5c0,0-0.1,0.2-0.4,0.3c-0.4,0.2-0.9,0.4-1.6,0.6c-1.5,0.4-3.4,0.6-5.5,0.6
		c-2.1,0-4.1-0.2-5.5-0.6c-0.7-0.2-1.2-0.4-1.6-0.6c-0.3-0.2-0.4-0.3-0.4-0.3v-2.5c0-0.1,0-0.1,0-0.2c0.7,0.4,1.7,0.6,2.5,0.8
		c1.4,0.3,3.1,0.4,4.9,0.4c3.3,0,6.1-0.5,7.5-1.2c0,0.1,0,0.1,0,0.2V-353.5z"/>
	<path d="M-146.5-342.6c-0.3,0-0.5-0.2-0.5-0.5v-7c0-0.3,0.2-0.5,0.5-0.5c0.3,0,0.5,0.2,0.5,0.5v7
		C-146-342.8-146.2-342.6-146.5-342.6z"/>
	<path d="M-148.5-342.2c-0.3,0-0.5-0.2-0.5-0.5v-7c0-0.3,0.2-0.5,0.5-0.5c0.3,0,0.5,0.2,0.5,0.5v7
		C-148-342.4-148.2-342.2-148.5-342.2z"/>
	<path d="M-150.5-342c-0.3,0-0.5-0.2-0.5-0.5v-7c0-0.3,0.2-0.5,0.5-0.5c0.3,0,0.5,0.2,0.5,0.5v7C-150-342.2-150.2-342-150.5-342z"/>
	<path d="M-152.5-342c-0.3,0-0.5-0.2-0.5-0.5v-7c0-0.3,0.2-0.5,0.5-0.5c0.3,0,0.5,0.2,0.5,0.5v7C-152-342.2-152.2-342-152.5-342z"/>
	<path d="M-154.5-342.2L-154.5-342.2c-0.3,0-0.5-0.2-0.5-0.5l0-7c0-0.3,0.2-0.5,0.5-0.5l0,0c0.3,0,0.5,0.2,0.5,0.5l0,7
		C-154-342.4-154.2-342.2-154.5-342.2z"/>
	<path d="M-156.5-342.6L-156.5-342.6c-0.3,0-0.5-0.2-0.5-0.5v-7c0-0.3,0.2-0.5,0.5-0.5l0,0c0.3,0,0.5,0.2,0.5,0.5v7
		C-156-342.8-156.2-342.6-156.5-342.6z"/>
</g>
</svg>
