<?xml version="1.0" encoding="utf-8"?>
<!-- Generator: Adobe Illustrator 21.1.0, SVG Export Plug-In . SVG Version: 6.00 Build 0)  -->
<svg version="1.1" id="Layer_1" xmlns="http://www.w3.org/2000/svg" xmlns:xlink="http://www.w3.org/1999/xlink" x="0px" y="0px"
	 viewBox="0 0 20 20" style="enable-background:new 0 0 20 20;" xml:space="preserve">
<g transform="translate(200 360)">
	<path d="M-180.5-359.5L-180.5-359.5c-0.4-0.4-0.7-0.5-1.1-0.5c-0.4,0-0.8,0.2-1.1,0.4l-5.3,5.3l-0.1-0.1c-0.2-0.2-0.5-0.2-0.7,0
		l-1.1,1.1c-0.5-0.5-1.2-0.8-1.9-0.8c-0.6,0-1.2,0.2-1.7,0.6c0,0-3.1,2.5-6,3.4c-0.2,0.1-0.3,0.3-0.3,0.5c0,2.5,1,4.9,2.8,6.7
		c1.8,1.8,4.2,2.8,6.7,2.8c0.2,0,0.4-0.1,0.5-0.3c1-2.9,3.4-6,3.4-6c0.8-1.1,0.7-2.7-0.2-3.6l1.1-1.1c0.2-0.2,0.2-0.5,0-0.7
		l-0.1-0.1l5.3-5.3C-179.9-357.9-179.9-358.9-180.5-359.5L-180.5-359.5z M-191.9-353c0.5,0,0.9,0.2,1.2,0.5l0.3,0.3l0,0l2.8,2.8
		c0.6,0.6,0.7,1.7,0.1,2.3c0,0-0.1,0.1-0.2,0.2l-5.7-5.7c0.1-0.1,0.2-0.2,0.2-0.2C-192.7-352.9-192.3-353-191.9-353L-191.9-353z
		 M-190.9-341c-0.7,0-1.5-0.2-2.1-0.4c1-1.9,2.8-3.8,2.9-3.8c0.2-0.2,0.2-0.5,0-0.7c-0.2-0.2-0.5-0.2-0.7,0
		c-0.1,0.1-2.1,2.1-3.1,4.1c-0.8-0.4-1.5-0.8-2.2-1.4l3-3c0.2-0.2,0.2-0.5,0-0.7c-0.2-0.2-0.5-0.2-0.7,0l-3,3
		c-0.6-0.7-1.1-1.4-1.4-2.2c2-1,4-3,4.1-3.1c0.2-0.2,0.2-0.5,0-0.7c-0.2-0.2-0.5-0.2-0.7,0c0,0-1.9,1.9-3.8,2.9
		c-0.2-0.7-0.3-1.4-0.4-2.1c1.9-0.7,3.8-1.9,4.9-2.7l5.9,5.9C-188.9-344.8-190.2-342.9-190.9-341L-190.9-341z M-187.5-350.7
		l-1.8-1.8l0.8-0.8l1.8,1.8L-187.5-350.7z M-181.2-358.1l-5.3,5.3l-0.8-0.8l5.3-5.3c0.1-0.1,0.2-0.1,0.4-0.1c0.1,0,0.3,0.1,0.4,0.1
		l0.1,0.1C-181-358.6-181-358.3-181.2-358.1L-181.2-358.1z"/>
</g>
</svg>
