<?xml version="1.0" encoding="utf-8"?>
<!-- Generator: Adobe Illustrator 21.1.0, SVG Export Plug-In . SVG Version: 6.00 Build 0)  -->
<svg version="1.1" id="Layer_1" xmlns="http://www.w3.org/2000/svg" xmlns:xlink="http://www.w3.org/1999/xlink" x="0px" y="0px"
	 viewBox="0 0 19 17" style="enable-background:new 0 0 19 17;" xml:space="preserve">
<g transform="translate(480 1320)">
	<path d="M-479.5-1303c-0.2,0-0.4-0.2-0.5-0.4c-0.1-0.2,0-0.4,0.2-0.6c1.7-1,2.4-2.5,2.6-3.2c-1.8-1.4-2.9-3.4-2.9-5.4
		c0-1,0.3-2,0.8-3c0.5-0.9,1.2-1.7,2.1-2.4c1.8-1.4,4.2-2.2,6.7-2.2c2.5,0,4.9,0.8,6.7,2.2c0.9,0.7,1.6,1.5,2.1,2.4
		c0.5,0.9,0.8,1.9,0.8,3s-0.3,2-0.8,3c-0.5,0.9-1.2,1.7-2.1,2.4c-1.8,1.4-4.2,2.2-6.7,2.2c-1,0-2-0.1-3-0.4
		c-0.4,0.3-1.2,0.8-2.2,1.3C-477.2-1303.4-478.5-1303-479.5-1303L-479.5-1303z M-470.5-1319c-4.7,0-8.5,2.9-8.5,6.5
		c0,1.8,1,3.6,2.8,4.8c0.2,0.1,0.2,0.3,0.2,0.5c-0.1,0.4-0.5,1.6-1.6,2.8c1.3-0.5,2.7-1.2,3.7-2c0.1-0.1,0.3-0.1,0.4-0.1
		c0.9,0.3,1.9,0.4,3,0.4c4.7,0,8.5-2.9,8.5-6.5S-465.8-1319-470.5-1319z"/>
	<path d="M-470.5-1310c-0.3,0-0.5-0.2-0.5-0.5v-2c0-0.3,0.2-0.5,0.5-0.5c0.8,0,1.5-0.7,1.5-1.5s-0.7-1.5-1.5-1.5
		c-0.8,0-1.5,0.7-1.5,1.5c0,0.3-0.2,0.5-0.5,0.5c-0.3,0-0.5-0.2-0.5-0.5c0-1.4,1.1-2.5,2.5-2.5c1.4,0,2.5,1.1,2.5,2.5
		c0,1.2-0.9,2.2-2,2.5v1.5C-470-1310.2-470.2-1310-470.5-1310z"/>
	<path d="M-470.5-1308c-0.1,0-0.3-0.1-0.4-0.1c-0.1-0.1-0.1-0.2-0.1-0.4c0-0.1,0.1-0.3,0.1-0.4c0.1-0.1,0.2-0.1,0.4-0.1
		c0.1,0,0.3,0.1,0.4,0.1c0.1,0.1,0.1,0.2,0.1,0.4s-0.1,0.3-0.1,0.4C-470.2-1308.1-470.4-1308-470.5-1308z"/>
</g>
</svg>
