<?xml version="1.0" encoding="utf-8"?>
<!-- Generator: Adobe Illustrator 21.1.0, SVG Export Plug-In . SVG Version: 6.00 Build 0)  -->
<svg version="1.1" id="Layer_1" xmlns="http://www.w3.org/2000/svg" xmlns:xlink="http://www.w3.org/1999/xlink" x="0px" y="0px"
	 viewBox="0 0 19 17" style="enable-background:new 0 0 19 17;" xml:space="preserve">
<g transform="translate(520 1320)">
	<path d="M-519.5-1303c-0.2,0-0.4-0.2-0.5-0.4c-0.1-0.2,0-0.4,0.2-0.6c1.7-1,2.4-2.5,2.6-3.2c-1.8-1.4-2.9-3.4-2.9-5.4
		c0-1,0.3-2,0.8-3c0.5-0.9,1.2-1.7,2.1-2.4c1.8-1.4,4.2-2.2,6.7-2.2c2.5,0,4.9,0.8,6.7,2.2c0.9,0.7,1.6,1.5,2.1,2.4
		c0.5,0.9,0.8,1.9,0.8,3s-0.3,2-0.8,3c-0.5,0.9-1.2,1.7-2.1,2.4c-1.8,1.4-4.2,2.2-6.7,2.2c-1,0-2-0.1-3-0.4
		c-0.4,0.3-1.2,0.8-2.2,1.3C-517.2-1303.4-518.5-1303-519.5-1303L-519.5-1303z M-510.5-1319c-4.7,0-8.5,2.9-8.5,6.5
		c0,1.8,1,3.6,2.8,4.8c0.2,0.1,0.2,0.3,0.2,0.5c-0.1,0.4-0.5,1.6-1.6,2.8c1.3-0.5,2.7-1.2,3.7-2c0.1-0.1,0.3-0.1,0.4-0.1
		c0.9,0.3,1.9,0.4,3,0.4c4.7,0,8.5-2.9,8.5-6.5S-505.8-1319-510.5-1319z"/>
	<path d="M-506.5-1315h-8c-0.3,0-0.5-0.2-0.5-0.5s0.2-0.5,0.5-0.5h8c0.3,0,0.5,0.2,0.5,0.5S-506.2-1315-506.5-1315z"/>
	<path d="M-506.5-1313h-8c-0.3,0-0.5-0.2-0.5-0.5s0.2-0.5,0.5-0.5h8c0.3,0,0.5,0.2,0.5,0.5S-506.2-1313-506.5-1313z"/>
	<path d="M-506.5-1311h-8c-0.3,0-0.5-0.2-0.5-0.5s0.2-0.5,0.5-0.5h8c0.3,0,0.5,0.2,0.5,0.5S-506.2-1311-506.5-1311z"/>
	<path d="M-508.5-1309h-6c-0.3,0-0.5-0.2-0.5-0.5s0.2-0.5,0.5-0.5h6c0.3,0,0.5,0.2,0.5,0.5S-508.2-1309-508.5-1309z"/>
</g>
</svg>
