<?xml version="1.0" encoding="utf-8"?>
<!-- Generator: Adobe Illustrator 21.1.0, SVG Export Plug-In . SVG Version: 6.00 Build 0)  -->
<svg version="1.1" id="Layer_1" xmlns="http://www.w3.org/2000/svg" xmlns:xlink="http://www.w3.org/1999/xlink" x="0px" y="0px"
	 viewBox="0 0 19 20" style="enable-background:new 0 0 19 20;" xml:space="preserve">
<g transform="translate(480 0)">
	<path d="M-461.5,19h-0.5V5.5c0-0.8-0.6-1.5-1.3-1.8l-4.7-1.6V0.5c0-0.2-0.1-0.3-0.2-0.4c-0.1-0.1-0.3-0.1-0.4-0.1l-9,2.7
		c-0.7,0.2-1.3,1-1.3,1.8V19h-0.5c-0.3,0-0.5,0.2-0.5,0.5s0.2,0.5,0.5,0.5h18c0.3,0,0.5-0.2,0.5-0.5S-461.2,19-461.5,19z M-475,17
		h-1v-1h1V17z M-475,15h-1v-1h1V15z M-475,13h-1v-1h1V13z M-475,11h-1v-1h1V11z M-475,9h-1V8h1V9z M-475,7h-1V6h1V7z M-473,17h-1v-1
		h1V17z M-473,15h-1v-1h1V15z M-473,13h-1v-1h1V13z M-473,11h-1v-1h1V11z M-473,9h-1V8h1V9z M-473,7h-1V6h1V7z M-471,17h-1v-1h1V17z
		 M-471,15h-1v-1h1V15z M-471,13h-1v-1h1V13z M-471,11h-1v-1h1V11z M-471,9h-1V8h1V9z M-471,7h-1V6h1V7z M-466,13v-1h1v1H-466z
		 M-465,14v1h-1v-1H-465z M-466,11v-1h1v1H-466z M-466,9V8h1v1H-466z M-466,7V6h1v1H-466z M-466,16h1v1h-1V16z"/>
</g>
</svg>
