<?xml version="1.0" encoding="utf-8"?>
<!-- Generator: Adobe Illustrator 21.1.0, SVG Export Plug-In . SVG Version: 6.00 Build 0)  -->
<svg version="1.1" id="Layer_1" xmlns="http://www.w3.org/2000/svg" xmlns:xlink="http://www.w3.org/1999/xlink" x="0px" y="0px"
	 viewBox="0 0 19 20" style="enable-background:new 0 0 19 20;" xml:space="preserve">
<g transform="translate(480 0)">
	<path d="M-466,6h1v1h-1V6z"/>
	<path d="M-466,8h1v1h-1V8z"/>
	<path d="M-466,10h1v1h-1V10z"/>
	<path d="M-466,12h1v1h-1V12z"/>
	<path d="M-466,16h1v1h-1V16z"/>
	<path d="M-466,14h1v1h-1V14z"/>
	<path d="M-474,6h1v1h-1V6z"/>
	<path d="M-474,8h1v1h-1V8z"/>
	<path d="M-474,10h1v1h-1V10z"/>
	<path d="M-474,12h1v1h-1V12z"/>
	<path d="M-474,16h1v1h-1V16z"/>
	<path d="M-474,14h1v1h-1V14z"/>
	<path d="M-476,6h1v1h-1V6z"/>
	<path d="M-476,8h1v1h-1V8z"/>
	<path d="M-476,10h1v1h-1V10z"/>
	<path d="M-476,12h1v1h-1V12z"/>
	<path d="M-476,16h1v1h-1V16z"/>
	<path d="M-476,14h1v1h-1V14z"/>
	<path d="M-472,6h1v1h-1V6z"/>
	<path d="M-472,8h1v1h-1V8z"/>
	<path d="M-472,10h1v1h-1V10z"/>
	<path d="M-472,12h1v1h-1V12z"/>
	<path d="M-472,16h1v1h-1V16z"/>
	<path d="M-472,14h1v1h-1V14z"/>
	<path d="M-461.5,19h-0.5V5.5c0-0.8-0.6-1.5-1.3-1.8l-4.7-1.6V0.5c0-0.2-0.1-0.3-0.2-0.4c-0.1-0.1-0.3-0.1-0.4-0.1l-9,2.7
		c-0.7,0.2-1.3,1-1.3,1.8V19h-0.5c-0.3,0-0.5,0.2-0.5,0.5s0.2,0.5,0.5,0.5h18c0.3,0,0.5-0.2,0.5-0.5S-461.2,19-461.5,19L-461.5,19z
		 M-463.6,4.7c0.3,0.1,0.6,0.5,0.6,0.8V19h-5V3.2L-463.6,4.7z M-478,4.5c0-0.3,0.3-0.7,0.6-0.8l8.4-2.5V19h-9V4.5z"/>
</g>
</svg>
