<?xml version="1.0" encoding="utf-8"?>
<!-- Generator: Adobe Illustrator 21.1.0, SVG Export Plug-In . SVG Version: 6.00 Build 0)  -->
<svg version="1.1" id="Layer_1" xmlns="http://www.w3.org/2000/svg" xmlns:xlink="http://www.w3.org/1999/xlink" x="0px" y="0px"
	 viewBox="0 0 20 18" style="enable-background:new 0 0 20 18;" xml:space="preserve">
<g transform="translate(40 1120)">
	<path d="M-21.5-1119H-24v-0.5c0-0.3-0.2-0.5-0.5-0.5c-0.3,0-0.5,0.2-0.5,0.5v0.5h-10v-0.5c0-0.3-0.2-0.5-0.5-0.5
		c-0.3,0-0.5,0.2-0.5,0.5v0.5h-2.5c-0.8,0-1.5,0.7-1.5,1.5v14c0,0.8,0.7,1.5,1.5,1.5h17c0.8,0,1.5-0.7,1.5-1.5v-14
		C-20-1118.3-20.7-1119-21.5-1119z M-38.5-1118h2.5v1.5c0,0.3,0.2,0.5,0.5,0.5c0.3,0,0.5-0.2,0.5-0.5v-1.5h10v1.5
		c0,0.3,0.2,0.5,0.5,0.5c0.3,0,0.5-0.2,0.5-0.5v-1.5h2.5c0.3,0,0.5,0.2,0.5,0.5v2.5h-18v-2.5C-39-1117.8-38.8-1118-38.5-1118z
		 M-21.5-1103h-17c-0.3,0-0.5-0.2-0.5-0.5v-10.5h18v10.5C-21-1103.2-21.2-1103-21.5-1103z"/>
	<path d="M-32.5-1111h-1c-0.3,0-0.5-0.2-0.5-0.5s0.2-0.5,0.5-0.5h1c0.3,0,0.5,0.2,0.5,0.5S-32.2-1111-32.5-1111z"/>
	<path d="M-29.5-1111h-1c-0.3,0-0.5-0.2-0.5-0.5s0.2-0.5,0.5-0.5h1c0.3,0,0.5,0.2,0.5,0.5S-29.2-1111-29.5-1111z"/>
	<path d="M-26.5-1111h-1c-0.3,0-0.5-0.2-0.5-0.5s0.2-0.5,0.5-0.5h1c0.3,0,0.5,0.2,0.5,0.5S-26.2-1111-26.5-1111z"/>
	<path d="M-23.5-1111h-1c-0.3,0-0.5-0.2-0.5-0.5s0.2-0.5,0.5-0.5h1c0.3,0,0.5,0.2,0.5,0.5S-23.2-1111-23.5-1111z"/>
	<path d="M-35.5-1109h-1c-0.3,0-0.5-0.2-0.5-0.5s0.2-0.5,0.5-0.5h1c0.3,0,0.5,0.2,0.5,0.5S-35.2-1109-35.5-1109z"/>
	<path d="M-32.5-1109h-1c-0.3,0-0.5-0.2-0.5-0.5s0.2-0.5,0.5-0.5h1c0.3,0,0.5,0.2,0.5,0.5S-32.2-1109-32.5-1109z"/>
	<path d="M-29.5-1109h-1c-0.3,0-0.5-0.2-0.5-0.5s0.2-0.5,0.5-0.5h1c0.3,0,0.5,0.2,0.5,0.5S-29.2-1109-29.5-1109z"/>
	<path d="M-26.5-1109h-1c-0.3,0-0.5-0.2-0.5-0.5s0.2-0.5,0.5-0.5h1c0.3,0,0.5,0.2,0.5,0.5S-26.2-1109-26.5-1109z"/>
	<path d="M-23.5-1109h-1c-0.3,0-0.5-0.2-0.5-0.5s0.2-0.5,0.5-0.5h1c0.3,0,0.5,0.2,0.5,0.5S-23.2-1109-23.5-1109z"/>
	<path d="M-35.5-1107h-1c-0.3,0-0.5-0.2-0.5-0.5s0.2-0.5,0.5-0.5h1c0.3,0,0.5,0.2,0.5,0.5S-35.2-1107-35.5-1107z"/>
	<path d="M-32.5-1107h-1c-0.3,0-0.5-0.2-0.5-0.5s0.2-0.5,0.5-0.5h1c0.3,0,0.5,0.2,0.5,0.5S-32.2-1107-32.5-1107z"/>
	<path d="M-29.5-1107h-1c-0.3,0-0.5-0.2-0.5-0.5s0.2-0.5,0.5-0.5h1c0.3,0,0.5,0.2,0.5,0.5S-29.2-1107-29.5-1107z"/>
	<path d="M-26.5-1107h-1c-0.3,0-0.5-0.2-0.5-0.5s0.2-0.5,0.5-0.5h1c0.3,0,0.5,0.2,0.5,0.5S-26.2-1107-26.5-1107z"/>
	<path d="M-23.5-1107h-1c-0.3,0-0.5-0.2-0.5-0.5s0.2-0.5,0.5-0.5h1c0.3,0,0.5,0.2,0.5,0.5S-23.2-1107-23.5-1107z"/>
	<path d="M-35.5-1105h-1c-0.3,0-0.5-0.2-0.5-0.5s0.2-0.5,0.5-0.5h1c0.3,0,0.5,0.2,0.5,0.5S-35.2-1105-35.5-1105z"/>
	<path d="M-32.5-1105h-1c-0.3,0-0.5-0.2-0.5-0.5s0.2-0.5,0.5-0.5h1c0.3,0,0.5,0.2,0.5,0.5S-32.2-1105-32.5-1105z"/>
	<path d="M-29.5-1105h-1c-0.3,0-0.5-0.2-0.5-0.5s0.2-0.5,0.5-0.5h1c0.3,0,0.5,0.2,0.5,0.5S-29.2-1105-29.5-1105z"/>
	<path d="M-26.5-1105h-1c-0.3,0-0.5-0.2-0.5-0.5s0.2-0.5,0.5-0.5h1c0.3,0,0.5,0.2,0.5,0.5S-26.2-1105-26.5-1105z"/>
	<path d="M-23.5-1105h-1c-0.3,0-0.5-0.2-0.5-0.5s0.2-0.5,0.5-0.5h1c0.3,0,0.5,0.2,0.5,0.5S-23.2-1105-23.5-1105z"/>
</g>
</svg>
