<?xml version="1.0" encoding="utf-8"?>
<!-- Generator: Adobe Illustrator 21.1.0, SVG Export Plug-In . SVG Version: 6.00 Build 0)  -->
<svg version="1.1" id="Layer_1" xmlns="http://www.w3.org/2000/svg" xmlns:xlink="http://www.w3.org/1999/xlink" x="0px" y="0px"
	 viewBox="0 0 18 19" style="enable-background:new 0 0 18 19;" xml:space="preserve">
<g transform="translate(160 1680)">
	<path d="M-154.5-1665c-0.8,0-1.5-0.7-1.5-1.5s0.7-1.5,1.5-1.5c0.8,0,1.5,0.7,1.5,1.5S-153.7-1665-154.5-1665z M-154.5-1667
		c-0.3,0-0.5,0.2-0.5,0.5c0,0.3,0.2,0.5,0.5,0.5c0.3,0,0.5-0.2,0.5-0.5C-154-1666.8-154.2-1667-154.5-1667z"/>
	<path d="M-145.5-1665c-0.8,0-1.5-0.7-1.5-1.5s0.7-1.5,1.5-1.5c0.8,0,1.5,0.7,1.5,1.5S-144.7-1665-145.5-1665z M-145.5-1667
		c-0.3,0-0.5,0.2-0.5,0.5c0,0.3,0.2,0.5,0.5,0.5c0.3,0,0.5-0.2,0.5-0.5C-145-1666.8-145.2-1667-145.5-1667z"/>
	<path d="M-142.6-1668.7c-0.1-0.1-0.3-0.2-0.4-0.3c-0.1-0.8-0.6-3.2-1-4.1c-0.5-1-2.1-1.4-3.4-1.6c-0.3,0-0.5,0.1-0.6,0.4
		c0,0.3,0.1,0.5,0.4,0.6c1.7,0.3,2.5,0.7,2.6,1.1c0.3,0.6,0.6,2.1,0.8,3.2c0,0-0.1,0-0.1,0c-1.3-0.3-3-0.4-5.2-0.4l0,0
		c-0.3,0-0.5,0.2-0.5,0.5c0,0.3,0.2,0.5,0.5,0.5c2.1,0,3.8,0,5,0.3c1.1,0.3,1.5,0.8,1.5,1.7v2.5c0,0.3-0.2,0.5-0.5,0.5h-13
		c-0.3,0-0.5-0.2-0.5-0.5v-2.5c0-0.3,0.1-0.6,0.2-0.8c0.1-0.2,0-0.5-0.2-0.7c-0.2-0.1-0.5,0-0.7,0.2c-0.2,0.4-0.3,0.8-0.3,1.2v2.5
		c0,0.7,0.4,1.2,1,1.4v1.1c0,0.6,0.4,1,1,1h1c0.6,0,1-0.4,1-1v-1h8v1c0,0.6,0.4,1,1,1h1c0.6,0,1-0.4,1-1v-1.1c0.6-0.2,1-0.8,1-1.4
		v-2.5C-142-1667.7-142.2-1668.3-142.6-1668.7z M-155-1662h-1v-1h1V-1662z M-145-1662v-1h1v1H-145z"/>
	<path d="M-155.5-1671c-0.3,0-0.5-0.2-0.5-0.5v-5c0-0.3,0.2-0.5,0.5-0.5h1.5c1.1,0,2,0.9,2,2s-0.9,2-2,2h-1v1.5
		C-155-1671.2-155.2-1671-155.5-1671z M-155-1674h1c0.6,0,1-0.4,1-1s-0.4-1-1-1h-1V-1674z"/>
	<path d="M-154.5-1669c-3,0-5.5-2.5-5.5-5.5s2.5-5.5,5.5-5.5c3,0,5.5,2.5,5.5,5.5S-151.5-1669-154.5-1669z M-154.5-1679
		c-2.5,0-4.5,2-4.5,4.5c0,2.5,2,4.5,4.5,4.5c2.5,0,4.5-2,4.5-4.5C-150-1677-152-1679-154.5-1679z"/>
</g>
</svg>
