<?xml version="1.0" encoding="utf-8"?>
<!-- Generator: Adobe Illustrator 21.1.0, SVG Export Plug-In . SVG Version: 6.00 Build 0)  -->
<svg version="1.1" id="Layer_1" xmlns="http://www.w3.org/2000/svg" xmlns:xlink="http://www.w3.org/1999/xlink" x="0px" y="0px"
	 viewBox="0 0 19.5 17.1" style="enable-background:new 0 0 19.5 17.1;" xml:space="preserve">
<g transform="translate(40 720)">
	<path d="M-27.5-716.4c0,0.3-0.2,0.5-0.5,0.5c-0.3,0-0.5-0.2-0.5-0.5c0-0.3,0.2-0.5,0.5-0.5C-27.7-716.9-27.5-716.7-27.5-716.4z"/>
	<path d="M-21-707.9c-0.3,0-0.5,0.2-0.5,0.5v1.5H-25c-0.8,0-1.5-0.7-1.5-1.5v-2.3l2.6-2.6c0.6-0.6,0.6-1.5,0-2.1l-0.4-0.4
		c0.5-0.6,0.5-1.5-0.1-2.1l-2.6-2.6c-0.3-0.3-0.7-0.4-1.1-0.4c-0.4,0-0.8,0.2-1.1,0.4l-10.8,10.8c-0.1,0.1-0.2,0.4-0.1,0.5
		c0.1,0.2,0.3,0.3,0.5,0.3h2.8l-0.6,0.6c-0.2,0.2-0.2,0.5,0,0.7l2,2c0.1,0.1,0.2,0.1,0.4,0.1c0.1,0,0.3,0,0.4-0.1l0.6-0.6l0.4,0.4
		c0.3,0.3,0.7,0.4,1.1,0.4s0.8-0.1,1.1-0.4l3.9-3.9v1.3c0,1.4,1.1,2.5,2.5,2.5h3.5v1.5c0,0.3,0.2,0.5,0.5,0.5c0.3,0,0.5-0.2,0.5-0.5
		v-4C-20.5-707.7-20.7-707.9-21-707.9L-21-707.9z M-28.4-718.9c0.1-0.1,0.2-0.1,0.4-0.1c0.1,0,0.3,0.1,0.4,0.1l2.6,2.6
		c0.2,0.2,0.2,0.5,0,0.7l-6.6,6.6h-6.6L-28.4-718.9L-28.4-718.9z M-35-705.6l-1.3-1.3l0.3-0.3l1.3,1.3L-35-705.6z M-32.1-705.5
		c-0.2,0.2-0.5,0.2-0.7,0l-2.4-2.4h3.8c0.1,0,0.3-0.1,0.4-0.1l6.1-6.1l0.4,0.4c0.2,0.2,0.2,0.5,0,0.7L-32.1-705.5L-32.1-705.5z"/>
</g>
</svg>
