<?xml version="1.0" encoding="utf-8"?>
<!-- Generator: Adobe Illustrator 21.1.0, SVG Export Plug-In . SVG Version: 6.00 Build 0)  -->
<svg version="1.1" id="Layer_1" xmlns="http://www.w3.org/2000/svg" xmlns:xlink="http://www.w3.org/1999/xlink" x="0px" y="0px"
	 viewBox="0 0 19 19" style="enable-background:new 0 0 19 19;" xml:space="preserve">
<g transform="translate(40 2440)">
	<path d="M-23.8-2437.2c-1.8-1.8-4.2-2.8-6.7-2.8c-2.5,0-4.9,1-6.7,2.8c-1.8,1.8-2.8,4.2-2.8,6.7s1,4.9,2.8,6.7
		c1.8,1.8,4.2,2.8,6.7,2.8c2.5,0,4.9-1,6.7-2.8c1.8-1.8,2.8-4.2,2.8-6.7S-22-2435.4-23.8-2437.2z M-30.5-2422
		c-4.7,0-8.5-3.8-8.5-8.5s3.8-8.5,8.5-8.5c4.7,0,8.5,3.8,8.5,8.5S-25.8-2422-30.5-2422z"/>
	<path d="M-30.5-2426c-0.3,0-0.5-0.2-0.5-0.5v-2c0-0.3,0.2-0.5,0.5-0.5c1.9,0,3.5-1.6,3.5-3.5s-1.6-3.5-3.5-3.5
		c-1.9,0-3.5,1.6-3.5,3.5c0,0.3-0.2,0.5-0.5,0.5c-0.3,0-0.5-0.2-0.5-0.5c0-2.5,2-4.5,4.5-4.5c2.5,0,4.5,2,4.5,4.5
		c0,2.3-1.8,4.2-4,4.5v1.5C-30-2426.2-30.2-2426-30.5-2426z"/>
	<path d="M-30.5-2423L-30.5-2423c-0.3,0-0.5-0.2-0.5-0.5v-1c0-0.3,0.2-0.5,0.5-0.5l0,0c0.3,0,0.5,0.2,0.5,0.5v1
		C-30-2423.2-30.2-2423-30.5-2423z"/>
</g>
</svg>
