<?xml version="1.0" encoding="utf-8"?>
<!-- Generator: Adobe Illustrator 21.1.0, SVG Export Plug-In . SVG Version: 6.00 Build 0)  -->
<svg version="1.1" id="Layer_1" xmlns="http://www.w3.org/2000/svg" xmlns:xlink="http://www.w3.org/1999/xlink" x="0px" y="0px"
	 viewBox="0 0 17 20" style="enable-background:new 0 0 17 20;" xml:space="preserve">
<g transform="translate(440 0)">
	<path d="M-432,10h1v1h-1V10z"/>
	<path d="M-430,10h1v1h-1V10z"/>
	<path d="M-428,10h1v1h-1V10z"/>
	<path d="M-426,10h1v1h-1V10z"/>
	<path d="M-432,13h1v1h-1V13z"/>
	<path d="M-430,13h1v1h-1V13z"/>
	<path d="M-428,13h1v1h-1V13z"/>
	<path d="M-426,13h1v1h-1V13z"/>
	<path d="M-432,16h1v1h-1V16z"/>
	<path d="M-430,16h1v1h-1V16z"/>
	<path d="M-428,16h1v1h-1V16z"/>
	<path d="M-426,16h1v1h-1V16z"/>
	<path d="M-423.5,7h-0.5V4.5c0-0.1-0.1-0.3-0.1-0.4l-1.9-1.9V0.5c0-0.3-0.2-0.5-0.5-0.5c-0.3,0-0.5,0.2-0.5,0.5v1.8l-1.9,1.9
		c-0.1,0.1-0.1,0.2-0.1,0.4V5h-2V2.5c0-0.3-0.2-0.5-0.5-0.5h-8c-0.3,0-0.5,0.2-0.5,0.5v17c0,0.3,0.2,0.5,0.5,0.5h16
		c0.3,0,0.5-0.2,0.5-0.5v-12C-423,7.2-423.2,7-423.5,7z M-428,4.7l1.5-1.5l1.5,1.5V7h-1V5.5c0-0.3-0.2-0.5-0.5-0.5h-1.5V4.7z
		 M-427,6v1h-4V6H-427z M-434,7.5V19h-5V3h7v4h-1.5C-433.8,7-434,7.2-434,7.5z M-424,19h-9V8h9V19z"/>
	<path d="M-434,4h1v2h-1V4z"/>
	<path d="M-436,4h1v2h-1V4z"/>
	<path d="M-438,4h1v2h-1V4z"/>
	<path d="M-438,7h1v2h-1V7z"/>
	<path d="M-436,7h1v2h-1V7z"/>
	<path d="M-438,10h1v2h-1V10z"/>
	<path d="M-436,10h1v2h-1V10z"/>
	<path d="M-438,13h1v2h-1V13z"/>
	<path d="M-436,13h1v2h-1V13z"/>
	<path d="M-438,16h1v2h-1V16z"/>
	<path d="M-436,16h1v2h-1V16z"/>
</g>
</svg>
