<?xml version="1.0" encoding="utf-8"?>
<!-- Generator: Adobe Illustrator 21.1.0, SVG Export Plug-In . SVG Version: 6.00 Build 0)  -->
<svg version="1.1" id="Layer_1" xmlns="http://www.w3.org/2000/svg" xmlns:xlink="http://www.w3.org/1999/xlink" x="0px" y="0px"
	 viewBox="0 0 17 20" style="enable-background:new 0 0 17 20;" xml:space="preserve">
<g transform="translate(240 560)">
	<path d="M-224.5-540h-14c-0.8,0-1.5-0.7-1.5-1.5v-14c0-0.8,0.7-1.5,1.5-1.5h1c0.3,0,0.5,0.2,0.5,0.5c0,0.3-0.2,0.5-0.5,0.5h-1
		c-0.3,0-0.5,0.2-0.5,0.5v14c0,0.3,0.2,0.5,0.5,0.5h14c0.3,0,0.5-0.2,0.5-0.5v-14c0-0.3-0.2-0.5-0.5-0.5h-1c-0.3,0-0.5-0.2-0.5-0.5
		c0-0.3,0.2-0.5,0.5-0.5h1c0.8,0,1.5,0.7,1.5,1.5v14C-223-540.7-223.7-540-224.5-540z"/>
	<path d="M-227.5-555C-227.5-555-227.5-555-227.5-555h-8c-0.3,0-0.5-0.2-0.5-0.5c0-1,0.5-1.8,1.3-2.2c0.3-0.1,0.5-0.2,0.8-0.3
		c0.2-1.2,1.2-2,2.5-2c1.2,0,2.2,0.9,2.5,2c0.2,0,0.5,0.1,0.8,0.3c0.8,0.4,1.3,1.2,1.3,2.2c0,0,0,0,0,0
		C-227-555.2-227.2-555-227.5-555L-227.5-555z M-234.9-556h6.9c-0.1-0.4-0.3-0.6-0.6-0.8c-0.4-0.2-0.8-0.2-0.8-0.2
		c-0.3,0-0.5-0.2-0.5-0.5c0-0.8-0.7-1.5-1.5-1.5c-0.8,0-1.5,0.7-1.5,1.5c0,0.3-0.2,0.5-0.5,0.5c0,0-0.4,0-0.8,0.2
		C-234.6-556.6-234.8-556.4-234.9-556z"/>
	<path d="M-231.5-557c-0.1,0-0.3-0.1-0.4-0.1c-0.1-0.1-0.1-0.2-0.1-0.4c0-0.1,0.1-0.3,0.1-0.4c0.1-0.1,0.2-0.1,0.4-0.1
		c0.1,0,0.3,0.1,0.4,0.1c0.1,0.1,0.1,0.2,0.1,0.4c0,0.1-0.1,0.3-0.1,0.4C-231.2-557.1-231.4-557-231.5-557z"/>
	<path d="M-236-543c-0.1,0-0.3-0.1-0.4-0.1c-0.1-0.1-0.2-0.3-0.1-0.5l0.5-2.5c0-0.1,0.1-0.2,0.1-0.3l6.5-6.5c0.2-0.2,0.5-0.2,0.7,0
		l2,2c0.2,0.2,0.2,0.5,0,0.7l-6.5,6.5c-0.1,0.1-0.2,0.1-0.3,0.1L-236-543C-235.9-543-236-543-236-543L-236-543z M-235-545.8
		l-0.3,1.6l1.6-0.3l6-6l-1.3-1.3L-235-545.8z"/>
</g>
</svg>
