<?xml version="1.0" encoding="utf-8"?>
<!-- Generator: Adobe Illustrator 21.1.0, SVG Export Plug-In . SVG Version: 6.00 Build 0)  -->
<svg version="1.1" id="Layer_1" xmlns="http://www.w3.org/2000/svg" xmlns:xlink="http://www.w3.org/1999/xlink" x="0px" y="0px"
	 viewBox="0 0 17 20" style="enable-background:new 0 0 17 20;" xml:space="preserve">
<g transform="translate(200 560)">
	<path d="M-184.5-540h-14c-0.8,0-1.5-0.7-1.5-1.5v-14c0-0.8,0.7-1.5,1.5-1.5h1c0.3,0,0.5,0.2,0.5,0.5c0,0.3-0.2,0.5-0.5,0.5h-1
		c-0.3,0-0.5,0.2-0.5,0.5v14c0,0.3,0.2,0.5,0.5,0.5h14c0.3,0,0.5-0.2,0.5-0.5v-14c0-0.3-0.2-0.5-0.5-0.5h-1c-0.3,0-0.5-0.2-0.5-0.5
		c0-0.3,0.2-0.5,0.5-0.5h1c0.8,0,1.5,0.7,1.5,1.5v14C-183-540.7-183.7-540-184.5-540z"/>
	<path d="M-187.5-555C-187.5-555-187.5-555-187.5-555h-8c-0.3,0-0.5-0.2-0.5-0.5c0-1,0.5-1.8,1.3-2.2c0.3-0.1,0.5-0.2,0.8-0.3
		c0.2-1.2,1.2-2,2.5-2c1.2,0,2.2,0.9,2.5,2c0.2,0,0.5,0.1,0.8,0.3c0.8,0.4,1.3,1.2,1.3,2.2c0,0,0,0,0,0
		C-187-555.2-187.2-555-187.5-555L-187.5-555z M-194.9-556h6.9c-0.1-0.4-0.3-0.6-0.6-0.8c-0.4-0.2-0.8-0.2-0.8-0.2
		c-0.3,0-0.5-0.2-0.5-0.5c0-0.8-0.7-1.5-1.5-1.5c-0.8,0-1.5,0.7-1.5,1.5c0,0.3-0.2,0.5-0.5,0.5c0,0-0.4,0-0.8,0.2
		C-194.6-556.6-194.8-556.4-194.9-556z"/>
	<path d="M-191.5-557c-0.1,0-0.3-0.1-0.4-0.1c-0.1-0.1-0.1-0.2-0.1-0.4c0-0.1,0.1-0.3,0.1-0.4c0.1-0.1,0.2-0.1,0.4-0.1
		c0.1,0,0.3,0.1,0.4,0.1c0.1,0.1,0.1,0.2,0.1,0.4c0,0.1-0.1,0.3-0.1,0.4C-191.2-557.1-191.4-557-191.5-557z"/>
</g>
</svg>
