<?xml version="1.0" encoding="utf-8"?>
<!-- Generator: Adobe Illustrator 21.1.0, SVG Export Plug-In . SVG Version: 6.00 Build 0)  -->
<svg version="1.1" id="Layer_1" xmlns="http://www.w3.org/2000/svg" xmlns:xlink="http://www.w3.org/1999/xlink" x="0px" y="0px"
	 viewBox="0 0 19 20" style="enable-background:new 0 0 19 20;" xml:space="preserve">
<g transform="translate(240 880)">
	<path d="M-227.5-874c-0.3,0-0.5-0.2-0.5-0.5v-3c0-0.3,0.2-0.5,0.5-0.5s0.5,0.2,0.5,0.5v3C-227-874.2-227.2-874-227.5-874z"/>
	<path d="M-225.5-874c-0.3,0-0.5-0.2-0.5-0.5v-3c0-0.3,0.2-0.5,0.5-0.5s0.5,0.2,0.5,0.5v3C-225-874.2-225.2-874-225.5-874z"/>
	<path d="M-223.5-874c-0.3,0-0.5-0.2-0.5-0.5v-3c0-0.3,0.2-0.5,0.5-0.5s0.5,0.2,0.5,0.5v3C-223-874.2-223.2-874-223.5-874z"/>
	<path d="M-222.5-880h-6c-0.8,0-1.5,0.7-1.5,1.5v5c0,0.4-0.3,0.8-0.6,1l-6.6,3c0,0,0,0,0,0c-0.8,0.4-1.5,1-2,1.8
		c-0.5,0.8-0.8,1.7-0.8,2.7c0,2.8,2.2,5,5,5c0.8,0,1.5-0.2,2.2-0.5l9.7-4.7c1.2-0.6,2.1-2,2.1-3.3v-10
		C-221-879.3-221.7-880-222.5-880L-222.5-880z M-239-865c0-1.1,0.5-2.2,1.3-2.9c2.1,0.4,3.7,2.2,3.7,4.4c0,0.9-0.3,1.8-0.8,2.5
		c-0.1,0-0.2,0-0.2,0C-237.2-861-239-862.8-239-865z M-233.2-861.4C-233.2-861.4-233.2-861.4-233.2-861.4c-0.1,0-0.2,0.1-0.2,0.1
		c0.3-0.7,0.5-1.4,0.5-2.2c0-2.3-1.5-4.4-3.6-5.2l6.4-3c0.7-0.3,1.2-1.1,1.2-1.9v-5c0-0.3,0.2-0.5,0.5-0.5h6c0.3,0,0.5,0.2,0.5,0.5
		v6.5c-2.8,0.3-5,2.6-5,5.5c0,0.7,0.1,1.3,0.3,1.9L-233.2-861.4L-233.2-861.4z M-223.5-866.1l-2.2,1.1c-0.2-0.5-0.3-1-0.3-1.5
		c0-2.3,1.8-4.2,4-4.5v2.5C-222-867.6-222.7-866.5-223.5-866.1L-223.5-866.1z"/>
</g>
</svg>
