<?xml version="1.0" encoding="utf-8"?>
<!-- Generator: Adobe Illustrator 21.1.0, SVG Export Plug-In . SVG Version: 6.00 Build 0)  -->
<svg version="1.1" id="Layer_1" xmlns="http://www.w3.org/2000/svg" xmlns:xlink="http://www.w3.org/1999/xlink" x="0px" y="0px"
	 viewBox="0 0 19.4 19.4" style="enable-background:new 0 0 19.4 19.4;" xml:space="preserve">
<g transform="translate(80 320)">
	<path d="M-72.7-300.6c0,0-0.1,0-0.1,0c-0.9-0.2-1.8-0.6-2.6-1.1c-0.2-0.1-0.3-0.4-0.2-0.7c0.2-0.3,0.2-0.6,0.2-1c0-1.1-0.9-2-2-2
		c-0.3,0-0.7,0.1-1,0.2c-0.2,0.1-0.5,0-0.7-0.2c-0.5-0.8-0.8-1.7-1.1-2.6c-0.1-0.3,0.1-0.5,0.3-0.6c0.8-0.3,1.4-1,1.4-1.9
		c0-0.9-0.5-1.6-1.4-1.9c-0.2-0.1-0.4-0.3-0.3-0.6c0.2-0.9,0.6-1.8,1.1-2.6c0.1-0.2,0.4-0.3,0.7-0.2c0.3,0.2,0.6,0.2,1,0.2
		c1.1,0,2-0.9,2-2c0-0.3-0.1-0.7-0.2-1c-0.1-0.2,0-0.5,0.2-0.7c0.8-0.5,1.7-0.8,2.6-1.1c0.3-0.1,0.5,0.1,0.6,0.3
		c0.3,0.8,1,1.4,1.9,1.4c0.9,0,1.6-0.5,1.9-1.4c0.1-0.2,0.3-0.4,0.6-0.3c0.9,0.2,1.8,0.6,2.6,1.1c0.2,0.1,0.3,0.4,0.2,0.7
		c-0.2,0.3-0.2,0.6-0.2,1c0,1.1,0.9,2,2,2c0.3,0,0.7-0.1,1-0.2c0.2-0.1,0.5,0,0.7,0.2c0.5,0.8,0.8,1.7,1.1,2.6
		c0.1,0.3-0.1,0.5-0.3,0.6c-0.8,0.3-1.4,1-1.4,1.9c0,0.9,0.5,1.6,1.4,1.9c0.2,0.1,0.4,0.3,0.3,0.6c-0.2,0.9-0.6,1.8-1.1,2.6
		c-0.1,0.2-0.4,0.3-0.7,0.2c-0.3-0.2-0.6-0.2-1-0.2c-1.1,0-2,0.9-2,2c0,0.3,0.1,0.7,0.2,1c0.1,0.2,0,0.5-0.2,0.7
		c-0.8,0.5-1.7,0.8-2.6,1.1c-0.3,0.1-0.5-0.1-0.6-0.3c-0.3-0.8-1-1.4-1.9-1.4c-0.9,0-1.6,0.5-1.9,1.4
		C-72.3-300.7-72.5-300.6-72.7-300.6L-72.7-300.6z M-70.3-303.3c1.1,0,2.1,0.6,2.7,1.6c0.5-0.2,1-0.4,1.5-0.6
		c-0.1-0.3-0.2-0.6-0.2-1c0-1.7,1.3-3,3-3c0.3,0,0.7,0.1,1,0.2c0.3-0.5,0.5-1,0.6-1.5c-1-0.5-1.6-1.5-1.6-2.7s0.6-2.1,1.6-2.7
		c-0.2-0.5-0.4-1-0.6-1.5c-0.3,0.1-0.6,0.2-1,0.2c-1.7,0-3-1.3-3-3c0-0.3,0.1-0.7,0.2-1c-0.5-0.3-1-0.5-1.5-0.6
		c-0.5,1-1.5,1.6-2.7,1.6c-1.1,0-2.1-0.6-2.7-1.6c-0.5,0.2-1,0.4-1.5,0.6c0.1,0.3,0.2,0.6,0.2,1c0,1.7-1.3,3-3,3
		c-0.3,0-0.7-0.1-1-0.2c-0.3,0.5-0.5,1-0.6,1.5c1,0.5,1.6,1.5,1.6,2.7s-0.6,2.1-1.6,2.7c0.2,0.5,0.4,1,0.6,1.5
		c0.3-0.1,0.6-0.2,1-0.2c1.7,0,3,1.3,3,3c0,0.3-0.1,0.7-0.2,1c0.5,0.3,1,0.5,1.5,0.6C-72.4-302.7-71.4-303.3-70.3-303.3z"/>
	<path d="M-70.3-307.3c-1.7,0-3-1.3-3-3c0-1.7,1.3-3,3-3c1.7,0,3,1.3,3,3C-67.3-308.6-68.6-307.3-70.3-307.3z M-70.3-312.3
		c-1.1,0-2,0.9-2,2c0,1.1,0.9,2,2,2c1.1,0,2-0.9,2-2C-68.3-311.4-69.2-312.3-70.3-312.3z"/>
</g>
</svg>
