<?xml version="1.0" encoding="utf-8"?>
<!-- Generator: Adobe Illustrator 21.1.0, SVG Export Plug-In . SVG Version: 6.00 Build 0)  -->
<svg version="1.1" id="Layer_1" xmlns="http://www.w3.org/2000/svg" xmlns:xlink="http://www.w3.org/1999/xlink" x="0px" y="0px"
	 viewBox="0 0 19.4 19.4" style="enable-background:new 0 0 19.4 19.4;" xml:space="preserve">
<g transform="translate(80 320)">
	<path d="M-60.9-308.4c-0.8-0.3-1.4-1-1.4-1.9s0.5-1.6,1.4-1.9c0.2-0.1,0.4-0.3,0.3-0.6c-0.2-0.9-0.6-1.8-1.1-2.6
		c-0.1-0.2-0.4-0.3-0.7-0.2c-0.3,0.2-0.6,0.2-1,0.2c-1.1,0-2-0.9-2-2c0-0.3,0.1-0.7,0.2-1c0.1-0.2,0-0.5-0.2-0.7
		c-0.8-0.5-1.7-0.8-2.6-1.1c-0.2-0.1-0.5,0.1-0.6,0.3c-0.3,0.8-1,1.4-1.9,1.4s-1.6-0.5-1.9-1.4c-0.1-0.2-0.3-0.4-0.6-0.3
		c-0.9,0.2-1.8,0.6-2.6,1.1c-0.2,0.1-0.3,0.4-0.2,0.7c0.2,0.3,0.2,0.6,0.2,1c0,1.1-0.9,2-2,2c-0.3,0-0.7-0.1-1-0.2
		c-0.2-0.1-0.5-0.1-0.7,0.2c-0.5,0.8-0.8,1.7-1.1,2.6c-0.1,0.2,0.1,0.5,0.3,0.6c0.8,0.3,1.4,1,1.4,1.9s-0.5,1.6-1.4,1.9
		c-0.2,0.1-0.4,0.3-0.3,0.6c0.2,0.9,0.6,1.8,1.1,2.6c0.1,0.2,0.4,0.3,0.7,0.2c0.3-0.2,0.6-0.2,1-0.2c1.1,0,2,0.9,2,2
		c0,0.3-0.1,0.7-0.2,1c-0.1,0.2,0,0.5,0.2,0.7c0.8,0.5,1.7,0.8,2.6,1.1c0,0,0.1,0,0.1,0c0.2,0,0.4-0.1,0.5-0.3
		c0.3-0.8,1-1.4,1.9-1.4s1.6,0.5,1.9,1.4c0.1,0.2,0.3,0.4,0.6,0.3c0.9-0.2,1.8-0.6,2.6-1.1c0.2-0.1,0.3-0.4,0.2-0.7
		c-0.2-0.3-0.2-0.6-0.2-1c0-1.1,0.9-2,2-2c0.3,0,0.7,0.1,1,0.2c0.2,0.1,0.5,0,0.7-0.2c0.5-0.8,0.8-1.7,1.1-2.6
		C-60.5-308.1-60.7-308.3-60.9-308.4z M-70.3-308.3c-1.1,0-2-0.9-2-2c0-1.1,0.9-2,2-2s2,0.9,2,2C-68.3-309.2-69.2-308.3-70.3-308.3z
		"/>
</g>
</svg>
