<?xml version="1.0" encoding="utf-8"?>
<!-- Generator: Adobe Illustrator 21.1.0, SVG Export Plug-In . SVG Version: 6.00 Build 0)  -->
<svg version="1.1" id="Layer_1" xmlns="http://www.w3.org/2000/svg" xmlns:xlink="http://www.w3.org/1999/xlink" x="0px" y="0px"
	 viewBox="0 0 19 14" style="enable-background:new 0 0 19 14;" xml:space="preserve">
<g transform="translate(240 1000)">
	<path d="M-223.9-998.5c-1.8-1-4.1-1.5-6.6-1.5c-2.5,0-4.8,0.5-6.6,1.5c-1.9,1-2.9,2.4-2.9,4v3c0,1.5,1,2.9,2.9,4
		c1.8,1,4.1,1.5,6.6,1.5c2.5,0,4.8-0.5,6.6-1.5c1.9-1,2.9-2.4,2.9-4v-3C-221-996-222-997.4-223.9-998.5z M-236.6-997.6
		c1.6-0.9,3.8-1.4,6.1-1.4c2.3,0,4.5,0.5,6.1,1.4c1.5,0.9,2.4,2,2.4,3.1c0,1.1-0.8,2.2-2.4,3.1c-1.6,0.9-3.8,1.4-6.1,1.4
		c-2.3,0-4.5-0.5-6.1-1.4c-1.5-0.9-2.4-2-2.4-3.1C-239-995.6-238.2-996.7-236.6-997.6z M-222-991.5c0,1.1-0.8,2.2-2.4,3.1
		c-1.6,0.9-3.8,1.4-6.1,1.4c-2.3,0-4.5-0.5-6.1-1.4c-1.5-0.9-2.4-2-2.4-3.1v-0.5c0.5,0.5,1.1,1,1.9,1.5c1.8,1,4.1,1.5,6.6,1.5
		c2.5,0,4.8-0.5,6.6-1.5c0.8-0.4,1.4-0.9,1.9-1.5V-991.5z"/>
	<path d="M-227.5-993h-5.5v-2h2.5c0.3,0,0.5-0.2,0.5-0.5c0-0.3-0.2-0.5-0.5-0.5h-2.4c0.2-0.6,0.8-1,1.4-1h2.3c0.5,0,1,0.3,1.3,0.8
		c0.1,0.2,0.4,0.3,0.7,0.2c0.2-0.1,0.3-0.4,0.2-0.7c-0.4-0.8-1.3-1.2-2.2-1.2h-2.3c-1.2,0-2.2,0.9-2.5,2h-0.5
		c-0.3,0-0.5,0.2-0.5,0.5c0,0.3,0.2,0.5,0.5,0.5h0.5v2.5c0,0.3,0.2,0.5,0.5,0.5h6c0.3,0,0.5-0.2,0.5-0.5
		C-227-992.8-227.2-993-227.5-993L-227.5-993z"/>
</g>
</svg>
