<?xml version="1.0" encoding="utf-8"?>
<!-- Generator: Adobe Illustrator 21.1.0, SVG Export Plug-In . SVG Version: 6.00 Build 0)  -->
<svg version="1.1" id="Layer_1" xmlns="http://www.w3.org/2000/svg" xmlns:xlink="http://www.w3.org/1999/xlink" x="0px" y="0px"
	 viewBox="0 0 17 19" style="enable-background:new 0 0 17 19;" xml:space="preserve">
<g transform="translate(40 920)">
	<path d="M-27-917.5c0,0.3-0.2,0.5-0.5,0.5c-0.3,0-0.5-0.2-0.5-0.5c0-0.3,0.2-0.5,0.5-0.5C-27.2-918-27-917.8-27-917.5z"/>
	<path d="M-25-917.5c0,0.3-0.2,0.5-0.5,0.5c-0.3,0-0.5-0.2-0.5-0.5c0-0.3,0.2-0.5,0.5-0.5C-25.2-918-25-917.8-25-917.5z"/>
	<path d="M-25.5-920h-12c-1.4,0-2.5,1.1-2.5,2.5v15c0,0.8,0.7,1.5,1.5,1.5h14c0.8,0,1.5-0.7,1.5-1.5v-15
		C-23-918.9-24.1-920-25.5-920z M-37.5-919h12c0.8,0,1.5,0.7,1.5,1.5v1.5h-15v-1.5C-39-918.3-38.3-919-37.5-919z M-24.5-902h-14
		c-0.3,0-0.5-0.2-0.5-0.5V-915h15v12.5C-24-902.2-24.2-902-24.5-902z"/>
	<path d="M-25-903h-13v-11h13V-903z M-37-904h11v-9h-11V-904z"/>
	<path d="M-35.5-917h-2c-0.3,0-0.5-0.2-0.5-0.5c0-0.3,0.2-0.5,0.5-0.5h2c0.3,0,0.5,0.2,0.5,0.5C-35-917.2-35.2-917-35.5-917z"/>
</g>
</svg>
