<?xml version="1.0" encoding="utf-8"?>
<svg version="1.1" id="Layer_1" xmlns="http://www.w3.org/2000/svg" xmlns:xlink="http://www.w3.org/1999/xlink" x="0px" y="0px"
	 viewBox="0 0 64 64" xml:space="preserve">
<path d="M21.5,39h2.6c-0.4,0.8-0.7,1.8-0.7,3.1c0,2.7,0.9,5.9,5.4,5.9c0.7,0,1.3-0.3,1.8-0.7c1.1-1.1,1.4-2.5,1.6-3.6v-0.1
	c0.2-0.8,0.3-1.6,0.7-1.9c0.6-0.6,1.2-1.3,1.9-2.3c0.5-0.7,2.1-2.2,2.8-2.8H46c0.8,0,1.4-0.6,1.4-1.4V21.9c0-0.8-0.6-1.4-1.4-1.4H37
	c0,0,0,0-0.1,0c0,0-1.6-0.4-2.7-0.8c-2-0.7-4.4-1.5-7.2-1.5h-2.3c-2,0-3.5,0.7-4.5,1.9C19.5,21,19,22.3,19,23.7
	c-0.4,0.5-0.7,1.1-0.9,1.8c-0.2,0.7-0.2,1.4-0.1,2.2c-0.5,0.8-0.7,1.8-0.7,2.7c0,0.3,0,0.6,0.1,1.1c-0.5,0.9-0.8,1.9-0.8,2.9
	C16.7,36.8,18.9,39,21.5,39z M38.2,23.4h6.3v10.3h-6.3V23.4z M20.2,32.6c0.3-0.4,0.4-0.9,0.3-1.4c-0.2-0.5-0.2-0.8-0.2-1
	c0-0.5,0.1-1,0.5-1.5c0.3-0.4,0.4-0.8,0.2-1.3c-0.1-0.4-0.1-0.8,0-1.3c0.1-0.4,0.3-0.7,0.6-1c0.3-0.3,0.5-0.7,0.4-1.1
	c-0.1-0.9,0.1-1.6,0.5-2.1c0.5-0.6,1.3-0.8,2.4-0.9h2.3c2.2,0,4.5,0.8,6.3,1.4c0.6,0.2,1.3,0.4,1.8,0.5v11.8
	c-0.8,0.7-2.2,2.1-2.8,2.9c-0.7,0.8-1.2,1.5-1.7,2c-1,1-1.2,2.2-1.5,3.3v0.2c-0.1,0.8-0.3,1.6-0.7,2c-2,0-2.4-1-2.4-3.1
	c0-1,0.3-1.8,0.8-2.7c0-0.1,0.1-0.2,0.1-0.2c0.2-0.3,0.3-0.6,0.5-1.2c0.1-0.4,0-0.9-0.3-1.2s-0.7-0.5-1.1-0.5h-4.9
	c-1,0-1.9-0.9-1.9-1.9C19.6,33.7,19.8,33,20.2,32.6z"/>
</svg>
