<?xml version="1.0" encoding="utf-8"?>
<!-- Generator: Adobe Illustrator 21.1.0, SVG Export Plug-In . SVG Version: 6.00 Build 0)  -->
<svg version="1.1" id="Layer_1" xmlns="http://www.w3.org/2000/svg" xmlns:xlink="http://www.w3.org/1999/xlink" x="0px" y="0px"
	 viewBox="0 0 19 17.7" style="enable-background:new 0 0 19 17.7;" xml:space="preserve">
<g transform="translate(0 600)">
	<path d="M17.5-600h-9c-0.8,0-1.5,0.7-1.5,1.5v3c0,0.3,0.2,0.5,0.5,0.5c0.3,0,0.5-0.2,0.5-0.5v-3c0-0.3,0.2-0.5,0.5-0.5h7.6
		l-3.8,1.6c-0.7,0.3-1.2,1.1-1.2,1.9v9.5H8.5c-0.3,0-0.5-0.2-0.5-0.5v-3c0-0.3-0.2-0.5-0.5-0.5c-0.3,0-0.5,0.2-0.5,0.5v3
		c0,0.8,0.7,1.5,1.5,1.5H11v1.5c0,0.4,0.2,0.8,0.5,1c0.2,0.1,0.4,0.2,0.6,0.2c0.2,0,0.4,0,0.5-0.1l5.2-2.2c0.7-0.3,1.2-1.1,1.2-1.9
		v-12C19-599.3,18.3-600,17.5-600z M18-586.5c0,0.4-0.3,0.8-0.6,0.9l-5.2,2.2c-0.1,0-0.2,0-0.2,0c0,0,0-0.1,0-0.2v-12
		c0-0.4,0.3-0.8,0.6-0.9l5.3-2.3c0,0.1,0.1,0.1,0.1,0.2V-586.5z"/>
	<path d="M8.4-592.9l-3-3c-0.2-0.2-0.5-0.2-0.7,0c-0.2,0.2-0.2,0.5,0,0.7l2.1,2.1H0.5c-0.3,0-0.5,0.2-0.5,0.5c0,0.3,0.2,0.5,0.5,0.5
		h6.3l-2.1,2.1c-0.2,0.2-0.2,0.5,0,0.7C4.7-589,4.9-589,5-589c0.1,0,0.3,0,0.4-0.1l3-3C8.5-592.3,8.5-592.7,8.4-592.9L8.4-592.9z"/>
</g>
</svg>
