<?xml version="1.0" encoding="utf-8"?>
<!-- Generator: Adobe Illustrator 21.1.0, SVG Export Plug-In . SVG Version: 6.00 Build 0)  -->
<svg version="1.1" id="Layer_1" xmlns="http://www.w3.org/2000/svg" xmlns:xlink="http://www.w3.org/1999/xlink" x="0px" y="0px"
	 viewBox="0 0 19 12" style="enable-background:new 0 0 19 12;" xml:space="preserve">
<g transform="translate(400 400)">
	<path d="M-382.5-400h-16c-0.8,0-1.5,0.7-1.5,1.5v9c0,0.8,0.7,1.5,1.5,1.5h16c0.8,0,1.5-0.7,1.5-1.5v-9
		C-381-399.3-381.7-400-382.5-400z M-382.5-399C-382.5-399-382.4-399-382.5-399l-7.4,5c-0.3,0.2-0.8,0.2-1.1,0l-7.5-5
		c0,0,0.1,0,0.1,0H-382.5L-382.5-399z M-382.5-389h-16c-0.3,0-0.5-0.2-0.5-0.5v-8.6l7.4,4.9c0.3,0.2,0.7,0.3,1.1,0.3
		c0.4,0,0.8-0.1,1.1-0.3l7.4-4.9v8.6C-382-389.2-382.2-389-382.5-389z"/>
</g>
</svg>
