<?xml version="1.0" encoding="utf-8"?>
<!-- Generator: Adobe Illustrator 21.1.0, SVG Export Plug-In . SVG Version: 6.00 Build 0)  -->
<svg version="1.1" id="Layer_1" xmlns="http://www.w3.org/2000/svg" xmlns:xlink="http://www.w3.org/1999/xlink" x="0px" y="0px"
	 viewBox="0 0 20 11" style="enable-background:new 0 0 20 11;" xml:space="preserve">
<g transform="translate(440 440)">
	<path d="M-420.1-434.8c0-0.1-1.2-1.3-3-2.6c-1-0.7-2.1-1.3-3.1-1.8c-1.3-0.5-2.6-0.8-3.8-0.8c-1.2,0-2.5,0.3-3.8,0.8
		c-1,0.4-2.1,1-3.1,1.8c-1.8,1.3-2.9,2.5-3,2.6c-0.2,0.2-0.2,0.5,0,0.7c0,0.1,1.2,1.3,3,2.6c1,0.7,2.1,1.3,3.1,1.8
		c1.3,0.5,2.6,0.8,3.8,0.8c1.2,0,2.5-0.3,3.8-0.8c1-0.4,2.1-1,3.1-1.8c1.8-1.3,2.9-2.5,3-2.6C-420-434.4-420-434.6-420.1-434.8z
		 M-427.4-438.6c0.9,0.8,1.4,1.9,1.4,3.1c0,2.2-1.8,4-4,4c-2.2,0-4-1.8-4-4c0-1.2,0.5-2.3,1.4-3.1c0.8-0.3,1.7-0.4,2.6-0.4
		C-429.1-439-428.2-438.8-427.4-438.6z M-423.7-432.4c-1.5,1.1-3.9,2.4-6.3,2.4c-2.4,0-4.8-1.3-6.3-2.4c-1.2-0.8-2-1.7-2.5-2.1
		c0.4-0.4,1.3-1.3,2.5-2.1c0.5-0.4,1.2-0.8,1.9-1.1c-0.3,0.7-0.5,1.5-0.5,2.3c0,2.8,2.2,5,5,5c2.8,0,5-2.2,5-5
		c0-0.8-0.2-1.6-0.5-2.3c0.7,0.4,1.3,0.8,1.9,1.1c1.2,0.8,2,1.7,2.5,2.1C-421.6-434.1-422.5-433.2-423.7-432.4z"/>
</g>
</svg>
