<?xml version="1.0" encoding="utf-8"?>
<!-- Generator: Adobe Illustrator 21.1.0, SVG Export Plug-In . SVG Version: 6.00 Build 0)  -->
<svg version="1.1" id="Layer_1" xmlns="http://www.w3.org/2000/svg" xmlns:xlink="http://www.w3.org/1999/xlink" x="0px" y="0px"
	 viewBox="0 0 19 19" style="enable-background:new 0 0 19 19;" xml:space="preserve">
<g transform="translate(360 1840)">
	<path d="M-350.5-1821c-2.5,0-4.9-1-6.7-2.8s-2.8-4.2-2.8-6.7c0-2.5,1-4.9,2.8-6.7c1.8-1.8,4.2-2.8,6.7-2.8c2.5,0,4.9,1,6.7,2.8
		c1.8,1.8,2.8,4.2,2.8,6.7c0,2.5-1,4.9-2.8,6.7C-345.6-1822-348-1821-350.5-1821z M-350.5-1839c-4.7,0-8.5,3.8-8.5,8.5
		s3.8,8.5,8.5,8.5c4.7,0,8.5-3.8,8.5-8.5S-345.8-1839-350.5-1839z"/>
	<path d="M-353.5-1833c-0.8,0-1.5-0.7-1.5-1.5s0.7-1.5,1.5-1.5c0.8,0,1.5,0.7,1.5,1.5S-352.7-1833-353.5-1833z M-353.5-1835
		c-0.3,0-0.5,0.2-0.5,0.5c0,0.3,0.2,0.5,0.5,0.5c0.3,0,0.5-0.2,0.5-0.5C-353-1834.8-353.2-1835-353.5-1835z"/>
	<path d="M-347.5-1833c-0.8,0-1.5-0.7-1.5-1.5s0.7-1.5,1.5-1.5c0.8,0,1.5,0.7,1.5,1.5S-346.7-1833-347.5-1833z M-347.5-1835
		c-0.3,0-0.5,0.2-0.5,0.5c0,0.3,0.2,0.5,0.5,0.5c0.3,0,0.5-0.2,0.5-0.5C-347-1834.8-347.2-1835-347.5-1835z"/>
	<path d="M-354.5-1826c-0.1,0-0.2,0-0.3-0.1c-0.2-0.2-0.3-0.5-0.1-0.7c0.5-0.7,1.2-1.2,1.9-1.6c0.8-0.4,1.6-0.6,2.5-0.6
		c0.9,0,1.7,0.2,2.5,0.6c0.7,0.4,1.4,0.9,1.9,1.6c0.2,0.2,0.1,0.5-0.1,0.7c-0.2,0.2-0.5,0.1-0.7-0.1c-0.9-1.1-2.2-1.8-3.6-1.8
		c-1.4,0-2.7,0.7-3.6,1.8C-354.2-1826.1-354.3-1826-354.5-1826L-354.5-1826z"/>
</g>
</svg>
