<?xml version="1.0" encoding="utf-8"?>
<!-- Generator: Adobe Illustrator 21.1.0, SVG Export Plug-In . SVG Version: 6.00 Build 0)  -->
<svg version="1.1" id="Layer_1" xmlns="http://www.w3.org/2000/svg" xmlns:xlink="http://www.w3.org/1999/xlink" x="0px" y="0px"
	 viewBox="0 0 19 19" style="enable-background:new 0 0 19 19;" xml:space="preserve">
<g transform="translate(440 1840)">
	<path d="M-430.5-1821c-2.5,0-4.9-1-6.7-2.8s-2.8-4.2-2.8-6.7c0-2.5,1-4.9,2.8-6.7c1.8-1.8,4.2-2.8,6.7-2.8c2.5,0,4.9,1,6.7,2.8
		c1.8,1.8,2.8,4.2,2.8,6.7c0,2.5-1,4.9-2.8,6.7C-425.6-1822-428-1821-430.5-1821z M-430.5-1839c-4.7,0-8.5,3.8-8.5,8.5
		s3.8,8.5,8.5,8.5c4.7,0,8.5-3.8,8.5-8.5S-425.8-1839-430.5-1839z"/>
	<path d="M-430.5-1824c-3.6,0-6.5-2.9-6.5-6.5c0-0.3,0.2-0.5,0.5-0.5c0.3,0,0.5,0.2,0.5,0.5c0,3,2.5,5.5,5.5,5.5s5.5-2.5,5.5-5.5
		c0-0.3,0.2-0.5,0.5-0.5c0.3,0,0.5,0.2,0.5,0.5C-424-1826.9-426.9-1824-430.5-1824z"/>
	<path d="M-432.3-1834.9c-0.2-0.1-0.5,0-0.7,0.2c0,0-0.4,0.7-1.1,0.7c-0.7,0-1-0.7-1.1-0.7l0,0l0,0c-0.1-0.2-0.3-0.3-0.4-0.3
		c-0.3,0-0.5,0.2-0.5,0.5c0,0.1,0,0.2,0.1,0.2l0,0c0,0,0,0,0,0c0,0,0,0,0,0c0.1,0.2,0.7,1.3,1.9,1.3c1.3,0,1.9-1.2,1.9-1.3
		C-431.9-1834.5-432-1834.8-432.3-1834.9L-432.3-1834.9z"/>
	<path d="M-425.3-1834.9c-0.2-0.1-0.5,0-0.7,0.2c0,0-0.4,0.7-1.1,0.7c-0.7,0-1-0.7-1.1-0.7l0,0l0,0c-0.1-0.2-0.3-0.3-0.4-0.3
		c-0.3,0-0.5,0.2-0.5,0.5c0,0.1,0,0.2,0.1,0.2l0,0c0,0,0,0,0,0c0,0,0,0,0,0c0.1,0.2,0.7,1.3,1.9,1.3c1.3,0,1.9-1.2,1.9-1.3
		C-424.9-1834.5-425-1834.8-425.3-1834.9L-425.3-1834.9z"/>
</g>
</svg>
