<?xml version="1.0" encoding="utf-8"?>
<!-- Generator: Adobe Illustrator 21.1.0, SVG Export Plug-In . SVG Version: 6.00 Build 0)  -->
<svg version="1.1" id="Layer_1" xmlns="http://www.w3.org/2000/svg" xmlns:xlink="http://www.w3.org/1999/xlink" x="0px" y="0px"
	 viewBox="0 0 19 19" style="enable-background:new 0 0 19 19;" xml:space="preserve">
<g transform="translate(200 1840)">
	<path d="M-190.5-1821c-2.5,0-4.9-1-6.7-2.8c-1.8-1.8-2.8-4.2-2.8-6.7c0-2.5,1-4.9,2.8-6.7c1.8-1.8,4.2-2.8,6.7-2.8
		c2.5,0,4.9,1,6.7,2.8c1.8,1.8,2.8,4.2,2.8,6.7c0,2.5-1,4.9-2.8,6.7C-185.6-1822-188-1821-190.5-1821z M-190.5-1839
		c-4.7,0-8.5,3.8-8.5,8.5s3.8,8.5,8.5,8.5c4.7,0,8.5-3.8,8.5-8.5S-185.8-1839-190.5-1839z"/>
	<path d="M-193.5-1833c-0.8,0-1.5-0.7-1.5-1.5s0.7-1.5,1.5-1.5c0.8,0,1.5,0.7,1.5,1.5S-192.7-1833-193.5-1833z M-193.5-1835
		c-0.3,0-0.5,0.2-0.5,0.5c0,0.3,0.2,0.5,0.5,0.5c0.3,0,0.5-0.2,0.5-0.5C-193-1834.8-193.2-1835-193.5-1835z"/>
	<path d="M-187.5-1833c-0.8,0-1.5-0.7-1.5-1.5s0.7-1.5,1.5-1.5c0.8,0,1.5,0.7,1.5,1.5S-186.7-1833-187.5-1833z M-187.5-1835
		c-0.3,0-0.5,0.2-0.5,0.5c0,0.3,0.2,0.5,0.5,0.5c0.3,0,0.5-0.2,0.5-0.5C-187-1834.8-187.2-1835-187.5-1835z"/>
	<path d="M-190.5-1824c-3.6,0-6.5-2.9-6.5-6.5c0-0.3,0.2-0.5,0.5-0.5h12c0.3,0,0.5,0.2,0.5,0.5C-184-1826.9-186.9-1824-190.5-1824z
		 M-196-1830c0.3,2.8,2.6,5,5.5,5c2.9,0,5.2-2.2,5.5-5H-196L-196-1830z"/>
</g>
</svg>
