<?xml version="1.0" encoding="utf-8"?>
<!-- Generator: Adobe Illustrator 21.1.0, SVG Export Plug-In . SVG Version: 6.00 Build 0)  -->
<svg version="1.1" id="Layer_1" xmlns="http://www.w3.org/2000/svg" xmlns:xlink="http://www.w3.org/1999/xlink" x="0px" y="0px"
	 viewBox="0 0 19 19" style="enable-background:new 0 0 19 19;" xml:space="preserve">
<g transform="translate(480 1840)">
	<path d="M-470.5-1821c-2.5,0-4.9-1-6.7-2.8s-2.8-4.2-2.8-6.7c0-2.5,1-4.9,2.8-6.7c1.8-1.8,4.2-2.8,6.7-2.8c2.5,0,4.9,1,6.7,2.8
		c1.8,1.8,2.8,4.2,2.8,6.7c0,2.5-1,4.9-2.8,6.7C-465.6-1822-468-1821-470.5-1821z M-470.5-1839c-4.7,0-8.5,3.8-8.5,8.5
		s3.8,8.5,8.5,8.5c4.7,0,8.5-3.8,8.5-8.5S-465.8-1839-470.5-1839z"/>
	<path d="M-467.5-1826h-6c-0.3,0-0.5-0.2-0.5-0.5c0-0.3,0.2-0.5,0.5-0.5h6c0.3,0,0.5,0.2,0.5,0.5C-467-1826.2-467.2-1826-467.5-1826
		z"/>
	<path d="M-467.5-1837c-1.3,0-2.4,0.7-3,1.7c-0.6-1-1.7-1.7-3-1.7c-1.9,0-3.5,1.6-3.5,3.5s1.6,3.5,3.5,3.5c1.3,0,2.4-0.7,3-1.7
		c0.6,1,1.7,1.7,3,1.7c1.9,0,3.5-1.6,3.5-3.5S-465.6-1837-467.5-1837z M-473.5-1831c-1.4,0-2.5-1.1-2.5-2.5c0-1.4,1.1-2.5,2.5-2.5
		c1.4,0,2.5,1.1,2.5,2.5C-471-1832.1-472.1-1831-473.5-1831z M-467.5-1831c-1.4,0-2.5-1.1-2.5-2.5c0-1.4,1.1-2.5,2.5-2.5
		c1.4,0,2.5,1.1,2.5,2.5C-465-1832.1-466.1-1831-467.5-1831z"/>
	<path d="M-473.5-1833c-0.1,0-0.3-0.1-0.4-0.1c-0.1-0.1-0.1-0.2-0.1-0.4s0.1-0.3,0.1-0.4c0.1-0.1,0.2-0.1,0.4-0.1
		c0.1,0,0.3,0.1,0.4,0.1c0.1,0.1,0.1,0.2,0.1,0.4s-0.1,0.3-0.1,0.4C-473.2-1833.1-473.4-1833-473.5-1833z"/>
	<path d="M-467.5-1833c-0.1,0-0.3-0.1-0.4-0.1c-0.1-0.1-0.1-0.2-0.1-0.4s0.1-0.3,0.1-0.4c0.1-0.1,0.2-0.1,0.4-0.1
		c0.1,0,0.3,0.1,0.4,0.1c0.1,0.1,0.1,0.2,0.1,0.4s-0.1,0.3-0.1,0.4C-467.2-1833.1-467.4-1833-467.5-1833z"/>
</g>
</svg>
