<?xml version="1.0" encoding="utf-8"?>
<!-- Generator: Adobe Illustrator 21.1.0, SVG Export Plug-In . SVG Version: 6.00 Build 0)  -->
<svg version="1.1" id="Layer_1" xmlns="http://www.w3.org/2000/svg" xmlns:xlink="http://www.w3.org/1999/xlink" x="0px" y="0px"
	 viewBox="0 0 19 19" style="enable-background:new 0 0 19 19;" xml:space="preserve">
<g transform="translate(480 160)">
	<path d="M-470.5-141c-2.5,0-4.9-1-6.7-2.8c-1.8-1.8-2.8-4.2-2.8-6.7c0-2.5,1-4.9,2.8-6.7c1.8-1.8,4.2-2.8,6.7-2.8
		c2.5,0,4.9,1,6.7,2.8c1.8,1.8,2.8,4.2,2.8,6.7c0,2.5-1,4.9-2.8,6.7C-465.6-142-468-141-470.5-141z M-470.5-159
		c-4.7,0-8.5,3.8-8.5,8.5c0,4.7,3.8,8.5,8.5,8.5c4.7,0,8.5-3.8,8.5-8.5C-462-155.2-465.8-159-470.5-159z"/>
	<path d="M-464.1-151.6c-0.1-0.8-0.4-1.5-0.8-2.2c-0.1-0.2-0.4-0.3-0.7-0.2c-0.2,0.1-0.3,0.4-0.2,0.7c0.2,0.4,0.4,0.8,0.5,1.3
		c-0.1,0-0.2,0-0.3,0h-3c0-0.1-0.1-0.1-0.1-0.2c1.1-0.8,1.6-2,1.6-3.3c0-1.4-1.1-2.5-2.5-2.5c-0.9,0-1.6,0.4-2.1,1.1
		c-0.8,0.1-1.5,0.4-2.2,0.8c-0.2,0.1-0.3,0.4-0.2,0.7c0.1,0.2,0.3,0.2,0.4,0.2c0.1,0,0.2,0,0.2-0.1c0.4-0.2,0.8-0.4,1.3-0.5
		c0,0.1,0,0.2,0,0.3v3c-0.1,0-0.1,0.1-0.2,0.1c-0.8-1.1-2-1.6-3.3-1.6c-1.4,0-2.5,1.1-2.5,2.5c0,0.9,0.4,1.6,1.1,2.1
		c0.1,0.8,0.4,1.5,0.8,2.2c0.1,0.2,0.3,0.2,0.4,0.2c0.1,0,0.2,0,0.2-0.1c0.2-0.1,0.3-0.4,0.2-0.7c-0.2-0.4-0.4-0.8-0.5-1.3
		c0.1,0,0.2,0,0.3,0h3c0,0.1,0.1,0.1,0.1,0.2c-1.1,0.8-1.6,2-1.6,3.3c0,1.4,1.1,2.5,2.5,2.5c0.9,0,1.6-0.4,2.1-1.1
		c0.8-0.1,1.5-0.4,2.2-0.8c0.2-0.1,0.3-0.4,0.2-0.7c-0.1-0.2-0.4-0.3-0.7-0.2c-0.4,0.2-0.8,0.4-1.3,0.5c0-0.1,0-0.2,0-0.3v-3
		c0.1,0,0.1-0.1,0.2-0.1c0.8,1.1,2,1.6,3.3,1.6c1.4,0,2.5-1.1,2.5-2.5C-463-150.4-463.4-151.1-464.1-151.6L-464.1-151.6z
		 M-470.5-149c-0.8,0-1.5-0.7-1.5-1.5c0-0.8,0.7-1.5,1.5-1.5c0.8,0,1.5,0.7,1.5,1.5C-469-149.7-469.7-149-470.5-149z M-471-155.5
		c0-0.8,0.7-1.5,1.5-1.5c0.8,0,1.5,0.7,1.5,1.5c0,1.2-0.5,2.1-1.5,2.7c-0.3-0.1-0.7-0.2-1-0.2c-0.2,0-0.3,0-0.5,0V-155.5z
		 M-475.5-150c-0.8,0-1.5-0.7-1.5-1.5c0-0.8,0.7-1.5,1.5-1.5c1.2,0,2.1,0.5,2.7,1.5c-0.1,0.3-0.2,0.7-0.2,1c0,0.2,0,0.3,0,0.5
		H-475.5z M-470-145.5c0,0.8-0.7,1.5-1.5,1.5c-0.8,0-1.5-0.7-1.5-1.5c0-1.2,0.5-2.1,1.5-2.7c0.3,0.1,0.7,0.2,1,0.2
		c0.2,0,0.3,0,0.5,0V-145.5z M-465.5-148c-1.2,0-2.1-0.5-2.7-1.5c0.1-0.3,0.2-0.7,0.2-1c0-0.2,0-0.3,0-0.5h2.5
		c0.8,0,1.5,0.7,1.5,1.5C-464-148.7-464.7-148-465.5-148z"/>
</g>
</svg>
