<?xml version="1.0" encoding="utf-8"?>
<!-- Generator: Adobe Illustrator 21.1.0, SVG Export Plug-In . SVG Version: 6.00 Build 0)  -->
<svg version="1.1" id="Layer_1" xmlns="http://www.w3.org/2000/svg" xmlns:xlink="http://www.w3.org/1999/xlink" x="0px" y="0px"
	 viewBox="0 0 19 19.5" style="enable-background:new 0 0 19 19.5;" xml:space="preserve">
<g transform="translate(240 1800)">
	<path d="M-237-1794c0,0.3-0.2,0.5-0.5,0.5c-0.3,0-0.5-0.2-0.5-0.5s0.2-0.5,0.5-0.5C-237.2-1794.5-237-1794.3-237-1794z"/>
	<path d="M-230-1794c0,0.3-0.2,0.5-0.5,0.5c-0.3,0-0.5-0.2-0.5-0.5s0.2-0.5,0.5-0.5C-230.2-1794.5-230-1794.3-230-1794z"/>
	<path d="M-223-1794c0,0.3-0.2,0.5-0.5,0.5s-0.5-0.2-0.5-0.5s0.2-0.5,0.5-0.5S-223-1794.3-223-1794z"/>
	<path d="M-221.1-1797.9l-2-2c-0.2-0.2-0.5-0.2-0.7,0l-2,2c-0.1,0.1-0.1,0.2-0.1,0.4v1h-2v-1c0-0.1-0.1-0.3-0.1-0.4l-2-2
		c-0.2-0.2-0.5-0.2-0.7,0l-2,2c-0.1,0.1-0.1,0.2-0.1,0.4v1h-2v-1c0-0.1-0.1-0.3-0.1-0.4l-2-2c-0.2-0.2-0.5-0.2-0.7,0l-2,2
		c-0.1,0.1-0.1,0.2-0.1,0.4v16.5c0,0.3,0.2,0.5,0.5,0.5h4c0.3,0,0.5-0.2,0.5-0.5v-1.5h2v1.5c0,0.3,0.2,0.5,0.5,0.5h4
		c0.3,0,0.5-0.2,0.5-0.5v-1.5h2v1.5c0,0.3,0.2,0.5,0.5,0.5h4c0.3,0,0.5-0.2,0.5-0.5v-16.5C-221-1797.6-221.1-1797.8-221.1-1797.9
		L-221.1-1797.9z M-228-1791.5h2v4h-2V-1791.5z M-226-1795.5v3h-2v-3H-226z M-235-1791.5h2v4h-2V-1791.5z M-233-1795.5v3h-2v-3H-233
		z M-236-1781.5h-3v-15.8l1.5-1.5l1.5,1.5V-1781.5z M-235-1783.5v-3h2v3H-235z M-229-1781.5h-3v-15.8l1.5-1.5l1.5,1.5V-1781.5z
		 M-228-1783.5v-3h2v3H-228z M-222-1781.5h-3v-15.8l1.5-1.5l1.5,1.5V-1781.5z"/>
	<path d="M-237-1785c0,0.3-0.2,0.5-0.5,0.5c-0.3,0-0.5-0.2-0.5-0.5s0.2-0.5,0.5-0.5C-237.2-1785.5-237-1785.3-237-1785z"/>
	<path d="M-230-1785c0,0.3-0.2,0.5-0.5,0.5c-0.3,0-0.5-0.2-0.5-0.5s0.2-0.5,0.5-0.5C-230.2-1785.5-230-1785.3-230-1785z"/>
	<path d="M-223-1785c0,0.3-0.2,0.5-0.5,0.5s-0.5-0.2-0.5-0.5s0.2-0.5,0.5-0.5S-223-1785.3-223-1785z"/>
</g>
</svg>
