<?xml version="1.0" encoding="utf-8"?>
<!-- Generator: Adobe Illustrator 21.1.0, SVG Export Plug-In . SVG Version: 6.00 Build 0)  -->
<svg version="1.1" id="Layer_1" xmlns="http://www.w3.org/2000/svg" xmlns:xlink="http://www.w3.org/1999/xlink" x="0px" y="0px"
	 viewBox="0 0 18 19" style="enable-background:new 0 0 18 19;" xml:space="preserve">
<g transform="translate(520 680)">
	<path d="M-502.5-680h-17c-0.3,0-0.5,0.2-0.5,0.5v18c0,0.3,0.2,0.5,0.5,0.5h17c0.3,0,0.5-0.2,0.5-0.5v-18
		C-502-679.8-502.2-680-502.5-680z M-517-674h-2v-2h2V-674z M-517-673v2h-2v-2H-517z M-517-670v2h-2v-2H-517z M-519-667h2v2h-2V-667
		z M-516-679h10v17h-10V-679z M-505-670h2v2h-2V-670z M-505-671v-2h2v2H-505z M-505-674v-2h2v2H-505z M-505-667h2v2h-2V-667z
		 M-503-677h-2v-2h2V-677z M-517-679v2h-2v-2H-517z M-519-664h2v2h-2V-664z M-505-662v-2h2v2H-505z"/>
</g>
</svg>
