<?xml version="1.0" encoding="utf-8"?>
<!-- Generator: Adobe Illustrator 21.1.0, SVG Export Plug-In . SVG Version: 6.00 Build 0)  -->
<svg version="1.1" id="Layer_1" xmlns="http://www.w3.org/2000/svg" xmlns:xlink="http://www.w3.org/1999/xlink" x="0px" y="0px"
	 viewBox="0 0 15 17" style="enable-background:new 0 0 15 17;" xml:space="preserve">
<g transform="translate(400 2520)">
	<path d="M-385.8-2518.7c-0.4-0.3-0.9-0.5-1.6-0.7c-1.4-0.4-3.2-0.6-5.1-0.6c-1.9,0-3.7,0.2-5.1,0.6c-0.7,0.2-1.2,0.4-1.6,0.7
		c-0.6,0.4-0.8,0.9-0.8,1.2v0.5c0,0.4,0.3,1.1,0.6,1.6l4.9,7.3c0.3,0.4,0.5,1.1,0.5,1.6v3c0,0.2,0.1,0.3,0.2,0.4
		c0.1,0,0.2,0.1,0.3,0.1c0.1,0,0.2,0,0.2-0.1l2-1c0.2-0.1,0.3-0.3,0.3-0.4v-2c0-0.5,0.2-1.2,0.5-1.6l4.9-7.3
		c0.3-0.5,0.6-1.2,0.6-1.6v-0.5C-385-2517.8-385.1-2518.3-385.8-2518.7L-385.8-2518.7z M-397.3-2518.4c1.3-0.4,3-0.6,4.8-0.6
		c1.8,0,3.5,0.2,4.8,0.6c1.4,0.4,1.7,0.8,1.7,0.9s-0.3,0.5-1.7,0.9c-1.3,0.4-3,0.6-4.8,0.6c-1.8,0-3.5-0.2-4.8-0.6
		c-1.4-0.4-1.7-0.8-1.7-0.9S-398.7-2518-397.3-2518.4z M-391.4-2508.6c-0.4,0.5-0.6,1.5-0.6,2.1v1.7l-1,0.5v-2.2
		c0-0.6-0.3-1.6-0.6-2.1l-4.9-7.3c0.3,0.1,0.6,0.2,0.9,0.3c1.4,0.4,3.2,0.6,5.1,0.6c1.9,0,3.7-0.2,5.1-0.6c0.3-0.1,0.7-0.2,0.9-0.3
		L-391.4-2508.6L-391.4-2508.6z"/>
</g>
</svg>
