<?xml version="1.0" encoding="utf-8"?>
<!-- Generator: Adobe Illustrator 21.1.0, SVG Export Plug-In . SVG Version: 6.00 Build 0)  -->
<svg version="1.1" id="Layer_1" xmlns="http://www.w3.org/2000/svg" xmlns:xlink="http://www.w3.org/1999/xlink" x="0px" y="0px"
	 viewBox="0 0 15 20" style="enable-background:new 0 0 15 20;" xml:space="preserve">
<g transform="translate(80 2760)">
	<path d="M-65.4-2759.1c-0.3-0.4-0.7-0.7-1.3-0.8c-1.1-0.2-2.1,0.5-2.4,1.6l-1.1,5.1l-1.9-5.4c-0.4-1-1.5-1.6-2.6-1.2
		c-1,0.4-1.6,1.5-1.3,2.5l1.4,4.4c-0.2,0-0.3-0.1-0.5-0.1c-0.9,0-1.6,0.6-1.9,1.3c-0.3-0.2-0.7-0.3-1.1-0.3c-1.1,0-2,0.9-2,2v2
		c0,1.2,0.3,3.2,1.2,4.9c0.5,0.9,1,1.6,1.7,2.2c0.8,0.6,1.6,0.9,2.6,0.9h4c2.8,0,4.5-3.2,4.5-5.5c0-1.8-0.1-2.7-0.2-3.4
		c0-0.5-0.1-1-0.1-1.6c0-0.7,0.7-4.6,1.2-7.1C-65-2758.1-65.1-2758.7-65.4-2759.1L-65.4-2759.1z M-75-2752c0.6,0,1,0.4,1,1v1.4
		l-1.5-0.3c-0.2,0-0.3-0.1-0.5-0.1v-1C-76-2751.6-75.6-2752-75-2752z M-79-2750c0-0.6,0.4-1,1-1c0.6,0,1,0.4,1,1v0.3
		c-0.5,0.3-0.8,0.7-0.9,1.2c-0.1,0.5-0.1,1,0.2,1.5c-0.1,0-0.2,0-0.3,0c-0.6,0-1-0.4-1-1V-2750L-79-2750z M-68-2742.5
		c-0.5,0.7-1.3,1.5-2.5,1.5h-4c-2.4,0-3.8-2.8-4.3-5.2c0.2,0.1,0.5,0.2,0.8,0.2c0.4,0,0.7-0.1,1-0.3c0.2,0.1,0.3,0.2,0.5,0.2
		l3.9,1.1c0,0,0.1,0,0.1,0c0.2,0,0.4-0.1,0.5-0.4c0.1-0.3-0.1-0.5-0.4-0.6l-3.9-1.1c-0.2,0-0.3-0.1-0.4-0.2c0,0,0,0,0,0
		c-0.1-0.1-0.1-0.1-0.2-0.2c-0.1-0.2-0.2-0.5-0.1-0.8c0.1-0.3,0.2-0.5,0.5-0.6c0.2-0.1,0.5-0.2,0.8-0.1c0,0,0,0,0,0l2.1,0.4
		c0,0,0,0,0,0l3,0.6c0.8,0.2,1.7,0.4,2.4,0.8c0.8,0.4,1.2,1,1.2,1.7C-67-2744.5-67.4-2743.4-68-2742.5L-68-2742.5z M-66-2757.8
		C-66-2757.8-66-2757.8-66-2757.8c-0.1,0.6-1.2,6.3-1.2,7.3c0,0.6,0,1.1,0.1,1.6c0,0.3,0.1,0.7,0.1,1.2c-0.2-0.2-0.4-0.3-0.6-0.4
		c-0.8-0.5-1.8-0.7-2.7-0.9l-2.6-0.5v-1.8c0-0.3-0.4-1.6-0.5-1.8l-1.5-4.6c-0.2-0.5,0.1-1.1,0.6-1.3c0.5-0.2,1.1,0.1,1.3,0.6l2.5,7
		c0.1,0.2,0.3,0.3,0.5,0.3c0.2,0,0.4-0.2,0.5-0.4l1.5-6.8c0.1-0.5,0.7-0.9,1.2-0.8c0.3,0.1,0.5,0.2,0.6,0.4
		C-66-2758.3-66-2758.1-66-2757.8L-66-2757.8z"/>
</g>
</svg>
