<?xml version="1.0" encoding="utf-8"?>
<!-- Generator: Adobe Illustrator 21.1.0, SVG Export Plug-In . SVG Version: 6.00 Build 0)  -->
<svg version="1.1" id="Layer_1" xmlns="http://www.w3.org/2000/svg" xmlns:xlink="http://www.w3.org/1999/xlink" x="0px" y="0px"
	 viewBox="0 0 17 20" style="enable-background:new 0 0 17 20;" xml:space="preserve">
<g transform="translate(0 160)">
	<path d="M13.1-159.4c-0.1-0.2-0.2-0.3-0.2-0.4c-0.2-0.2-0.4-0.3-0.7-0.1c-0.2,0.1-0.3,0.4-0.2,0.7c0.1,0.1,0.1,0.2,0.2,0.3
		c0.4,0.9,1.2,3.2,1.2,5.6c-0.5-1-1.2-1.9-1.8-2.7c-1-1.2-1.8-2.2-1.7-3.4c0-0.1,0-0.3-0.1-0.4c-0.1-0.1-0.2-0.2-0.4-0.2l0,0
		c-1,0-2.1,0.8-2.8,1.5c-0.9,0.9-1.8,2-2.5,3.2c-0.1,0.2-0.2,0.3-0.3,0.5c0.2-1.6,0.7-3.3,1.1-4.5c0.1-0.2,0-0.3-0.1-0.5
		c-0.1-0.1-0.2-0.2-0.4-0.2c-0.2,0-0.4,0.1-0.4,0.3c-3,5.5-4.1,7.8-4.1,11.7c0,2.1,0.8,4.1,2.3,5.6c0.8,0.8,1.7,1.3,2.7,1.8
		c1.1,0.4,2.3,0.6,3.5,0.6s2.5-0.2,3.5-0.6c1-0.4,1.9-1,2.7-1.8c1.5-1.5,2.3-3.5,2.3-5.6C17-151.9,15.9-154.2,13.1-159.4L13.1-159.4
		z M5-154.9c0.6-1.1,1.5-2.1,2.3-2.9c0.6-0.5,1.2-0.9,1.6-1.1c0.1,1.3,1,2.3,1.9,3.5c1.6,2,3.2,3.9,1.1,7.1c-0.5,0.6-1,1-1.6,1.4
		c0.6-1.1,0.8-2.5,0.6-3.8c-0.2-1-0.7-1.9-1.4-2.7c-0.7-0.8-1.7-1.4-2.9-1.6c-0.2-0.1-0.5,0.1-0.6,0.3c-0.1,0.2,0,0.5,0.2,0.6
		c0.6,0.4,1,1.9,0.6,3c-0.2,0.7-0.7,1.1-1.3,1.1c-0.1,0-0.2,0-0.4,0c-0.4-0.1-0.8-0.3-1-0.7c0-0.1-0.1-0.1-0.1-0.2h0
		C3.7-151.7,4.1-153.2,5-154.9L5-154.9z M8.5-141c-4.9,0-7.5-3.5-7.5-7c0-2.7,0.5-4.6,2-7.6c-0.4,2.5-0.3,4.3,0.3,5.3
		c0.4,0.7,1,1.1,1.7,1.2c0.2,0,0.4,0.1,0.5,0.1c1.1,0,1.9-0.7,2.3-1.8c0.2-0.7,0.2-1.5,0.1-2.3c0-0.1-0.1-0.2-0.1-0.3
		c1.1,0.7,1.8,1.7,2.1,3c0.4,1.7-0.3,3.5-1.7,4.6c-0.2,0.1-0.2,0.4-0.1,0.6c0.1,0.2,0.4,0.3,0.6,0.2c2.5-0.8,4.2-2.2,5.1-4.3
		c0.7-1.5,0.9-3.4,0.6-5.4c1.2,2.5,1.6,4.3,1.6,6.8C16-144.5,13.4-141,8.5-141L8.5-141z"/>
</g>
</svg>
