<?xml version="1.0" encoding="utf-8"?>
<!-- Generator: Adobe Illustrator 21.1.0, SVG Export Plug-In . SVG Version: 6.00 Build 0)  -->
<svg version="1.1" id="Layer_1" xmlns="http://www.w3.org/2000/svg" xmlns:xlink="http://www.w3.org/1999/xlink" x="0px" y="0px"
	 viewBox="0 0 20 15" style="enable-background:new 0 0 20 15;" xml:space="preserve">
<g transform="translate(160 520)">
	<path d="M-141.5-518h-7.5c-0.1,0-0.2-0.1-0.3-0.2l-0.6-1.1c-0.2-0.4-0.7-0.7-1.2-0.7h-7c-0.5,0-1,0.3-1.2,0.7l-0.6,1.1
		c-0.2,0.3-0.3,0.8-0.3,1.2v10.5c0,0.8,0.7,1.5,1.5,1.5h17c0.8,0,1.5-0.7,1.5-1.5v-10C-140-517.3-140.7-518-141.5-518z M-141-506.5
		c0,0.3-0.2,0.5-0.5,0.5h-17c-0.3,0-0.5-0.2-0.5-0.5V-517c0-0.2,0.1-0.5,0.2-0.7l0.6-1.1c0-0.1,0.2-0.2,0.3-0.2h7
		c0.1,0,0.2,0.1,0.3,0.2l0.6,1.1c0.2,0.4,0.7,0.7,1.2,0.7h7.5c0.3,0,0.5,0.2,0.5,0.5V-506.5z"/>
</g>
</svg>
