<?xml version="1.0" encoding="utf-8"?>
<!-- Generator: Adobe Illustrator 21.1.0, SVG Export Plug-In . SVG Version: 6.00 Build 0)  -->
<svg version="1.1" id="Layer_1" xmlns="http://www.w3.org/2000/svg" xmlns:xlink="http://www.w3.org/1999/xlink" x="0px" y="0px"
	 viewBox="0 0 13 17" style="enable-background:new 0 0 13 17;" xml:space="preserve">
<g transform="translate(360 1640)">
	<path d="M-348.5-1623h-10c-0.8,0-1.5-0.7-1.5-1.5v-14c0-0.8,0.7-1.5,1.5-1.5h10c0.8,0,1.5,0.7,1.5,1.5v14
		C-347-1623.7-347.7-1623-348.5-1623z M-358.5-1639c-0.3,0-0.5,0.2-0.5,0.5v14c0,0.3,0.2,0.5,0.5,0.5h10c0.3,0,0.5-0.2,0.5-0.5v-14
		c0-0.3-0.2-0.5-0.5-0.5H-358.5z"/>
</g>
<path d="M6,1v15c0,0.3-0.2,0.5-0.5,0.5C5.2,16.5,5,16.3,5,16V1"/>
<path d="M7,10.5v-4C7,6.2,7.2,6,7.5,6C7.8,6,8,6.2,8,6.5v4C8,10.8,7.8,11,7.5,11C7.2,11,7,10.8,7,10.5z"/>
<path d="M3,10.5v-4C3,6.2,3.2,6,3.5,6C3.8,6,4,6.2,4,6.5v4C4,10.8,3.8,11,3.5,11C3.2,11,3,10.8,3,10.5z"/>
</svg>
