<?xml version="1.0" encoding="utf-8"?>
<!-- Generator: Adobe Illustrator 21.1.0, SVG Export Plug-In . SVG Version: 6.00 Build 0)  -->
<svg version="1.1" id="Layer_1" xmlns="http://www.w3.org/2000/svg" xmlns:xlink="http://www.w3.org/1999/xlink" x="0px" y="0px"
	 viewBox="0 0 49.7 31.6" style="enable-background:new 0 0 49.7 31.6;" xml:space="preserve">
<g>
	<path d="M15.8,13.5c0,1.8,0,3.6,0,5.4c3,0.1,6,0.1,9,0.1c-1.3,6.7-10.4,8.8-15.2,4.5C4.7,19.7,4.9,11.3,10,7.7
		c3.6-2.9,8.7-2.2,12.3,0.3c1.4-1.3,2.7-2.7,4-4.1c-3-2.4-6.6-4.1-10.5-3.9C7.7-0.3,0.2,6.9,0,15c-0.5,6.6,3.9,13.2,10,15.5
		c6.1,2.4,14,0.8,18-4.8c2.6-3.5,3.1-8,2.8-12.2C25.8,13.5,20.8,13.5,15.8,13.5z"/>
	<path d="M45.2,13.5c0-1.5,0-3,0-4.5c-1.5,0-3,0-4.5,0c0,1.5,0,3,0,4.5c-1.5,0-3,0-4.5,0c0,1.5,0,3,0,4.5c1.5,0,3,0,4.5,0
		c0,1.5,0,3,0,4.5c1.5,0,3,0,4.5,0c0-1.5,0-3,0-4.5c1.5,0,3,0,4.5,0c0-1.5,0-3,0-4.5C48.2,13.5,46.7,13.5,45.2,13.5z"/>
</g>
</svg>
