<?xml version="1.0" encoding="utf-8"?>
<!-- Generator: Adobe Illustrator 21.1.0, SVG Export Plug-In . SVG Version: 6.00 Build 0)  -->
<svg version="1.1" id="Layer_1" xmlns="http://www.w3.org/2000/svg" xmlns:xlink="http://www.w3.org/1999/xlink" x="0px" y="0px"
	 viewBox="0 0 48.2 49.2" style="enable-background:new 0 0 48.2 49.2;" xml:space="preserve">
<path d="M47.8,20c-7.7,0-15.4,0-23.2,0c0,3.2,0,6.4,0,9.6c4.5,0,8.9,0,13.4,0c-0.5,3.1-2.3,5.9-4.9,7.6c-1.6,1.1-3.5,1.8-5.4,2.1
	c-1.9,0.3-3.9,0.4-5.9,0c-2-0.4-3.8-1.2-5.5-2.4c-2.6-1.8-4.6-4.5-5.6-7.6c-1-3.1-1.1-6.5,0-9.6c0.7-2.2,2-4.2,3.6-5.8
	c2-2,4.6-3.5,7.3-4.1c2.4-0.5,4.9-0.4,7.2,0.3c2,0.6,3.8,1.7,5.3,3.1c1.5-1.5,3-3,4.5-4.5C39.5,8,40.3,7.2,41,6.4
	c-2.3-2.1-5-3.8-7.9-4.9c-5.3-1.9-11.2-2-16.6-0.1c-6,2.1-11.1,6.5-13.9,12.2c-1,2-1.7,4-2.1,6.2c-1.1,5.3-0.3,11,2.1,15.9
	c1.6,3.2,3.9,6,6.7,8.2c2.6,2.1,5.7,3.6,8.9,4.5c4.1,1.1,8.5,1.1,12.6,0.1c3.7-0.9,7.3-2.6,10.1-5.2c3-2.7,5.1-6.3,6.2-10.2
	C48.4,28.8,48.5,24.3,47.8,20z"/>
</svg>
