<?xml version="1.0" encoding="utf-8"?>
<!-- Generator: Adobe Illustrator 21.1.0, SVG Export Plug-In . SVG Version: 6.00 Build 0)  -->
<svg version="1.1" id="Layer_1" xmlns="http://www.w3.org/2000/svg" xmlns:xlink="http://www.w3.org/1999/xlink" x="0px" y="0px"
	 viewBox="0 0 19 17" style="enable-background:new 0 0 19 17;" xml:space="preserve">
<g transform="translate(0 400)">
	<path d="M9.5-383c-0.1,0-0.2,0-0.2-0.1c-0.1-0.1-2.3-1.3-4.6-3.3c-1.3-1.2-2.4-2.4-3.2-3.7c-1-1.6-1.5-3.1-1.5-4.7
		c0-2.9,2.4-5.2,5.2-5.2c1,0,2,0.4,2.9,1c0.5,0.4,1,0.9,1.3,1.4c0.3-0.5,0.8-1,1.3-1.4c0.9-0.7,2-1,2.9-1c2.9,0,5.2,2.4,5.2,5.2
		c0,1.5-0.5,3.1-1.5,4.7c-0.8,1.2-1.8,2.5-3.2,3.7c-2.3,2-4.5,3.3-4.6,3.3C9.7-383,9.6-383,9.5-383L9.5-383z M5.2-399
		c-2.3,0-4.2,1.9-4.2,4.2c0,3,2.4,5.8,4.3,7.6c1.8,1.6,3.5,2.7,4.2,3.1c0.6-0.4,2.4-1.5,4.2-3.1c2-1.8,4.3-4.5,4.3-7.6
		c0-2.3-1.9-4.2-4.2-4.2c-1.7,0-3.4,1.4-3.8,2.7c-0.1,0.2-0.3,0.3-0.5,0.3c-0.2,0-0.4-0.1-0.5-0.3C8.6-397.6,7-399,5.2-399z"/>
</g>
</svg>
