<?xml version="1.0" encoding="utf-8"?>
<!-- Generator: Adobe Illustrator 21.1.0, SVG Export Plug-In . SVG Version: 6.00 Build 0)  -->
<svg version="1.1" id="Layer_1" xmlns="http://www.w3.org/2000/svg" xmlns:xlink="http://www.w3.org/1999/xlink" x="0px" y="0px"
	 viewBox="0 0 19 14" style="enable-background:new 0 0 19 14;" xml:space="preserve">
<g transform="translate(120 440)">
	<path d="M-101.5-433.6l-2.6-5.2c-0.3-0.7-1.2-1.2-1.9-1.2h-2.5c-0.3,0-0.5,0.2-0.5,0.5c0,0.3,0.2,0.5,0.5,0.5h2.5
		c0.4,0,0.8,0.3,1,0.6l2.6,5.2c0,0.1,0.1,0.1,0.1,0.2c-0.1,0-0.1,0-0.2,0h-5c-0.3,0-0.5,0.2-0.5,0.5c0,1.4-1.1,2.5-2.5,2.5
		c-1.4,0-2.5-1.1-2.5-2.5c0-0.3-0.2-0.5-0.5-0.5h-5c-0.1,0-0.1,0-0.2,0c0-0.1,0.1-0.1,0.1-0.2l2.6-5.2c0.2-0.3,0.6-0.6,1-0.6h2.5
		c0.3,0,0.5-0.2,0.5-0.5c0-0.3-0.2-0.5-0.5-0.5h-2.5c-0.7,0-1.6,0.5-1.9,1.2l-2.6,5.2c-0.3,0.6-0.5,1.5-0.5,2.1v4
		c0,0.8,0.7,1.5,1.5,1.5h16c0.8,0,1.5-0.7,1.5-1.5v-4C-101-432.1-101.2-433.1-101.5-433.6z M-102-427.5c0,0.3-0.2,0.5-0.5,0.5h-16
		c-0.3,0-0.5-0.2-0.5-0.5v-4c0-0.3,0.2-0.5,0.5-0.5h4.5c0.2,1.7,1.7,3,3.5,3c1.8,0,3.2-1.3,3.5-3h4.5c0.3,0,0.5,0.2,0.5,0.5V-427.5z
		"/>
	<path d="M-108.1-436.4c-0.2-0.2-0.5-0.2-0.7,0l-1.1,1.1v-4.3c0-0.3-0.2-0.5-0.5-0.5c-0.3,0-0.5,0.2-0.5,0.5v4.3l-1.1-1.1
		c-0.2-0.2-0.5-0.2-0.7,0c-0.2,0.2-0.2,0.5,0,0.7l2,2c0.1,0.1,0.2,0.1,0.4,0.1s0.3,0,0.4-0.1l2-2
		C-107.9-435.8-107.9-436.2-108.1-436.4L-108.1-436.4z"/>
</g>
</svg>
