<?xml version="1.0" encoding="utf-8"?>
<!-- Generator: Adobe Illustrator 21.1.0, SVG Export Plug-In . SVG Version: 6.00 Build 0)  -->
<svg version="1.0" id="Layer_1" xmlns="http://www.w3.org/2000/svg" xmlns:xlink="http://www.w3.org/1999/xlink" x="0px" y="0px"
	 viewBox="0 0 64 64" style="enable-background:new 0 0 64 64;" xml:space="preserve">
<path class="st0" d="M32.2,13.2c-10.4,0-18.9,8.5-18.9,18.9c0,10.4,8.5,18.9,18.9,18.9S51.1,42.5,51.1,32
	C51.1,21.6,42.6,13.2,32.2,13.2z M32.2,48.1c-8.8,0-16-7.2-16-16c0-8.8,7.2-16,16-16s16,7.2,16,16C48.2,40.9,41,48.1,32.2,48.1z"/>
<path class="st0" d="M32.2,35.9c-2.2,0-4,1.8-4,4c0,2.2,1.8,4,4,4c2.2,0,4-1.8,4-4C36.2,37.7,34.4,35.9,32.2,35.9z M32.2,41.1
	c-0.6,0-1.2-0.5-1.2-1.2c0-0.6,0.5-1.2,1.2-1.2c0.6,0,1.2,0.5,1.2,1.2C33.3,40.6,32.8,41.1,32.2,41.1z"/>
<path class="st0" d="M33.5,21c-1.7-0.4-3.5,0-4.8,1.1c-1.3,1.1-2.1,2.7-2.1,4.4c0,0.8,0.6,1.4,1.4,1.4c0.8,0,1.4-0.6,1.4-1.4
	c0-0.8,0.4-1.6,1-2.2c0.7-0.5,1.5-0.7,2.4-0.5c1,0.2,1.8,1,2,2c0.3,1.5-0.6,2.8-1.6,3.2c-1.5,0.6-2.5,2-2.5,3.8
	c0,0.8,0.6,1.4,1.4,1.4s1.4-0.7,1.4-1.5c0-0.5,0.3-0.9,0.7-1c2.6-1,4-3.8,3.4-6.5C37.2,23.1,35.5,21.4,33.5,21z"/>
</svg>
