<?xml version="1.0" encoding="utf-8"?>
<!-- Generator: Adobe Illustrator 19.1.0, SVG Export Plug-In . SVG Version: 6.00 Build 0)  -->
<svg version="1.1" id="Layer_2" xmlns="http://www.w3.org/2000/svg" xmlns:xlink="http://www.w3.org/1999/xlink" x="0px" y="0px"
	 viewBox="-255 347 100 100" enable-background="new -255 347 100 100" xml:space="preserve">
<path id="LinkedIn" d="M-160,407.8v33.3h-19.3v-31c0-7.8-2.8-13.1-9.8-13.1c-5.3,0-8.5,3.6-9.9,7.1
	c-0.5,1.2-0.6,3-0.6,4.7v32.4h-19.3c0,0,0.3-52.6,0-58h19.3v8.2c0,0.1-0.1,0.1-0.1,0.2h0.1v-0.2c2.6-3.9,7.1-9.6,17.4-9.6
	C-169.5,381.7-160,390-160,407.8z M-239.1,355.1c-6.6,0-10.9,4.3-10.9,10c0,5.6,4.2,10,10.7,10h0.1c6.7,0,10.9-4.5,10.9-10
	C-228.4,359.4-232.5,355.1-239.1,355.1z M-248.9,441.1h19.3v-58h-19.3V441.1z"/>
</svg>
