<?xml version="1.0" encoding="utf-8"?>
<!-- Generator: Adobe Illustrator 21.1.0, SVG Export Plug-In . SVG Version: 6.00 Build 0)  -->
<svg version="1.1" id="Layer_1" xmlns="http://www.w3.org/2000/svg" xmlns:xlink="http://www.w3.org/1999/xlink" x="0px" y="0px"
	 viewBox="0 0 17 17" style="enable-background:new 0 0 17 17;" xml:space="preserve">
<g transform="translate(280 2240)">
	<path d="M-270.3-2229c-0.9,0-1.9-0.4-2.6-1.1c-0.2-0.2-0.2-0.5,0-0.7c0.2-0.2,0.5-0.2,0.7,0c1,1,2.7,1,3.8,0l3.6-3.6
		c1-1,1-2.7,0-3.8s-2.7-1-3.8,0l-3.1,3.1c-0.2,0.2-0.5,0.2-0.7,0c-0.2-0.2-0.2-0.5,0-0.7l3.1-3.1c1.4-1.4,3.8-1.4,5.2,0
		c1.4,1.4,1.4,3.8,0,5.2l-3.6,3.6C-268.4-2229.4-269.4-2229-270.3-2229L-270.3-2229z"/>
	<path d="M-276.3-2223c-0.9,0-1.9-0.4-2.6-1.1c-1.4-1.4-1.4-3.8,0-5.2l3.6-3.6c1.4-1.4,3.8-1.4,5.2,0c0.2,0.2,0.2,0.5,0,0.7
		c-0.2,0.2-0.5,0.2-0.7,0c-1-1-2.7-1-3.8,0l-3.6,3.6c-1,1-1,2.7,0,3.8c1,1,2.7,1,3.8,0l3.1-3.1c0.2-0.2,0.5-0.2,0.7,0
		c0.2,0.2,0.2,0.5,0,0.7l-3.1,3.1C-274.4-2223.4-275.4-2223-276.3-2223L-276.3-2223z"/>
</g>
</svg>
