<?xml version="1.0" encoding="utf-8"?>
<!-- Generator: Adobe Illustrator 21.1.0, SVG Export Plug-In . SVG Version: 6.00 Build 0)  -->
<svg version="1.1" id="Layer_1" xmlns="http://www.w3.org/2000/svg" xmlns:xlink="http://www.w3.org/1999/xlink" x="0px" y="0px"
	 viewBox="0 0 20 20" style="enable-background:new 0 0 20 20;" xml:space="preserve">
<g transform="translate(360 1080)">
	<path d="M-351.5-1060c0,0-0.1,0-0.1,0c-0.2-0.1-0.4-0.3-0.4-0.5v-7.5h-7.5c-0.2,0-0.4-0.2-0.5-0.4c-0.1-0.2,0-0.4,0.2-0.6l19-11
		c0.2-0.1,0.4-0.1,0.6,0.1c0.2,0.2,0.2,0.4,0.1,0.6l-11,19C-351.2-1060.1-351.3-1060-351.5-1060L-351.5-1060z M-357.6-1069h6.1
		c0.3,0,0.5,0.2,0.5,0.5v6.1l9.1-15.8L-357.6-1069z"/>
</g>
</svg>
