<?xml version="1.0" encoding="utf-8"?>
<!-- Generator: Adobe Illustrator 21.1.0, SVG Export Plug-In . SVG Version: 6.00 Build 0)  -->
<svg version="1.1" id="Layer_1" xmlns="http://www.w3.org/2000/svg" xmlns:xlink="http://www.w3.org/1999/xlink" x="0px" y="0px"
	 viewBox="0 0 19 19" style="enable-background:new 0 0 19 19;" xml:space="preserve">
<g transform="translate(320 1080)">
	<path d="M-301.2-1079.9c-0.1-0.1-0.3-0.1-0.5,0l-5.8,2.9l-5.8-2.9c-0.1-0.1-0.3-0.1-0.4,0l-6,3c-0.2,0.1-0.3,0.3-0.3,0.4v15
		c0,0.2,0.1,0.3,0.2,0.4c0.1,0,0.2,0.1,0.3,0.1c0.1,0,0.2,0,0.2-0.1l5.8-2.9l5.8,2.9c0.1,0.1,0.3,0.1,0.4,0l6-3
		c0.2-0.1,0.3-0.3,0.3-0.4v-15C-301-1079.7-301.1-1079.8-301.2-1079.9L-301.2-1079.9z M-314-1064.8l-5,2.5v-13.9l5-2.5V-1064.8z
		 M-313-1078.7l5,2.5v13.9l-5-2.5V-1078.7z M-302-1064.8l-5,2.5v-13.9l5-2.5V-1064.8z"/>
</g>
</svg>
