<?xml version="1.0" encoding="utf-8"?>
<!-- Generator: Adobe Illustrator 21.1.0, SVG Export Plug-In . SVG Version: 6.00 Build 0)  -->
<svg version="1.1" id="Layer_1" xmlns="http://www.w3.org/2000/svg" xmlns:xlink="http://www.w3.org/1999/xlink" x="0px" y="0px"
	 viewBox="0 0 12 20" style="enable-background:new 0 0 12 20;" xml:space="preserve">
<g transform="translate(0 1080)">
	<path d="M6-1080c-3.3,0-6,2.7-6,6c0,1.5,0.3,3.2,0.9,5c0.4,1.4,1.1,2.9,1.9,4.4c1.4,2.6,2.7,4.3,2.8,4.4c0.1,0.1,0.2,0.2,0.4,0.2
		s0.3-0.1,0.4-0.2c0.1-0.1,1.4-1.8,2.8-4.4c0.8-1.5,1.4-3,1.9-4.4c0.6-1.8,0.9-3.5,0.9-5C12-1077.3,9.3-1080,6-1080z M6-1071
		c-1.7,0-3-1.3-3-3s1.3-3,3-3s3,1.3,3,3S7.7-1071,6-1071z"/>
</g>
</svg>
