<?xml version="1.0" encoding="utf-8"?>
<!-- Generator: Adobe Illustrator 21.1.0, SVG Export Plug-In . SVG Version: 6.00 Build 0)  -->
<svg version="1.1" id="Layer_1" xmlns="http://www.w3.org/2000/svg" xmlns:xlink="http://www.w3.org/1999/xlink" x="0px" y="0px"
	 viewBox="0 0 12 20" style="enable-background:new 0 0 12 20;" xml:space="preserve">
<g transform="translate(0 1080)">
	<path d="M6-1060c-0.2,0-0.3-0.1-0.4-0.2c-0.1-0.1-1.4-1.8-2.8-4.4c-0.8-1.5-1.5-3-1.9-4.4c-0.6-1.8-0.9-3.5-0.9-5c0-3.3,2.7-6,6-6
		s6,2.7,6,6c0,1.5-0.3,3.2-0.9,5c-0.5,1.4-1.1,2.9-1.9,4.4c-1.4,2.6-2.7,4.3-2.8,4.4C6.3-1060.1,6.2-1060,6-1060L6-1060z M6-1079
		c-2.8,0-5,2.2-5,5c0,3.3,1.5,6.7,2.7,9c0.9,1.7,1.8,3,2.3,3.7c0.5-0.7,1.4-2,2.3-3.7c1.2-2.3,2.7-5.7,2.7-8.9
		C11-1076.8,8.8-1079,6-1079z"/>
	<path d="M6-1071c-1.7,0-3-1.3-3-3s1.3-3,3-3c1.7,0,3,1.3,3,3S7.7-1071,6-1071z M6-1076c-1.1,0-2,0.9-2,2s0.9,2,2,2c1.1,0,2-0.9,2-2
		S7.1-1076,6-1076z"/>
</g>
</svg>
