<?xml version="1.0" encoding="utf-8"?>
<!-- Generator: Adobe Illustrator 21.1.0, SVG Export Plug-In . SVG Version: 6.00 Build 0)  -->
<svg version="1.1" id="Layer_1" xmlns="http://www.w3.org/2000/svg" xmlns:xlink="http://www.w3.org/1999/xlink" x="0px" y="0px"
	 viewBox="0 0 15 20" style="enable-background:new 0 0 15 20;" xml:space="preserve">
<g transform="translate(240 1120)">
	<path d="M-230.5-1116c-3,0-5.5,2.5-5.5,5.5v5c0,3,2.5,5.5,5.5,5.5c3,0,5.5-2.5,5.5-5.5v-5C-225-1113.5-227.5-1116-230.5-1116z
		 M-226-1111h-4v-4C-227.9-1114.7-226.3-1113.1-226-1111z M-231-1115v4h-4C-234.7-1113.1-233.1-1114.7-231-1115z M-230.5-1101
		c-2.5,0-4.5-2-4.5-4.5v-4.5h9v4.5C-226-1103-228-1101-230.5-1101z"/>
	<path d="M-234.5-1117c-0.3,0-0.5-0.2-0.5-0.5v-2c0-0.3,0.2-0.5,0.5-0.5c0.3,0,0.5,0.2,0.5,0.5v2C-234-1117.2-234.2-1117-234.5-1117
		z"/>
	<path d="M-237.5-1114h-2c-0.3,0-0.5-0.2-0.5-0.5s0.2-0.5,0.5-0.5h2c0.3,0,0.5,0.2,0.5,0.5S-237.2-1114-237.5-1114z"/>
	<path d="M-236.5-1116c-0.1,0-0.3,0-0.4-0.1l-2-2c-0.2-0.2-0.2-0.5,0-0.7c0.2-0.2,0.5-0.2,0.7,0l2,2c0.2,0.2,0.2,0.5,0,0.7
		C-236.2-1116-236.4-1116-236.5-1116L-236.5-1116z"/>
</g>
</svg>
