<?xml version="1.0" encoding="utf-8"?>
<!-- Generator: Adobe Illustrator 21.1.0, SVG Export Plug-In . SVG Version: 6.00 Build 0)  -->
<svg version="1.1" id="Layer_1" xmlns="http://www.w3.org/2000/svg" xmlns:xlink="http://www.w3.org/1999/xlink" x="0px" y="0px"
	 viewBox="0 0 19.8 20" style="enable-background:new 0 0 19.8 20;" xml:space="preserve">
<g transform="translate(200 1120)">
	<path d="M-180.5-1115c-0.3-0.1-0.5,0-0.6,0.3c-0.4,1-1.3,1.7-2.4,1.7c-1.4,0-2.3-1.3-2.5-2.6c-0.2-1.1-0.7-2.2-1.4-3
		c-0.8-0.9-1.9-1.4-3.1-1.4c-2.3,0-4.2,1.8-4.5,4c-2.8,0.2-5,2.6-5,5.5v5c0,3,2.5,5.5,5.5,5.5c3,0,5.5-2.5,5.5-5.5v-5
		c0-2.9-2.2-5.2-5-5.5c0.2-1.7,1.7-3,3.5-3c1.9,0,3.2,1.8,3.5,3.6c0.1,0.9,0.5,1.7,1.1,2.3c0.7,0.7,1.5,1.1,2.4,1.1
		c1.5,0,2.8-0.9,3.3-2.3C-180.1-1114.6-180.2-1114.9-180.5-1115L-180.5-1115z M-195-1115v4h-4C-198.7-1113.1-197.1-1114.7-195-1115z
		 M-194.5-1101c-2.5,0-4.5-2-4.5-4.5v-4.5h9v4.5C-190-1103-192-1101-194.5-1101z M-190-1111h-4v-4
		C-191.9-1114.7-190.3-1113.1-190-1111z"/>
</g>
</svg>
