<?xml version="1.0" encoding="utf-8"?>
<!-- Generator: Adobe Illustrator 21.1.0, SVG Export Plug-In . SVG Version: 6.00 Build 0)  -->
<svg version="1.1" id="Layer_1" xmlns="http://www.w3.org/2000/svg" xmlns:xlink="http://www.w3.org/1999/xlink" x="0px" y="0px"
	 viewBox="0 0 20 13" style="enable-background:new 0 0 20 13;" xml:space="preserve">
<g transform="translate(120 600)">
	<path d="M-105.5-590h-6c-0.3,0-0.5-0.2-0.5-0.5v-4c0-0.3,0.2-0.5,0.5-0.5h6c0.3,0,0.5,0.2,0.5,0.5v4
		C-105-590.2-105.2-590-105.5-590z M-111-591h5v-3h-5V-591z"/>
	<path d="M-113.5-594h-3c-0.3,0-0.5-0.2-0.5-0.5c0-0.3,0.2-0.5,0.5-0.5h3c0.3,0,0.5,0.2,0.5,0.5C-113-594.2-113.2-594-113.5-594z"/>
	<path d="M-113.5-592h-3c-0.3,0-0.5-0.2-0.5-0.5c0-0.3,0.2-0.5,0.5-0.5h3c0.3,0,0.5,0.2,0.5,0.5C-113-592.2-113.2-592-113.5-592z"/>
	<path d="M-113.5-590h-3c-0.3,0-0.5-0.2-0.5-0.5c0-0.3,0.2-0.5,0.5-0.5h3c0.3,0,0.5,0.2,0.5,0.5C-113-590.2-113.2-590-113.5-590z"/>
	<path d="M-100.5-598c-0.3,0-0.5,0.2-0.5,0.5v9c0,0.3-0.2,0.5-0.5,0.5h-17c-0.3,0-0.5-0.2-0.5-0.5v-10c0-0.3,0.2-0.5,0.5-0.5h15
		c0.3,0,0.5,0.2,0.5,0.5v9c0,0.3,0.2,0.5,0.5,0.5c0.3,0,0.5-0.2,0.5-0.5v-9c0-0.8-0.7-1.5-1.5-1.5h-15c-0.8,0-1.5,0.7-1.5,1.5v10
		c0,0.8,0.7,1.5,1.5,1.5h17c0.8,0,1.5-0.7,1.5-1.5v-9C-100-597.8-100.2-598-100.5-598z"/>
	<path d="M-105.5-596h-11c-0.3,0-0.5-0.2-0.5-0.5c0-0.3,0.2-0.5,0.5-0.5h11c0.3,0,0.5,0.2,0.5,0.5C-105-596.2-105.2-596-105.5-596z"
		/>
</g>
</svg>
