<?xml version="1.0" encoding="utf-8"?>
<!-- Generator: Adobe Illustrator 21.1.0, SVG Export Plug-In . SVG Version: 6.00 Build 0)  -->
<svg version="1.1" id="Layer_1" xmlns="http://www.w3.org/2000/svg" xmlns:xlink="http://www.w3.org/1999/xlink" x="0px" y="0px"
	 viewBox="0 0 17 19" style="enable-background:new 0 0 17 19;" xml:space="preserve">
<g transform="translate(40 920)">
	<path d="M-27-917.5c0,0.3-0.2,0.5-0.5,0.5s-0.5-0.2-0.5-0.5s0.2-0.5,0.5-0.5S-27-917.8-27-917.5z"/>
	<path d="M-25-917.5c0,0.3-0.2,0.5-0.5,0.5s-0.5-0.2-0.5-0.5s0.2-0.5,0.5-0.5S-25-917.8-25-917.5z"/>
	<path d="M-25.5-920h-12c-1.4,0-2.5,1.1-2.5,2.5v15c0,0.8,0.7,1.5,1.5,1.5h14c0.8,0,1.5-0.7,1.5-1.5v-15
		C-23-918.9-24.1-920-25.5-920z M-37.5-919h12c0.8,0,1.5,0.7,1.5,1.5v1.5h-15v-1.5C-39-918.3-38.3-919-37.5-919z M-24.5-902h-14
		c-0.3,0-0.5-0.2-0.5-0.5V-915h15v12.5C-24-902.2-24.2-902-24.5-902z"/>
	<path d="M-25-910h-13v-4h13V-910z M-37-911h11v-2h-11V-911z"/>
	<path d="M-34.5-917h-3c-0.3,0-0.5-0.2-0.5-0.5s0.2-0.5,0.5-0.5h3c0.3,0,0.5,0.2,0.5,0.5S-34.2-917-34.5-917z"/>
</g>
<path d="M11,2.5C11,2.8,10.8,3,10.5,3S10,2.8,10,2.5S10.2,2,10.5,2S11,2.2,11,2.5z"/>
<path d="M9,2.5C9,2.8,8.8,3,8.5,3S8,2.8,8,2.5S8.2,2,8.5,2S9,2.2,9,2.5z"/>
<path d="M15,17H2v-6h13V17z M3,16h11v-4H3V16z"/>
</svg>
