<?xml version="1.0" encoding="utf-8"?>
<!-- Generator: Adobe Illustrator 21.1.0, SVG Export Plug-In . SVG Version: 6.00 Build 0)  -->
<svg version="1.1" id="Layer_1" xmlns="http://www.w3.org/2000/svg" xmlns:xlink="http://www.w3.org/1999/xlink" x="0px" y="0px"
	 viewBox="0 0 20 18" style="enable-background:new 0 0 20 18;" xml:space="preserve">
<g transform="translate(520 400)">
	<path d="M-500.2-399.9c-0.1-0.1-0.3-0.2-0.5-0.1l-19,8c-0.2,0.1-0.3,0.3-0.3,0.5c0,0.2,0.1,0.4,0.3,0.5l5.7,1.9v5.6
		c0,0.2,0.1,0.4,0.3,0.5c0.1,0,0.1,0,0.2,0c0.1,0,0.3-0.1,0.4-0.2l2.8-3.4l4.5,4.4c0.1,0.1,0.2,0.1,0.4,0.1c0,0,0.1,0,0.1,0
		c0.2,0,0.3-0.2,0.4-0.3l5-17C-500-399.5-500-399.7-500.2-399.9L-500.2-399.9z M-503.9-397.5l-9.7,7.5l-4.5-1.5L-503.9-397.5z
		 M-513-389.3l9.4-7.2l-7.2,8.9c0,0,0,0,0,0l-2.2,2.7V-389.3z M-505.7-383.4l-4-3.9l8-9.9L-505.7-383.4L-505.7-383.4z"/>
</g>
</svg>
