<?xml version="1.0" encoding="utf-8"?>
<!-- Generator: Adobe Illustrator 21.1.0, SVG Export Plug-In . SVG Version: 6.00 Build 0)  -->
<svg version="1.1" id="Layer_1" xmlns="http://www.w3.org/2000/svg" xmlns:xlink="http://www.w3.org/1999/xlink" x="0px" y="0px"
	 viewBox="0 0 20 20" style="enable-background:new 0 0 20 20;" xml:space="preserve">
<g transform="translate(40 40)">
	<path d="M-20.4-39.6c-0.3-0.3-0.7-0.4-1.1-0.4c-0.8,0-1.8,0.4-3,1.2c-0.4-0.4-1.2-1.1-2.1-1.2c-0.8-0.1-1.5,0.2-2.2,0.9
		c-1.4,1.4-2.1,3.1-2.6,4.3c-0.2,0.4-0.3,0.9-0.4,1c0,0-0.1,0.1-0.3,0c-0.2-0.2-0.5-0.2-0.7,0c-0.2,0.2-0.2,0.5,0,0.7
		c0.1,0.1,0.3,0.2,0.6,0.3c0.1,0,0.2,0,0.3,0c0.1,0,0.3,0,0.4-0.1c-0.1,0.1-0.3,0.3-0.4,0.4c-3.5,3.7-7.5,8.7-8,11.8
		c0,0.2,0,0.3,0.1,0.4c0.1,0.1,0.2,0.1,0.4,0.1c0,0,0.1,0,0.1,0c1.3-0.2,3-1,5.1-2.5c1.9-1.3,3.9-2.9,5.9-4.8c2-1.8,3.8-3.7,5.2-5.5
		c1.1-1.3,2.5-3.2,2.9-4.7C-19.9-38.4-20-39.1-20.4-39.6L-20.4-39.6z M-28.1-38.4c0.5-0.4,0.9-0.7,1.4-0.6c0.6,0,1.1,0.4,1.4,0.7
		c-0.2,0.2-0.5,0.4-0.8,0.6c-1.4,1.1-3,2.5-4.6,4.1c0.1-0.2,0.2-0.5,0.3-0.8C-30.1-35.5-29.4-37.1-28.1-38.4z M-37-24.8l1.7,1.7
		c-1.4,0.9-2.6,1.5-3.6,1.8C-38.5-22.2-37.9-23.4-37-24.8z M-29-28c-1.9,1.7-3.7,3.2-5.4,4.4l-2-2c1.3-1.9,3.1-4,5.1-6.1
		c2.4-2.5,4.7-4.5,6.6-5.8l2.2,2.2C-23.9-33.2-26.3-30.6-29-28z M-21.1-37.8c-0.1,0.5-0.4,1-0.8,1.6l-1.9-1.9c1-0.6,1.8-0.9,2.3-0.9
		c0.3,0,0.4,0.1,0.4,0.1C-20.9-38.6-21-38.1-21.1-37.8L-21.1-37.8z"/>
</g>
</svg>
