<?xml version="1.0" encoding="utf-8"?>
<!-- Generator: Adobe Illustrator 21.1.0, SVG Export Plug-In . SVG Version: 6.00 Build 0)  -->
<svg version="1.1" id="Layer_1" xmlns="http://www.w3.org/2000/svg" xmlns:xlink="http://www.w3.org/1999/xlink" x="0px" y="0px"
	 viewBox="0 0 19 19" style="enable-background:new 0 0 19 19;" xml:space="preserve">
<g transform="translate(160 120)">
	<path d="M-141-115c0-2.8-2.2-5-5-5c-0.8,0-1.5,0.2-2.2,0.5c-0.1,0-0.1,0.1-0.1,0.1l0,0l-10.6,10.6c-0.1,0.1-0.1,0.2-0.1,0.3l-1,7
		c0,0.2,0,0.3,0.1,0.4c0.1,0.1,0.2,0.1,0.4,0.1c0,0,0,0,0.1,0l7-1c0.1,0,0.2-0.1,0.3-0.1l10.6-10.6l0,0l0,0l0,0c0,0,0.1-0.1,0.1-0.1
		C-141.2-113.5-141-114.2-141-115z M-142-115c0,0.6-0.1,1.1-0.4,1.6l-1.1,1.2c-0.1-2.9-2.4-5.2-5.3-5.3l1.1-1.1
		c0.5-0.2,1.1-0.4,1.6-0.4C-143.8-119-142-117.2-142-115z M-158.5-105l0.4-3c0.2,0,0.4,0,0.6,0c2.5,0,4.5,2,4.5,4.5
		c0,0.2,0,0.4,0,0.6l-3,0.4C-156-103.9-157.1-105-158.5-105z M-149.9-116.4c0.3-0.1,0.6-0.1,0.9-0.1c1.1,0,2,0.4,2.8,1l-7.8,7.8
		c-0.9-0.8-2.1-1.2-3.3-1.3L-149.9-116.4L-149.9-116.4z M-153.3-107l7.8-7.8c0.6,0.8,1,1.7,1,2.8c0,0.3,0,0.6-0.1,0.9l-7.4,7.4
		C-152-105-152.5-106.1-153.3-107L-153.3-107z M-158.6-104c0,0,0.1,0,0.1,0c0.8,0,1.5,0.7,1.5,1.5c0,0,0,0.1,0,0.1l-1.9,0.3
		L-158.6-104z"/>
</g>
</svg>
