<?xml version="1.0" encoding="utf-8"?>
<!-- Generator: Adobe Illustrator 21.1.0, SVG Export Plug-In . SVG Version: 6.00 Build 0)  -->
<svg version="1.1" id="Layer_1" xmlns="http://www.w3.org/2000/svg" xmlns:xlink="http://www.w3.org/1999/xlink" x="0px" y="0px"
	 viewBox="0 0 20 20" style="enable-background:new 0 0 20 20;" xml:space="preserve">
<g transform="translate(120 1040)">
	<path d="M-100-1024c0,0.8-0.7,1.8-1.3,2.5c-0.5,0.4-1.6,1.5-2.7,1.5c-1.8,0-3.7-0.5-5.6-1.5c-1.8-0.9-3.6-2.2-5.1-3.8
		c-1.6-1.6-2.9-3.3-3.8-5.1c-1-1.9-1.5-3.8-1.5-5.6c0-1.1,1.1-2.3,1.5-2.7c0.7-0.6,1.7-1.3,2.5-1.3c0.4,0,0.8,0.2,1.4,0.8
		c0.4,0.4,0.9,0.9,1.4,1.5c0.3,0.4,1.7,2.3,1.7,3.2c0,0.7-0.8,1.3-1.7,1.8c-0.3,0.2-0.7,0.4-1,0.6c-0.3,0.2-0.3,0.3-0.3,0.4
		c0.9,2.4,3.9,5.3,6.2,6.2c0,0,0.1-0.1,0.4-0.3c0.2-0.3,0.4-0.6,0.6-1c0.5-0.9,1.1-1.7,1.8-1.7c0.9,0,2.8,1.4,3.2,1.7
		c0.6,0.5,1.1,1,1.5,1.4C-100.3-1024.8-100-1024.4-100-1024z"/>
	<path d="M-102.2-1037.9c-0.2-0.2-0.5-0.2-0.7,0l-5.1,5.1v-2.8c0-0.3-0.2-0.5-0.5-0.5s-0.5,0.2-0.5,0.5v4c0,0.3,0.2,0.5,0.5,0.5h4
		c0.3,0,0.5-0.2,0.5-0.5s-0.2-0.5-0.5-0.5h-2.8l5.1-5.1C-102-1037.3-102-1037.7-102.2-1037.9z"/>
</g>
</svg>
