<?xml version="1.0" encoding="utf-8"?>
<!-- Generator: Adobe Illustrator 21.1.0, SVG Export Plug-In . SVG Version: 6.00 Build 0)  -->
<svg version="1.1" id="Layer_1" xmlns="http://www.w3.org/2000/svg" xmlns:xlink="http://www.w3.org/1999/xlink" x="0px" y="0px"
	 viewBox="0 0 20 20" style="enable-background:new 0 0 20 20;" xml:space="preserve">
<g transform="translate(480 1000)">
	<path d="M-464-980c-1.8,0-3.7-0.5-5.6-1.5c-1.8-0.9-3.6-2.2-5.1-3.8c-1.6-1.6-2.9-3.3-3.8-5.1c-1-1.9-1.5-3.8-1.5-5.6
		c0-1.1,1.1-2.3,1.5-2.7c0.7-0.6,1.7-1.3,2.5-1.3c0.4,0,0.8,0.2,1.4,0.8c0.4,0.4,0.9,0.9,1.4,1.5c0.3,0.4,1.7,2.3,1.7,3.2
		c0,0.7-0.8,1.3-1.7,1.8c-0.3,0.2-0.7,0.4-1,0.6c-0.3,0.2-0.3,0.3-0.3,0.4c0.9,2.4,3.9,5.3,6.2,6.2c0,0,0.1-0.1,0.4-0.3
		c0.2-0.3,0.4-0.6,0.6-1c0.6-0.9,1.1-1.7,1.8-1.7c0.9,0,2.8,1.4,3.2,1.7c0.6,0.5,1.2,1,1.5,1.4c0.5,0.6,0.8,1,0.8,1.4
		c0,0.8-0.7,1.8-1.3,2.5C-461.8-981.1-462.9-980-464-980L-464-980z"/>
</g>
</svg>
