<?xml version="1.0" encoding="utf-8"?>
<!-- Generator: Adobe Illustrator 21.1.0, SVG Export Plug-In . SVG Version: 6.00 Build 0)  -->
<svg version="1.1" id="Layer_1" xmlns="http://www.w3.org/2000/svg" xmlns:xlink="http://www.w3.org/1999/xlink" x="0px" y="0px"
	 viewBox="0 0 20 18" style="enable-background:new 0 0 20 18;" xml:space="preserve">
<g transform="translate(320 1360)">
	<path d="M-307.3-1342c-1.4,0-2.9-0.4-4.5-1.2c-1.4-0.7-2.8-1.8-4.1-3c-1.2-1.2-2.3-2.6-3-4.1c-0.8-1.6-1.2-3.1-1.2-4.5
		c0-0.9,0.8-1.8,1.2-2.2c0.6-0.5,1.4-1.1,2-1.1c0.3,0,0.7,0.2,1.2,0.6c0.3,0.3,0.7,0.7,1.1,1.2c0.3,0.4,1.4,1.8,1.4,2.6
		c0,0.6-0.7,1.1-1.4,1.5c-0.2,0.2-0.5,0.3-0.7,0.5c-0.2,0.1-0.2,0.2-0.3,0.2c0.8,1.8,3,4,4.8,4.8c0,0,0.1-0.1,0.2-0.3
		c0.1-0.2,0.3-0.5,0.5-0.7c0.5-0.7,0.9-1.4,1.5-1.4c0.7,0,2.2,1.1,2.6,1.4c0.5,0.4,0.9,0.8,1.2,1.1c0.4,0.5,0.6,0.8,0.6,1.2
		c0,0.6-0.6,1.5-1.1,2C-305.5-1342.8-306.4-1342-307.3-1342L-307.3-1342z M-316.8-1357c-0.2,0-0.8,0.3-1.3,0.8
		c-0.6,0.5-0.9,1.1-0.9,1.5c0,2.5,1.5,5.4,3.9,7.8c2.4,2.4,5.4,3.9,7.8,3.9c0.4,0,0.9-0.4,1.5-0.9c0.5-0.6,0.8-1.1,0.8-1.3
		c-0.1-0.2-0.5-0.7-1.5-1.5c-1-0.7-1.7-1.1-1.9-1.1c-0.2,0.1-0.5,0.6-0.7,0.9c-0.5,0.7-0.9,1.4-1.6,1.4c-0.1,0-0.2,0-0.3-0.1
		c-2.1-0.8-4.6-3.3-5.4-5.4c-0.1-0.3-0.1-0.7,0.4-1.2c0.3-0.2,0.6-0.5,1-0.7c0.3-0.2,0.8-0.5,0.9-0.7c0-0.2-0.4-0.9-1.1-1.9
		C-316-1356.5-316.6-1356.9-316.8-1357L-316.8-1357z"/>
	<path d="M-310.5-1351c-0.2,0-0.4-0.1-0.5-0.3c-0.1-0.2,0-0.4,0.1-0.5c0.8-0.8,1.1-1.3,1.2-1.6c-0.8-0.7-1.3-1.6-1.3-2.6
		c0-1.1,0.6-2.1,1.7-2.9c1-0.7,2.4-1.1,3.8-1.1c1.4,0,2.8,0.4,3.8,1.1c1.1,0.8,1.7,1.8,1.7,2.9c0,1.1-0.6,2.1-1.7,2.9
		c-1,0.7-2.4,1.1-3.8,1.1c-0.6,0-1.2-0.1-1.8-0.2C-307.8-1351.9-309.2-1351-310.5-1351L-310.5-1351z M-305.5-1359
		c-1.2,0-2.4,0.3-3.2,0.9c-0.8,0.6-1.3,1.3-1.3,2.1c0,0.7,0.4,1.4,1.1,2c0.1,0.1,0.2,0.2,0.2,0.3c0,0.2,0.1,0.6-0.5,1.4
		c0.7-0.3,1.2-0.6,1.5-0.8c0.1-0.1,0.3-0.1,0.4-0.1c0.5,0.2,1.1,0.2,1.7,0.2c1.2,0,2.4-0.3,3.2-0.9c0.8-0.6,1.3-1.3,1.3-2.1
		s-0.4-1.5-1.3-2.1C-303.1-1358.7-304.3-1359-305.5-1359z"/>
</g>
</svg>
