<?xml version="1.0" encoding="utf-8"?>
<!-- Generator: Adobe Illustrator 21.1.0, SVG Export Plug-In . SVG Version: 6.00 Build 0)  -->
<svg version="1.1" id="Layer_1" xmlns="http://www.w3.org/2000/svg" xmlns:xlink="http://www.w3.org/1999/xlink" x="0px" y="0px"
	 viewBox="0 0 17 20" style="enable-background:new 0 0 17 20;" xml:space="preserve">
<g transform="translate(280 760)">
	<path d="M-264.5-740h-14c-0.8,0-1.5-0.7-1.5-1.5v-13c0-0.8,0.7-1.5,1.5-1.5h14c0.8,0,1.5,0.7,1.5,1.5v13
		C-263-740.7-263.7-740-264.5-740z M-278.5-755c-0.3,0-0.5,0.2-0.5,0.5v13c0,0.3,0.2,0.5,0.5,0.5h14c0.3,0,0.5-0.2,0.5-0.5v-13
		c0-0.3-0.2-0.5-0.5-0.5H-278.5z"/>
	<path d="M-264.5-757h-14c-0.3,0-0.5-0.2-0.5-0.5c0-0.3,0.2-0.5,0.5-0.5h14c0.3,0,0.5,0.2,0.5,0.5C-264-757.2-264.2-757-264.5-757z"
		/>
	<path d="M-265.5-759h-12c-0.3,0-0.5-0.2-0.5-0.5c0-0.3,0.2-0.5,0.5-0.5h12c0.3,0,0.5,0.2,0.5,0.5C-265-759.2-265.2-759-265.5-759z"
		/>
	<path d="M-269.5-747c-0.8,0-1.5-0.7-1.5-1.5c0-0.8,0.7-1.5,1.5-1.5c0.8,0,1.5,0.7,1.5,1.5C-268-747.7-268.7-747-269.5-747z
		 M-269.5-749c-0.3,0-0.5,0.2-0.5,0.5c0,0.3,0.2,0.5,0.5,0.5c0.3,0,0.5-0.2,0.5-0.5C-269-748.8-269.2-749-269.5-749z"/>
	<path d="M-266.5-752h-10c-0.3,0-0.5,0.2-0.5,0.5v7c0,0.3,0.2,0.5,0.5,0.5h10c0.3,0,0.5-0.2,0.5-0.5v-7
		C-266-751.8-266.2-752-266.5-752z M-276-746.3l1.3-1.6c0.1-0.1,0.2-0.1,0.3-0.1c0.1,0,0.2,0,0.3,0.1l2.6,2.9h-4.4V-746.3z
		 M-267-745h-3.3l-3.2-3.6c-0.3-0.3-0.7-0.5-1-0.5c-0.4,0-0.8,0.2-1,0.5l-0.5,0.6v-3.1h9V-745L-267-745z"/>
</g>
</svg>
