<?xml version="1.0" encoding="utf-8"?>
<!-- Generator: Adobe Illustrator 21.1.0, SVG Export Plug-In . SVG Version: 6.00 Build 0)  -->
<svg version="1.1" id="Layer_1" xmlns="http://www.w3.org/2000/svg" xmlns:xlink="http://www.w3.org/1999/xlink" x="0px" y="0px"
	 viewBox="0 0 36.2 52.7" style="enable-background:new 0 0 36.2 52.7;" xml:space="preserve">
<style type="text/css">
	.st0{fill:none;}
</style>
<path d="M34.8,11.1c-0.9-2.2-2.2-4.1-3.9-5.8c-1.7-1.7-3.6-3-5.8-3.9c-2.2-0.9-4.6-1.4-7-1.4c-2.4,0-4.8,0.5-7,1.4
	C8.9,2.3,7,3.6,5.3,5.3c-1.7,1.7-3,3.6-3.9,5.8c-0.9,2.2-1.4,4.6-1.4,7c0,1.9,0.6,4.3,1.7,7.4c1.1,3,2.8,6.6,5.1,10.8
	c3.5,6.6,7.5,12.8,9,15.2c0.5,0.8,1.3,1.2,2.3,1.2c0.9,0,1.8-0.5,2.3-1.2c1.5-2.4,5.5-8.6,9-15.2c2.2-4.2,3.9-7.8,5.1-10.8
	c1.2-3.1,1.7-5.5,1.7-7.4C36.2,15.7,35.7,13.3,34.8,11.1z M24.9,28.6L18.1,25l-6.8,3.6l1.3-7.6l-5.5-5.4l7.6-1.1l3.4-6.9l3.4,6.9
	l7.6,1.1L23.6,21L24.9,28.6z"/>
<polygon class="st0" points="23.6,21 24.9,28.6 18.1,25 11.3,28.6 12.6,21 7.1,15.7 14.7,14.6 18.1,7.7 21.5,14.6 29.1,15.7 "/>
</svg>
