<?xml version="1.0" encoding="utf-8"?>
<!-- Generator: Adobe Illustrator 21.1.0, SVG Export Plug-In . SVG Version: 6.00 Build 0)  -->
<svg version="1.1" id="Layer_1" xmlns="http://www.w3.org/2000/svg" xmlns:xlink="http://www.w3.org/1999/xlink" x="0px" y="0px"
	 viewBox="0 0 20 16" style="enable-background:new 0 0 20 16;" xml:space="preserve">
<g transform="translate(160 1840)">
	<path d="M-140.3-1837.6c-0.4-0.7-1.2-1.1-2.2-1.3c-0.9-0.1-2-0.1-3.2,0.1c-1.3-0.8-2.8-1.3-4.3-1.3c-2.1,0-4.1,0.8-5.7,2.3
		c-1.5,1.5-2.3,3.5-2.3,5.7c0,0.1,0,0.2,0,0.3c-0.8,0.9-1.4,1.8-1.7,2.7c-0.4,1-0.4,1.9,0,2.6c0.5,0.9,1.7,1.4,3.3,1.4
		c0.4,0,0.9,0,1.4-0.1c0.2,0,0.4-0.1,0.7-0.1c1.3,0.8,2.8,1.3,4.3,1.3c2.1,0,4.1-0.8,5.7-2.3c1.5-1.5,2.3-3.5,2.3-5.7
		c0-0.1,0-0.2,0-0.3c0.2-0.2,0.3-0.3,0.4-0.5C-140.1-1834.7-139.7-1836.4-140.3-1837.6L-140.3-1837.6z M-150-1839
		c3.6,0,6.6,2.8,7,6.3c-1.3,1.4-3.1,2.8-5.1,3.9c-2,1.2-4.1,2-6,2.4c-1.8-1.3-2.9-3.3-2.9-5.7C-157-1835.9-153.9-1839-150-1839
		L-150-1839z M-158.8-1826.9c-0.4-0.7-0.1-2,1-3.4c0.3,1.5,1.1,2.8,2.2,3.9c0.1,0.1,0.2,0.2,0.3,0.3
		C-157.2-1825.9-158.4-1826.2-158.8-1826.9L-158.8-1826.9z M-150-1825c-1,0-2-0.2-2.9-0.6c1.7-0.5,3.5-1.3,5.2-2.3
		c1.8-1,3.3-2.2,4.6-3.4C-143.4-1827.8-146.4-1825-150-1825z M-144.4-1837.7c-0.1-0.1-0.2-0.2-0.3-0.3c1.7-0.2,3,0.1,3.4,0.8
		c0.4,0.7,0.1,2-1,3.4C-142.5-1835.2-143.3-1836.6-144.4-1837.7z"/>
</g>
</svg>
