<?xml version="1.0" encoding="utf-8"?>
<!-- Generator: Adobe Illustrator 21.1.0, SVG Export Plug-In . SVG Version: 6.00 Build 0)  -->
<svg version="1.1" id="Layer_1" xmlns="http://www.w3.org/2000/svg" xmlns:xlink="http://www.w3.org/1999/xlink" x="0px" y="0px"
	 viewBox="0 0 17.9 20" style="enable-background:new 0 0 17.9 20;" xml:space="preserve">
<g transform="translate(520 1240)">
	<path d="M-502.2-1222.8c-0.2-0.2-0.5-0.2-0.7,0c-1.2,1.2-2.8,1.9-4.5,1.9c-3.4,0-6.2-2.7-6.5-6c2.2-0.3,4-2.2,4-4.5v-3.5h0.5
		c0.3,0,0.5-0.2,0.5-0.5c0-0.3-0.2-0.5-0.5-0.5h-2.5v-3.5c0-0.3-0.2-0.5-0.5-0.5c-0.3,0-0.5,0.2-0.5,0.5v3.5h-3v-3.5
		c0-0.3-0.2-0.5-0.5-0.5c-0.3,0-0.5,0.2-0.5,0.5v3.5h-2.5c-0.3,0-0.5,0.2-0.5,0.5c0,0.3,0.2,0.5,0.5,0.5h0.5v3.5
		c0,2.3,1.8,4.2,4,4.5c0.1,1.8,0.9,3.5,2.2,4.8c1.4,1.4,3.3,2.2,5.3,2.2c2,0,3.8-0.8,5.2-2.1
		C-502.1-1222.3-502.1-1222.7-502.2-1222.8z M-518-1231.5v-3.5h7v3.5c0,1.9-1.6,3.5-3.5,3.5C-516.4-1228-518-1229.6-518-1231.5z"/>
</g>
</svg>
