<?xml version="1.0" encoding="utf-8"?>
<!-- Generator: Adobe Illustrator 21.1.0, SVG Export Plug-In . SVG Version: 6.00 Build 0)  -->
<svg version="1.1" id="Layer_1" xmlns="http://www.w3.org/2000/svg" xmlns:xlink="http://www.w3.org/1999/xlink" x="0px" y="0px"
	 viewBox="0 0 16.5 17" style="enable-background:new 0 0 16.5 17;" xml:space="preserve">
<g transform="translate(0 440)">
	<path d="M15.6-428c-0.6-1.4-1.4-2.6-2.5-3.7c-1.1-1.1-2.3-1.9-3.7-2.5C8.1-434.7,6.6-435,5-435H1.7l4.1-4.1c0.2-0.2,0.2-0.5,0-0.7
		c-0.2-0.2-0.5-0.2-0.7,0l-5,5c-0.2,0.2-0.2,0.5,0,0.7l5,5c0.1,0.1,0.2,0.1,0.4,0.1c0.1,0,0.3,0,0.4-0.1c0.2-0.2,0.2-0.5,0-0.7
		L1.7-434H5c5.8,0,10.5,4.7,10.5,10.5c0,0.3,0.2,0.5,0.5,0.5c0.3,0,0.5-0.2,0.5-0.5C16.5-425.1,16.2-426.6,15.6-428L15.6-428z"/>
</g>
</svg>
