<?xml version="1.0" encoding="utf-8"?>
<!-- Generator: Adobe Illustrator 21.1.0, SVG Export Plug-In . SVG Version: 6.00 Build 0)  -->
<svg version="1.1" id="Layer_1" xmlns="http://www.w3.org/2000/svg" xmlns:xlink="http://www.w3.org/1999/xlink" x="0px" y="0px"
	 viewBox="0 0 20 20" style="enable-background:new 0 0 20 20;" xml:space="preserve">
<g transform="translate(40 1920)">
	<path d="M-33-1912v-1c0-0.6-0.4-1-1-1h-1c-0.6,0-1,0.4-1,1v3.5c0,0.3,0.2,0.5,0.5,0.5c0.3,0,0.5-0.2,0.5-0.5v-1.5h0.2l0.9,1.7
		c0.1,0.2,0.3,0.3,0.4,0.3c0.1,0,0.2,0,0.2-0.1c0.2-0.1,0.3-0.4,0.2-0.7l-0.7-1.3C-33.3-1911.2-33-1911.5-33-1912L-33-1912z
		 M-35-1913h1v1h-1V-1913z"/>
	<path d="M-31.5-1909c-0.3,0-0.5-0.2-0.5-0.5v-4c0-0.3,0.2-0.5,0.5-0.5c0.3,0,0.5,0.2,0.5,0.5v4C-31-1909.2-31.2-1909-31.5-1909z"/>
	<path d="M-29.5-1909c-0.3,0-0.5-0.2-0.5-0.5v-3.5c0-0.6,0.4-1,1-1h1c0.6,0,1,0.4,1,1v1c0,0.6-0.4,1-1,1h-1v1.5
		C-29-1909.2-29.2-1909-29.5-1909z M-29-1912h1v-1h-1V-1912z"/>
	<path d="M-22.5-1917.5c-1.6-1.6-3.7-2.5-6-2.5h-3c-2.3,0-4.4,0.9-6,2.5c-1.6,1.6-2.5,3.7-2.5,6v10c0,0.8,0.7,1.5,1.5,1.5h17
		c0.8,0,1.5-0.7,1.5-1.5v-10C-20-1913.8-20.9-1915.9-22.5-1917.5z M-39-1901.5v-10c0-4.1,3.4-7.5,7.5-7.5c4.1,0,7.5,3.4,7.5,7.5v10
		c0,0.3-0.2,0.5-0.5,0.5h-14C-38.8-1901-39-1901.2-39-1901.5z M-21-1901.5c0,0.3-0.2,0.5-0.5,0.5h-1.6c0.1-0.2,0.1-0.3,0.1-0.5v-10
		c0-2.3-0.9-4.4-2.5-6c-0.6-0.6-1.2-1-1.8-1.4c3.6,0.6,6.3,3.7,6.3,7.4V-1901.5z"/>
</g>
</svg>
