<?xml version="1.0" encoding="utf-8"?>
<!-- Generator: Adobe Illustrator 21.1.0, SVG Export Plug-In . SVG Version: 6.00 Build 0)  -->
<svg version="1.1" id="Layer_1" xmlns="http://www.w3.org/2000/svg" xmlns:xlink="http://www.w3.org/1999/xlink" x="0px" y="0px"
	 viewBox="0 0 17 19" style="enable-background:new 0 0 17 19;" xml:space="preserve">
<g transform="translate(0 2040)">
	<path d="M5.5-2021c-0.1,0-0.2,0-0.2-0.1c-0.2-0.1-0.3-0.4-0.2-0.7l2-4c0.1-0.2,0.4-0.3,0.7-0.2c0.2,0.1,0.3,0.4,0.2,0.7l-2,4
		C5.9-2021.1,5.7-2021,5.5-2021z"/>
	<path d="M0.5-2023c-0.1,0-0.2,0-0.3-0.1c-0.2-0.2-0.3-0.5-0.1-0.7l2-3c0.2-0.2,0.5-0.3,0.7-0.1c0.2,0.2,0.3,0.5,0.1,0.7l-2,3
		C0.8-2023.1,0.7-2023,0.5-2023L0.5-2023z"/>
	<path d="M17-2038.5c0-0.8-0.7-1.5-1.5-1.5c-0.8,0-1.5,0.6-1.5,1.4l-8.6,2.6c-0.3,0.1-0.4,0.4-0.3,0.6c0.1,0.2,0.3,0.4,0.5,0.4
		c0,0,0.1,0,0.1,0l8.6-2.6c0,0,0,0,0,0l-5.2,7.8c-0.2,0.2-0.1,0.5,0.1,0.7c0.1,0.1,0.2,0.1,0.3,0.1c0.2,0,0.3-0.1,0.4-0.2l4.5-6.8
		l-1.4,6.4c-0.1,0.3,0.1,0.5,0.4,0.6c0,0,0.1,0,0.1,0c0.2,0,0.4-0.2,0.5-0.4l1.7-7.6C16.4-2037.1,17-2037.7,17-2038.5L17-2038.5z
		 M15.5-2038c-0.3,0-0.5-0.2-0.5-0.5c0-0.3,0.2-0.5,0.5-0.5c0.3,0,0.5,0.2,0.5,0.5C16-2038.2,15.8-2038,15.5-2038z"/>
	<path d="M10.6-2035.5c0.2,0.2,0.4,0.3,0.5,0.5L10.6-2035.5z"/>
	<path d="M11.2-2034.5c-0.1,0-0.2,0-0.3-0.1c-0.2-0.2-0.4-0.3-0.5-0.5c-0.2-0.2-0.2-0.5,0-0.7c0.2-0.2,0.5-0.2,0.7,0
		c0.2,0.2,0.4,0.3,0.5,0.5c0.2,0.2,0.2,0.5,0,0.7C11.4-2034.6,11.3-2034.5,11.2-2034.5L11.2-2034.5z"/>
	<path d="M15.9-2029.7c-0.1-0.2-0.4-0.3-0.7-0.2c-0.2,0.1-0.3,0.4-0.2,0.7c1,1.8,1.2,3.3,0.6,3.9c-0.5,0.5-1.8,0.4-3.3-0.3
		c-1.8-0.8-3.7-2.3-5.6-4.1c-1.8-1.8-3.3-3.8-4.1-5.6c-0.7-1.6-0.8-2.8-0.3-3.3c0.4-0.4,1.2-0.3,1.7-0.2c0.9,0.2,2,0.7,3.2,1.4
		c0.2,0.1,0.5,0.1,0.7-0.2c0.1-0.2,0.1-0.5-0.2-0.7c-1.3-0.8-2.5-1.3-3.5-1.5c-1.5-0.3-2.2,0.1-2.6,0.5c-0.7,0.7-1.2,1.6-1.4,2.6
		c-0.2,1-0.2,2.1,0,3.2c0.4,2.4,1.7,4.7,3.7,6.7c0.4,0.4,0.9,0.8,1.4,1.2c0.1,0.1,0.2,0.1,0.3,0.1c0.1,0,0.3-0.1,0.4-0.2
		c0.2-0.2,0.1-0.5-0.1-0.7c-0.4-0.3-0.9-0.7-1.3-1.1c-1.8-1.8-3-4-3.4-6.1c-0.2-1-0.2-2,0-2.8c0.1,0.5,0.3,1,0.6,1.6
		c0.9,1.9,2.4,4,4.3,5.9s4,3.4,5.9,4.3c0.6,0.3,1.1,0.5,1.6,0.6c-1.3,0.3-2.8,0.2-4.4-0.4c-0.3-0.1-0.5,0-0.6,0.3
		c-0.1,0.3,0,0.5,0.3,0.6c0.6,0.2,1.2,0.4,1.8,0.5l0.4,1.8c0.1,0.2,0.3,0.4,0.5,0.4c0,0,0.1,0,0.1,0c0.3-0.1,0.4-0.3,0.4-0.6
		l-0.3-1.4c0.2,0,0.3,0,0.5,0c0.3,0,0.6,0,0.9-0.1c1.4-0.2,2.5-0.7,3.4-1.5C17.3-2025.6,17.2-2027.4,15.9-2029.7L15.9-2029.7z"/>
</g>
</svg>
