<?xml version="1.0" encoding="utf-8"?>
<!-- Generator: Adobe Illustrator 21.1.0, SVG Export Plug-In . SVG Version: 6.00 Build 0)  -->
<svg version="1.1" id="Layer_1" xmlns="http://www.w3.org/2000/svg" xmlns:xlink="http://www.w3.org/1999/xlink" x="0px" y="0px"
	 viewBox="0 0 20 16" style="enable-background:new 0 0 20 16;" xml:space="preserve">
<g transform="translate(40 2280)">
	<path d="M-21.5-2264h-17c-0.8,0-1.5-0.7-1.5-1.5v-13c0-0.8,0.7-1.5,1.5-1.5h11c0.3,0,0.5,0.2,0.5,0.5s-0.2,0.5-0.5,0.5h-11
		c-0.3,0-0.5,0.2-0.5,0.5v13c0,0.3,0.2,0.5,0.5,0.5h17c0.3,0,0.5-0.2,0.5-0.5v-7c0-0.3,0.2-0.5,0.5-0.5c0.3,0,0.5,0.2,0.5,0.5v7
		C-20-2264.7-20.7-2264-21.5-2264z"/>
	<path d="M-20.6-2275.9l-4-4c-0.2-0.2-0.5-0.2-0.7,0c-0.2,0.2-0.2,0.5,0,0.7l3.1,3.1h-6.3c-1.7,0-3.3,0.6-4.6,1.7
		c-1.2,1.1-1.9,2.6-1.9,4.3v0.5c0,0.3,0.2,0.5,0.5,0.5c0.3,0,0.5-0.2,0.5-0.5v-0.5c0-2.8,2.5-5,5.5-5h6.3l-3.1,3.1
		c-0.2,0.2-0.2,0.5,0,0.7c0.1,0.1,0.2,0.1,0.4,0.1c0.1,0,0.3,0,0.4-0.1l4-4C-20.5-2275.3-20.5-2275.7-20.6-2275.9L-20.6-2275.9z"/>
</g>
</svg>
