<?xml version="1.0" encoding="utf-8"?>
<!-- Generator: Adobe Illustrator 21.1.0, SVG Export Plug-In . SVG Version: 6.00 Build 0)  -->
<svg version="1.1" id="Layer_1" xmlns="http://www.w3.org/2000/svg" xmlns:xlink="http://www.w3.org/1999/xlink" x="0px" y="0px"
	 viewBox="0 0 19 20" style="enable-background:new 0 0 19 20;" xml:space="preserve">
<g transform="translate(400 1080)">
	<path d="M-381.2-1074.9l-3-2c-0.1-0.1-0.2-0.1-0.3-0.1h-4.5v-1.5c0-0.8-0.7-1.5-1.5-1.5h-2c-0.8,0-1.5,0.7-1.5,1.5v1.5h-5.5
		c-0.3,0-0.5,0.2-0.5,0.5v4c0,0.3,0.2,0.5,0.5,0.5h5.5v1h-1.5c-0.1,0-0.2,0-0.3,0.1l-3,2c-0.1,0.1-0.2,0.2-0.2,0.4s0.1,0.3,0.2,0.4
		l3,2c0.1,0.1,0.2,0.1,0.3,0.1h1.5v5.5c0,0.3,0.2,0.5,0.5,0.5h4c0.3,0,0.5-0.2,0.5-0.5v-5.5h3.5c0.3,0,0.5-0.2,0.5-0.5v-4
		c0-0.3-0.2-0.5-0.5-0.5h-3.5v-1h4.5c0.1,0,0.2,0,0.3-0.1l3-2c0.1-0.1,0.2-0.2,0.2-0.4S-381.1-1074.8-381.2-1074.9z M-393-1078.5
		c0-0.3,0.2-0.5,0.5-0.5h2c0.3,0,0.5,0.2,0.5,0.5v1.5h-3V-1078.5z M-390-1061h-3v-5h3V-1061z M-386-1067h-9.3l-2.2-1.5l2.2-1.5h9.3
		V-1067z M-390-1071h-3v-1h3V-1071z M-384.7-1073H-399v-3h14.3l2.2,1.5L-384.7-1073z"/>
</g>
</svg>
