<?xml version="1.0" encoding="utf-8"?>
<!-- Generator: Adobe Illustrator 21.1.0, SVG Export Plug-In . SVG Version: 6.00 Build 0)  -->
<svg version="1.1" id="Layer_1" xmlns="http://www.w3.org/2000/svg" xmlns:xlink="http://www.w3.org/1999/xlink" x="0px" y="0px"
	 viewBox="0 0 12 20" style="enable-background:new 0 0 12 20;" xml:space="preserve">
<g transform="translate(80 1200)">
	<path d="M-73.5-1182h-1c-0.3,0-0.5-0.2-0.5-0.5c0-0.3,0.2-0.5,0.5-0.5h1c0.3,0,0.5,0.2,0.5,0.5C-73-1182.2-73.2-1182-73.5-1182z"/>
	<path d="M-69.5-1180h-9c-0.8,0-1.5-0.7-1.5-1.5v-17c0-0.8,0.7-1.5,1.5-1.5h9c0.8,0,1.5,0.7,1.5,1.5v17
		C-68-1180.7-68.7-1180-69.5-1180z M-78.5-1199c-0.3,0-0.5,0.2-0.5,0.5v17c0,0.3,0.2,0.5,0.5,0.5h9c0.3,0,0.5-0.2,0.5-0.5v-17
		c0-0.3-0.2-0.5-0.5-0.5H-78.5z"/>
	<path d="M-70.5-1184h-7c-0.3,0-0.5-0.2-0.5-0.5v-13c0-0.3,0.2-0.5,0.5-0.5h7c0.3,0,0.5,0.2,0.5,0.5v13
		C-70-1184.2-70.2-1184-70.5-1184z M-77-1185h6v-12h-6V-1185z"/>
</g>
</svg>
