<?xml version="1.0" encoding="utf-8"?>
<!-- Generator: Adobe Illustrator 21.1.0, SVG Export Plug-In . SVG Version: 6.00 Build 0)  -->
<svg version="1.1" id="Layer_1" xmlns="http://www.w3.org/2000/svg" xmlns:xlink="http://www.w3.org/1999/xlink" x="0px" y="0px"
	 viewBox="0 0 20 20" style="enable-background:new 0 0 20 20;" xml:space="preserve">
<g transform="translate(440 2680)">
	<path d="M-431.1-2665.4c-0.2-0.2-0.5-0.2-0.7,0l-3.1,3.1v-17.3c0-0.3-0.2-0.5-0.5-0.5c-0.3,0-0.5,0.2-0.5,0.5v17.3l-3.1-3.1
		c-0.2-0.2-0.5-0.2-0.7,0c-0.2,0.2-0.2,0.5,0,0.7l4,4c0.1,0.1,0.2,0.1,0.4,0.1s0.3,0,0.4-0.1l4-4
		C-431-2664.8-431-2665.2-431.1-2665.4L-431.1-2665.4z"/>
	<path d="M-420-2672.7l-3-7c-0.1-0.2-0.3-0.3-0.5-0.3c-0.2,0-0.4,0.1-0.5,0.3l-3,7c-0.1,0.3,0,0.5,0.3,0.7c0.3,0.1,0.5,0,0.7-0.3
		l1.2-2.7h2.8l1.2,2.7c0.1,0.2,0.3,0.3,0.5,0.3c0.1,0,0.1,0,0.2,0C-420-2672.1-419.9-2672.4-420-2672.7L-420-2672.7z M-424.5-2676
		l1-2.2l1,2.2H-424.5z"/>
	<path d="M-421.5-2660h-4c-0.2,0-0.3-0.1-0.4-0.2c-0.1-0.2-0.1-0.3,0-0.5l3.6-6.3h-3.1c-0.3,0-0.5-0.2-0.5-0.5s0.2-0.5,0.5-0.5h4
		c0.2,0,0.3,0.1,0.4,0.2c0.1,0.2,0.1,0.3,0,0.5l-3.6,6.3h3.1c0.3,0,0.5,0.2,0.5,0.5S-421.2-2660-421.5-2660z"/>
</g>
</svg>
