<?xml version="1.0" encoding="utf-8"?>
<!-- Generator: Adobe Illustrator 21.1.0, SVG Export Plug-In . SVG Version: 6.00 Build 0)  -->
<svg version="1.1" id="Layer_1" xmlns="http://www.w3.org/2000/svg" xmlns:xlink="http://www.w3.org/1999/xlink" x="0px" y="0px"
	 viewBox="0 0 18 17" style="enable-background:new 0 0 18 17;" xml:space="preserve">
<g transform="translate(40 400)">
	<path d="M-25.5-383c-0.1,0-0.2,0-0.2-0.1l-5.3-2.9l-5.3,2.9c-0.2,0.1-0.4,0.1-0.5,0c-0.2-0.1-0.2-0.3-0.2-0.5l1-5.7l-3.8-3.8
		c-0.1-0.1-0.2-0.3-0.1-0.5c0.1-0.2,0.2-0.3,0.4-0.3l5.7-1l2.4-4.8c0.1-0.2,0.3-0.3,0.4-0.3c0.2,0,0.4,0.1,0.4,0.3l2.4,4.8l5.7,1
		c0.2,0,0.3,0.2,0.4,0.3c0.1,0.2,0,0.4-0.1,0.5l-3.8,3.8l1,5.7c0,0.2,0,0.4-0.2,0.5C-25.3-383-25.4-383-25.5-383z M-31-387
		c0.1,0,0.2,0,0.2,0.1l4.6,2.5l-0.8-5c0-0.2,0-0.3,0.1-0.4l3.3-3.3l-5-0.8c-0.2,0-0.3-0.1-0.4-0.3l-2.1-4.1l-2.1,4.1
		c-0.1,0.1-0.2,0.2-0.4,0.3l-5,0.8l3.3,3.3c0.1,0.1,0.2,0.3,0.1,0.4l-0.8,5l4.6-2.5C-31.2-387-31.1-387-31-387z"/>
</g>
</svg>
