<?xml version="1.0" encoding="utf-8"?>
<!-- Generator: Adobe Illustrator 21.1.0, SVG Export Plug-In . SVG Version: 6.00 Build 0)  -->
<svg version="1.1" id="Layer_1" xmlns="http://www.w3.org/2000/svg" xmlns:xlink="http://www.w3.org/1999/xlink" x="0px" y="0px"
	 viewBox="0 0 19 13" style="enable-background:new 0 0 19 13;" xml:space="preserve">
<g transform="translate(320 600)">
	<path d="M-301.3-597l-9-3c-0.1,0-0.2,0-0.3,0l-9,3c-0.2,0.1-0.3,0.3-0.3,0.5c0,0.2,0.1,0.4,0.3,0.5l2.7,0.9v2.6
		c0,0.1,0.1,0.3,0.1,0.4c0.1,0.1,2.2,2.1,6.4,2.1c1.5,0,2.9-0.3,4.2-0.8c0.3-0.1,0.4-0.4,0.3-0.7c-0.1-0.3-0.4-0.4-0.7-0.3
		c-1.1,0.5-2.4,0.7-3.8,0.7c-1.9,0-3.4-0.5-4.2-0.9c-0.6-0.3-1.1-0.6-1.3-0.8v-2.1l5.3,1.8c0.1,0,0.1,0,0.2,0c0.1,0,0.1,0,0.2,0
		l5.3-1.8v0.9c-0.6,0.2-1,0.8-1,1.4c0,0.6,0.4,1.1,0.9,1.4l-0.9,3.5c0,0.1,0,0.3,0.1,0.4c0.1,0.1,0.2,0.2,0.4,0.2h2
		c0.2,0,0.3-0.1,0.4-0.2c0.1-0.1,0.1-0.3,0.1-0.4l-0.9-3.5c0.5-0.2,0.9-0.8,0.9-1.4c0-0.7-0.4-1.2-1-1.4v-1.2l2.7-0.9
		c0.2-0.1,0.3-0.3,0.3-0.5C-301-596.7-301.1-596.9-301.3-597L-301.3-597z M-304.5-593c0.3,0,0.5,0.2,0.5,0.5c0,0.3-0.2,0.5-0.5,0.5
		c-0.3,0-0.5-0.2-0.5-0.5C-305-592.8-304.8-593-304.5-593z M-304.9-588l0.4-1.4l0.4,1.4H-304.9L-304.9-588z M-304.5-596l-5.9-1
		c-0.3,0-0.5,0.1-0.6,0.4c0,0.3,0.1,0.5,0.4,0.6l4,0.7l-3.9,1.3l-7.4-2.5l7.4-2.5l7.4,2.5L-304.5-596L-304.5-596z"/>
</g>
</svg>
