<?xml version="1.0" encoding="utf-8"?>
<!-- Generator: Adobe Illustrator 21.1.0, SVG Export Plug-In . SVG Version: 6.00 Build 0)  -->
<svg version="1.1" id="Layer_1" xmlns="http://www.w3.org/2000/svg" xmlns:xlink="http://www.w3.org/1999/xlink" x="0px" y="0px"
	 viewBox="0 0 20 20" style="enable-background:new 0 0 20 20;" xml:space="preserve">
<g transform="translate(0 1600)">
	<path d="M17-1593.6c-0.1-1.7-0.9-3.3-2.1-4.4c-1.3-1.3-3-2-4.9-2c-1.9,0-3.6,0.7-5,2c-1.2,1.2-1.9,2.7-2,4.4c-1.8,0.8-3,2.6-3,4.6
		c0,2.8,2.2,5,5,5c0.9,0,1.7-0.2,2.5-0.6c0.1-0.1,0.2-0.1,0.3-0.2c0.6,1.6,0.1,2.4-0.3,3.1c-0.2,0.4-0.5,0.8-0.5,1.2
		c0,0.3,0.2,0.5,0.5,0.5h5c0.3,0,0.5-0.2,0.5-0.5c0-0.4-0.2-0.8-0.5-1.2c-0.4-0.7-0.9-1.6-0.3-3.1c0.8,0.5,1.8,0.8,2.8,0.8
		c2.8,0,5-2.2,5-5C20-1591.1,18.8-1592.8,17-1593.6L17-1593.6z M8.2-1581c0-0.1,0.1-0.1,0.1-0.2c0.5-0.8,1.3-2.1,0.2-4.3
		c0.2-0.2,0.3-0.4,0.5-0.6c0.3,0,0.6,0.1,1,0.1c0.3,0,0.6,0,1-0.1c0.1,0.2,0.3,0.4,0.5,0.6c-1,2.2-0.3,3.5,0.2,4.3
		c0,0.1,0.1,0.1,0.1,0.2H8.2z M15-1585c-1.4,0-2.7-0.7-3.4-1.9c0,0,0,0,0,0c0,0,0,0,0,0c0,0,0,0,0,0c0,0,0,0,0,0c0,0,0,0,0,0
		c0,0,0,0,0,0c-0.1-0.1-0.2-0.1-0.2-0.1c0,0,0,0,0,0c0,0,0,0,0,0c0,0,0,0,0,0c0,0,0,0,0,0c0,0,0,0,0,0c0,0,0,0,0,0c0,0,0,0,0,0
		c0,0,0,0,0,0c0,0,0,0,0,0c-0.7,0.1-1.4,0.1-2.1,0c-0.2-0.1-0.5,0-0.6,0.2c0,0,0,0,0,0c0,0,0,0,0,0c-0.7,1.2-2,1.9-3.4,1.9
		c-2.2,0-4-1.8-4-4c0-1.5,0.8-2.8,2-3.5c0,0.4,0.1,0.7,0.2,1.1c0.1,0.2,0.3,0.4,0.5,0.4c0,0,0.1,0,0.1,0c0.3-0.1,0.4-0.3,0.4-0.6
		c-0.1-0.5-0.2-0.9-0.2-1.4c0-3.3,2.7-6,6-6c3,0,5.5,2.2,5.9,5.1c-0.3-0.1-0.6-0.1-0.9-0.1c-0.2,0-0.4,0-0.6,0
		c-0.3,0-0.5,0.3-0.4,0.6c0,0.3,0.3,0.5,0.6,0.4c0.1,0,0.3,0,0.4,0c2.2,0,4,1.8,4,4S17.2-1585,15-1585L15-1585z"/>
</g>
</svg>
