<?xml version="1.0" encoding="utf-8"?>
<!-- Generator: Adobe Illustrator 21.1.0, SVG Export Plug-In . SVG Version: 6.00 Build 0)  -->
<svg version="1.1" id="Layer_1" xmlns="http://www.w3.org/2000/svg" xmlns:xlink="http://www.w3.org/1999/xlink" x="0px" y="0px"
	 viewBox="0 0 20 19" style="enable-background:new 0 0 20 19;" xml:space="preserve">
<g transform="translate(120 1240)">
	<path d="M-101.5-1236h-7.2l3.5-3.1c0.2-0.2,0.2-0.5,0-0.7s-0.5-0.2-0.7,0l-4.2,3.7l-3.2-2.7c-0.2-0.2-0.5-0.2-0.7,0.1
		c-0.2,0.2-0.2,0.5,0.1,0.7l2.5,2.1h-7.1c-0.8,0-1.5,0.7-1.5,1.5v12c0,0.8,0.7,1.5,1.5,1.5h17c0.8,0,1.5-0.7,1.5-1.5v-12
		C-100-1235.3-100.7-1236-101.5-1236L-101.5-1236z M-101-1222.5c0,0.3-0.2,0.5-0.5,0.5h-17c-0.3,0-0.5-0.2-0.5-0.5v-12
		c0-0.3,0.2-0.5,0.5-0.5h17c0.3,0,0.5,0.2,0.5,0.5V-1222.5z"/>
	<path d="M-107.5-1223h-9c-0.8,0-1.5-0.7-1.5-1.5v-8c0-0.8,0.7-1.5,1.5-1.5h9c0.8,0,1.5,0.7,1.5,1.5v8
		C-106-1223.7-106.7-1223-107.5-1223z M-116.5-1233c-0.3,0-0.5,0.2-0.5,0.5v8c0,0.3,0.2,0.5,0.5,0.5h9c0.3,0,0.5-0.2,0.5-0.5v-8
		c0-0.3-0.2-0.5-0.5-0.5H-116.5z"/>
	<path d="M-103.5-1230c-0.8,0-1.5-0.7-1.5-1.5s0.7-1.5,1.5-1.5c0.8,0,1.5,0.7,1.5,1.5S-102.7-1230-103.5-1230z M-103.5-1232
		c-0.3,0-0.5,0.2-0.5,0.5s0.2,0.5,0.5,0.5c0.3,0,0.5-0.2,0.5-0.5S-103.2-1232-103.5-1232z"/>
	<path d="M-103.5-1226c-0.8,0-1.5-0.7-1.5-1.5s0.7-1.5,1.5-1.5c0.8,0,1.5,0.7,1.5,1.5S-102.7-1226-103.5-1226z M-103.5-1228
		c-0.3,0-0.5,0.2-0.5,0.5s0.2,0.5,0.5,0.5c0.3,0,0.5-0.2,0.5-0.5S-103.2-1228-103.5-1228z"/>
</g>
</svg>
