<?xml version="1.0" encoding="utf-8"?>
<!-- Generator: Adobe Illustrator 21.1.0, SVG Export Plug-In . SVG Version: 6.00 Build 0)  -->
<svg version="1.1" id="Layer_1" xmlns="http://www.w3.org/2000/svg" xmlns:xlink="http://www.w3.org/1999/xlink" x="0px" y="0px"
	 viewBox="0 0 17 5" style="enable-background:new 0 0 17 5;" xml:space="preserve">
<g transform="translate(440 2040)">
	<path d="M-423.1-2035.8c-1-1.3-2.2-2.3-3.6-3.1c-1.5-0.8-3.1-1.1-4.8-1.1c-2.8,0-5.5,1.1-7.5,3.2v-2.7c0-0.3-0.2-0.5-0.5-0.5
		c-0.3,0-0.5,0.2-0.5,0.5v4c0,0.3,0.2,0.5,0.5,0.5h4c0.3,0,0.5-0.2,0.5-0.5c0-0.3-0.2-0.5-0.5-0.5h-2.9c1.8-1.9,4.3-3,6.9-3
		c3,0,5.8,1.4,7.6,3.8c0.1,0.1,0.2,0.2,0.4,0.2c0.1,0,0.2,0,0.3-0.1C-423-2035.3-422.9-2035.6-423.1-2035.8L-423.1-2035.8z"/>
</g>
</svg>
