<?xml version="1.0" encoding="utf-8"?>
<!-- Generator: Adobe Illustrator 21.1.0, SVG Export Plug-In . SVG Version: 6.00 Build 0)  -->
<svg version="1.0" id="Layer_1" xmlns="http://www.w3.org/2000/svg" xmlns:xlink="http://www.w3.org/1999/xlink" x="0px" y="0px"
	 viewBox="0 0 64 64" style="enable-background:new 0 0 64 64;" xml:space="preserve">
<path class="st0" d="M16.7,39.8h0.7c2.9,4.7,8.1,7.9,14.1,7.9c5.9,0,11.1-3.2,14.1-7.9h1.1c2,0,3.6-1.6,3.6-3.6V25.4
	c0-2-1.6-3.6-3.6-3.6h-1.4c-3-4.4-8-7.3-13.7-7.3c-5.7,0-10.7,2.9-13.7,7.3h-1.1c-2,0-3.6,1.6-3.6,3.6v10.8
	C13.1,38.2,14.7,39.8,16.7,39.8z M16.7,24.7h29.9c0.4,0,0.7,0.3,0.7,0.7v10.8c0,0.4-0.3,0.7-0.7,0.7h-9c-0.3,0-0.6-0.2-0.7-0.6
	l-1.2-3.7c-0.5-1.9-2.1-3.2-4-3.2s-3.6,1.3-4,3.1l-1.2,3.9C26.3,36.7,26,37,25.7,37h-9c-0.4,0-0.7-0.3-0.7-0.7V25.4
	C16,25,16.3,24.7,16.7,24.7z M31.5,44.8c-4.3,0-8.1-2-10.6-5h4.8c1.6,0,3.1-1.1,3.4-2.6l1.2-3.9c0.1-0.6,0.7-1,1.3-1
	c0.6,0,1.1,0.4,1.3,1.1l1.2,3.7c0.4,1.6,1.8,2.7,3.5,2.7H42C39.5,42.9,35.7,44.8,31.5,44.8z M31.5,17.5c4,0,7.5,1.7,10,4.4H21.4
	C23.9,19.2,27.5,17.5,31.5,17.5z"/>
</svg>
