<?xml version="1.0" encoding="utf-8"?>
<!-- Generator: Adobe Illustrator 21.1.0, SVG Export Plug-In . SVG Version: 6.00 Build 0)  -->
<svg version="1.1" id="Layer_1" xmlns="http://www.w3.org/2000/svg" xmlns:xlink="http://www.w3.org/1999/xlink" x="0px" y="0px"
	 viewBox="0 0 20 9" style="enable-background:new 0 0 20 9;" xml:space="preserve">
<g transform="translate(240 680)">
	<path d="M-221.5-680h-17c-0.8,0-1.5,0.7-1.5,1.5v6c0,0.8,0.7,1.5,1.5,1.5h5.5c0.8,0,1.6-0.5,1.9-1.2l1.1-2.6l1.1,2.6
		c0.3,0.7,1.2,1.2,1.9,1.2h5.5c0.8,0,1.5-0.7,1.5-1.5v-6C-220-679.3-220.7-680-221.5-680z M-231.1-677.3l-2,4c0,0.2-0.2,0.3-0.4,0.3
		h-4c-0.3,0-0.5-0.2-0.5-0.5v-4c0-0.3,0.2-0.5,0.5-0.5h6c0.2,0,0.3,0.1,0.4,0.2C-231-677.7-231-677.5-231.1-677.3z M-222-673.5
		c0,0.3-0.2,0.5-0.5,0.5h-4c-0.2,0-0.4-0.1-0.4-0.3l-2-4c-0.1-0.2-0.1-0.3,0-0.5c0.1-0.1,0.3-0.2,0.4-0.2h6c0.3,0,0.5,0.2,0.5,0.5
		V-673.5z"/>
</g>
</svg>
