<?xml version="1.0" encoding="utf-8"?>
<!-- Generator: Adobe Illustrator 21.1.0, SVG Export Plug-In . SVG Version: 6.00 Build 0)  -->
<svg version="1.1" id="Layer_1" xmlns="http://www.w3.org/2000/svg" xmlns:xlink="http://www.w3.org/1999/xlink" x="0px" y="0px"
	 viewBox="0 0 15 19" style="enable-background:new 0 0 15 19;" xml:space="preserve">
<g transform="translate(120 2120)">
	<path d="M-106.5-2112h-0.7c-0.3-1.3-1-2.4-1.9-3.2l-0.8-3.4c-0.2-0.8-0.9-1.4-1.7-1.4h-4c-0.8,0-1.5,0.6-1.7,1.4l-0.8,3.4
		c-1.3,1.2-2,2.9-2,4.7s0.8,3.5,2,4.7l0.8,3.4c0.2,0.8,0.9,1.4,1.7,1.4h4c0.8,0,1.5-0.6,1.7-1.4l0.8-3.4c0.9-0.9,1.6-2,1.9-3.2h0.7
		c0.8,0,1.5-0.7,1.5-1.5S-105.7-2112-106.5-2112z M-116.2-2118.4c0.1-0.3,0.4-0.6,0.7-0.6h4c0.3,0,0.7,0.3,0.7,0.6l0.5,2.3
		c-1-0.5-2.1-0.9-3.2-0.9c-1.2,0-2.3,0.3-3.2,0.9L-116.2-2118.4z M-110.8-2102.6c-0.1,0.3-0.4,0.6-0.7,0.6h-4
		c-0.3,0-0.7-0.3-0.7-0.6l-0.5-2.3c1,0.5,2.1,0.9,3.2,0.9c1.2,0,2.3-0.3,3.2-0.9L-110.8-2102.6z M-113.5-2105c-3,0-5.5-2.5-5.5-5.5
		s2.5-5.5,5.5-5.5c3,0,5.5,2.5,5.5,5.5S-110.5-2105-113.5-2105z M-106.5-2110h-0.5c0-0.2,0-0.3,0-0.5s0-0.3,0-0.5h0.5
		c0.3,0,0.5,0.2,0.5,0.5S-106.2-2110-106.5-2110z"/>
	<path d="M-113.5-2110c-0.1,0-0.2,0-0.2-0.1l-2-1c-0.2-0.1-0.3-0.4-0.2-0.7c0.1-0.2,0.4-0.3,0.7-0.2l1.7,0.9l2.8-1.8
		c0.2-0.2,0.5-0.1,0.7,0.1c0.2,0.2,0.1,0.5-0.1,0.7l-3,2C-113.3-2110-113.4-2110-113.5-2110L-113.5-2110z"/>
</g>
</svg>
