<?xml version="1.0" encoding="utf-8"?>
<!-- Generator: Adobe Illustrator 21.1.0, SVG Export Plug-In . SVG Version: 6.00 Build 0)  -->
<svg version="1.1" id="Layer_1" xmlns="http://www.w3.org/2000/svg" xmlns:xlink="http://www.w3.org/1999/xlink" x="0px" y="0px"
	 viewBox="0 0 12 20" style="enable-background:new 0 0 12 20;" xml:space="preserve">
<g transform="translate(440 120)">
	<path d="M-434-100c-1.6,0-3.1-0.7-4.2-1.8c-1.1-1.2-1.8-2.9-1.8-4.7c0-2.9,1.3-5,2.7-7.3c1.1-1.7,2.2-3.5,2.8-5.9
		c0.1-0.2,0.3-0.4,0.5-0.4c0.2,0,0.4,0.2,0.5,0.4c0.6,2.3,1.7,4.1,2.8,5.9c1.4,2.2,2.7,4.3,2.7,7.3c0,1.8-0.6,3.5-1.7,4.7
		C-430.9-100.7-432.4-100-434-100L-434-100z M-434-117.9c-0.7,1.8-1.6,3.2-2.5,4.6c-1.4,2.2-2.5,4.1-2.5,6.8c0,3.1,2.1,5.5,5,5.5
		c2.8,0,5-2.4,5-5.5c0-2.7-1.2-4.6-2.5-6.7C-432.4-114.7-433.3-116.1-434-117.9z"/>
	<path d="M-434-103c-0.8,0-1.5-0.3-2-0.9c-0.6-0.6-0.9-1.6-0.9-2.6c0-0.3,0.2-0.5,0.5-0.5c0.3,0,0.5,0.2,0.5,0.5
		c0,0.8,0.2,1.5,0.7,1.9c0.4,0.4,0.8,0.6,1.3,0.6c0.1,0,0.3,0,0.4,0c0.3-0.1,0.5,0.1,0.6,0.4c0.1,0.3-0.1,0.5-0.4,0.6
		C-433.6-103-433.8-103-434-103L-434-103z"/>
</g>
</svg>
