<?xml version="1.0" encoding="utf-8"?>
<!-- Generator: Adobe Illustrator 21.1.0, SVG Export Plug-In . SVG Version: 6.00 Build 0)  -->
<svg version="1.1" id="Layer_1" xmlns="http://www.w3.org/2000/svg" xmlns:xlink="http://www.w3.org/1999/xlink" x="0px" y="0px"
	 viewBox="0 0 17 19" style="enable-background:new 0 0 17 19;" xml:space="preserve">
<g transform="translate(160 1800)">
	<path d="M-143.1-1787.9c-0.2-0.2-0.5-0.2-0.7,0l-0.7,0.7l-2.7-2.7c0,0,0,0,0,0c0,0,0,0,0,0c0,0,0,0,0,0c0,0,0,0,0,0c0,0,0,0,0,0
		c0,0,0,0,0,0c0,0,0,0,0,0c0,0,0,0,0,0c0,0,0,0,0,0c0,0,0,0,0,0c0,0,0,0,0,0c0,0,0,0,0,0c0,0,0,0,0,0c0,0,0,0,0,0c0,0,0,0,0,0
		c0,0,0,0,0,0c0,0,0,0,0,0c0,0,0,0,0,0c0,0,0,0,0,0c0,0,0,0,0,0c0,0,0,0,0,0c0,0,0,0,0,0l-3.9,1c-0.1,0-0.2,0-0.3,0
		c-0.1,0-0.1-0.1-0.1-0.2v-1.7h3.5c0.3,0,0.5-0.2,0.5-0.5s-0.2-0.5-0.5-0.5h-3.5v-3c0.2,0,0.3,0,0.5,0c1.4,0,2.5-1.1,2.5-2.5
		s-1.1-2.5-2.5-2.5c-1.4,0-2.5,1.1-2.5,2.5c0,0.8,0.4,1.5,1,2v6.2c0,0.4,0.2,0.8,0.5,1c0.2,0.2,0.5,0.3,0.8,0.3c0.1,0,0.2,0,0.3,0
		l3.7-0.9l2.9,2.8c0.1,0.1,0.2,0.1,0.3,0.1c0.1,0,0.3,0,0.4-0.1l1-1C-143-1787.3-143-1787.7-143.1-1787.9L-143.1-1787.9z
		 M-151.5-1799c0.8,0,1.5,0.7,1.5,1.5s-0.7,1.5-1.5,1.5c-0.8,0-1.5-0.7-1.5-1.5S-152.3-1799-151.5-1799z"/>
	<path d="M-153.5-1781c-3.6,0-6.5-2.9-6.5-6.5c0-1.5,0.6-3,1.6-4.2c1-1.2,2.4-1.9,3.9-2.2c0.3,0,0.5,0.1,0.6,0.4s-0.1,0.5-0.4,0.6
		c-2.7,0.4-4.6,2.7-4.6,5.4c0,3,2.5,5.5,5.5,5.5c2.7,0,5-1.9,5.4-4.6c0-0.3,0.3-0.5,0.6-0.4c0.3,0,0.5,0.3,0.4,0.6
		c-0.3,1.5-1,2.9-2.2,3.9C-150.5-1781.6-152-1781-153.5-1781z"/>
</g>
</svg>
