<?xml version="1.0" encoding="utf-8"?>
<!-- Generator: Adobe Illustrator 21.1.0, SVG Export Plug-In . SVG Version: 6.00 Build 0)  -->
<svg version="1.1" id="Layer_1" xmlns="http://www.w3.org/2000/svg" xmlns:xlink="http://www.w3.org/1999/xlink" x="0px" y="0px"
	 viewBox="0 0 16.5 12" style="enable-background:new 0 0 16.5 12;" xml:space="preserve">
<g transform="translate(360 1960)">
	<path d="M-351.8-1948c-0.8,0-1.5-0.7-1.5-1.5s0.7-1.5,1.5-1.5c0.8,0,1.5,0.7,1.5,1.5S-350.9-1948-351.8-1948z M-351.8-1950
		c-0.3,0-0.5,0.2-0.5,0.5s0.2,0.5,0.5,0.5c0.3,0,0.5-0.2,0.5-0.5S-351.5-1950-351.8-1950z"/>
	<path d="M-355.2-1951c-0.1,0-0.2,0-0.3-0.1c-0.2-0.1-0.3-0.4-0.2-0.7c0.4-0.7,0.9-1.2,1.6-1.6c0.7-0.4,1.5-0.6,2.3-0.6
		s1.6,0.2,2.3,0.6c0.7,0.4,1.2,0.9,1.6,1.6c0.1,0.2,0.1,0.5-0.2,0.7c-0.2,0.1-0.5,0.1-0.7-0.2c-0.6-1.1-1.8-1.7-3-1.7
		s-2.4,0.7-3,1.7C-354.9-1951.1-355-1951-355.2-1951L-355.2-1951z"/>
	<path d="M-346.1-1953.2c-0.2,0-0.3-0.1-0.4-0.2c-1.2-1.7-3.1-2.6-5.2-2.6c-2.1,0-4,1-5.2,2.6c-0.2,0.2-0.5,0.3-0.7,0.1
		c-0.2-0.2-0.3-0.5-0.1-0.7c0.7-0.9,1.6-1.7,2.6-2.2c1.1-0.5,2.2-0.8,3.4-0.8c1.2,0,2.3,0.3,3.4,0.8c1,0.5,1.9,1.3,2.6,2.2
		c0.2,0.2,0.1,0.5-0.1,0.7C-345.9-1953.2-346-1953.2-346.1-1953.2z"/>
	<path d="M-344-1955.3c-0.1,0-0.3-0.1-0.4-0.2c-1.8-2.2-4.5-3.5-7.4-3.5c-2.9,0-5.5,1.3-7.4,3.5c-0.2,0.2-0.5,0.2-0.7,0.1
		c-0.2-0.2-0.2-0.5-0.1-0.7c2-2.4,5-3.9,8.1-3.9c3.2,0,6.1,1.4,8.1,3.9c0.2,0.2,0.1,0.5-0.1,0.7
		C-343.8-1955.4-343.9-1955.3-344-1955.3L-344-1955.3z"/>
</g>
</svg>
