<?xml version="1.0" encoding="utf-8"?>
<!-- Generator: Adobe Illustrator 21.1.0, SVG Export Plug-In . SVG Version: 6.00 Build 0)  -->
<svg version="1.1" xmlns="http://www.w3.org/2000/svg" xmlns:xlink="http://www.w3.org/1999/xlink" x="0px" y="0px"
	 viewBox="0 0 157.5 109" style="enable-background:new 0 0 157.5 109;" xml:space="preserve">
<g>
	<path d="M154.1,17c-1.8-6.7-7.1-12-13.9-13.8C127.9,0,78.7,0,78.7,0S30.4-0.2,18.1,3C11.3,4.8,4.8,10.3,3,17
		c-3.3,12.2-3,37.5-3,37.5S-0.3,79.8,3,92c1.8,6.7,8.4,12.2,15.1,14c12.3,3.3,60.6,3,60.6,3s48.3,0.2,60.6-3
		c6.8-1.8,13.1-7.3,14.9-14c3.3-12.1,3.3-37.5,3.3-37.5S157.4,29.2,154.1,17z M63.6,78.7V30.3l39.3,24.2L63.6,78.7z"/>
</g>
</svg>
